{
.appVersion = "939";
copyright = Collletttivo;
customParameters = (
{
name = Axes;
value = "Weight, Width";
}
);
date = "2018-11-03 16:13:45 +0000";
designer = "Matteo Maggi";
designerURL = maggimatteo.eu;
familyName = "Halibut Serif";
featurePrefixes = (
{
code = "languagesystem DFLT dflt;\012";
name = Languagesystems;
}
);
features = (
{
automatic = 1;
code = "feature ccmp;\012feature ss01;\012feature salt;\012";
name = aalt;
},
{
automatic = 1;
code = "lookup ccmp_Other_1 {\012	@CombiningTopAccents = [acutecomb circumflexcomb dieresiscomb dotaccentcomb gravecomb ringcomb tildecomb];\012	@CombiningNonTopAccents = [cedillacomb slashlongcomb strokeshortcomb];\012	sub [i]' @CombiningTopAccents by [idotless];\012	sub [i]' @CombiningNonTopAccents @CombiningTopAccents by [idotless];\012} ccmp_Other_1;\012";
name = ccmp;
},
{
automatic = 1;
code = "sub f i by fi;\012sub f l by fl;\012sub T h by T_h.liga;\012sub f h by f_h.liga;\012sub f k by f_k.liga;\012";
name = liga;
},
{
code = "sub f by f.ss01;\012sub t by t.ss01;\012sub E by E.ss01;\012sub F by F.ss01;\012sub Eacute by Eacute.ss01;\012sub Ecircumflex by Ecircumflex.ss01;\012sub Edieresis by Edieresis.ss01;\012sub Egrave by Egrave.ss01;\012sub Eogonek by Eogonek.ss01;\012sub AE by AE.ss01;\012sub OE by OE.ss01;\012sub f_h.liga by f_h.ss01;\012sub fl by fl.ss01;\012sub f_k.liga by f_k.ss01;\012";
name = ss01;
notes = "Stylistic Set 1";
},
{
automatic = 1;
code = "sub AE by AE.ss01;\012sub E by E.ss01;\012sub Eacute by Eacute.ss01;\012sub Ecircumflex by Ecircumflex.ss01;\012sub Edieresis by Edieresis.ss01;\012sub Egrave by Egrave.ss01;\012sub Eogonek by Eogonek.ss01;\012sub F by F.ss01;\012sub OE by OE.ss01;\012sub f by f.ss01;\012sub t by t.ss01;\012sub fl by fl.ss01;\012";
name = salt;
}
);
fontMaster = (
{
alignmentZones = (
"{0, 30}"
);
ascender = 700;
capHeight = 600;
descender = -250;
id = "0CCC0E2D-406A-4672-8E6C-854B1DF78A27";
width = Extended;
widthValue = 200;
xHeight = 400;
},
{
alignmentZones = (

glyphs = (
{
color = 4;
glyphname = A;
lastChange = "2020-04-09 10:00:24 +0000";
layers = (
{
layerId = "0CCC0E2D-406A-4672-8E6C-854B1DF78A27";
paths = (
{
closed = 1;
nodes = (
"-88 -1 LINE",
"263 -1 LINE",
"265 3 LINE",
"110 49 LINE",
"196.509 179 LINE",
"668.518 179 LINE",
"754 50 LINE",
"594 4 LINE",
"596 0 LINE",
"991 0 LINE",
"993 4 LINE",
"843 50 LINE",
"478 600 LINE",
"226 600 LINE",
"224 596 LINE",
"394.433 551.564 LINE",
"60 49 LINE",
"-90 3 LINE"
);
},
{
closed = 1;
nodes = (
"433.19 534.669 LINE",
"479 465 LINE",
"642.012 219 LINE",
"223.127 219 LINE"
);
}
);
width = 913;
},
{
layerId = "1838EE49-6142-4994-A2D6-8A9E455BC2D6";
paths = (
{
closed = 1;
nodes = (
"-18 0 LINE",
"193 0 LINE",
"195 6 LINE",
"105 30 LINE",
"136.411 160 LINE",
"295.635 160 LINE",
"326 30 LINE",
"237 6 LINE",
"239 0 LINE",
"469 0 LINE",
"471 6 LINE",
"381 30 LINE",
"243 600 LINE",
"109 600 LINE",
"107 596 LINE",
"197 557 LINE",
"70 30 LINE",
"-20 6 LINE"
);
},
{
closed = 1;
nodes = (
"221.24 511.081 LINE",
"230 441 LINE",
"288.628 190 LINE",
"143.66 190 LINE"
);
}
);
width = 451;
},
{
layerId = "84B9B914-E755-4DFA-8752-0B6F9D0EEB02";
paths = (
{
closed = 1;
nodes = (
"-18 0 LINE",
"178 0 LINE",
"180 6 LINE",
"90 40 LINE",
"121 170 LINE",
"282 170 LINE",
"310 40 LINE",
"221 6 LINE",
"223 0 LINE",
"420 0 LINE",
"422 6 LINE",
"332 40 LINE",
"209 600 LINE",
"110 600 LINE",
"108 596 LINE",
"196 557 LINE",
"70 40 LINE",
"-20 6 LINE"
);
},
{
closed = 1;
nodes = (
"206 536 LINE",
"219 463 LINE",
"278 189 LINE",
"126 189 LINE"
);
}
);
width = 402;
},
{
layerId = "8D80EE76-87DD-4377-B1D9-DA40B71577EF";
paths = (
{
closed = 1;
nodes = (
"-88 0 LINE",
"235 0 LINE",
"237 3 LINE",
"84 49 LINE",
"181 197 LINE",
"640 197 LINE",
"732 50 LINE",
"576 3 LINE",
"578 0 LINE",
"910 0 LINE",
"912 3 LINE",
"762 50 LINE",
"420 600 LINE",
"245 600 LINE",
"243 596 LINE",
"391 553 LINE",
"60 49 LINE",
"-90 3 LINE"
);
},
{
closed = 1;
nodes = (
"416 556 LINE",
"457 499 LINE",
"627 218 LINE",
"195 218 LINE"
);
}
);
width = 832;
},
{
layerId = "D4C2733C-030D-4F32-9813-200DF8941BD6";
paths = (
{
closed = 1;
nodes = (
"-48 0 LINE",
"223 0 LINE",
"225 5 LINE",
"107 38 LINE",
"162 168 LINE",
"455 168 LINE",
"509 39 LINE",
"390 5 LINE",
"392 0 LINE",
"693 0 LINE",
"695 5 LINE",
"579 39 LINE",
"344 600 LINE",
"159 600 LINE",
"157 596 LINE",
"282 555 LINE",
"66 38 LINE",
"-50 5 LINE"
);
},
{
closed = 1;
nodes = (
"312 521 LINE",
"337 451 LINE",
"440 202 LINE",
"178 202 LINE"
);
}
);
width = 649;
}
);
unicode = 0041;
},
{
color = 4;
glyphname = AE;
lastChange = "2020-04-09 10:00:24 +0000";
layers = (
{
layerId = "0CCC0E2D-406A-4672-8E6C-854B1DF78A27";
paths = (
{
closed = 1;
nodes = (
"603 543 LINE",
"603 219 LINE",
"283 219 LINE"
);
},
{
closed = 1;
nodes = (
"-88 -1 LINE",
"263 -1 LINE",
"265 3 LINE",
"115 49 LINE",
"243 179 LINE",
"603 179 LINE",
"603 50 LINE",
"453 3 LINE",
"455 0 LINE",
"1214 0 LINE",
"1194 220 LINE",
"1188 218 LINE",
"1134 45 LINE",
"678 31 LINE",
"678 276 LINE",
"970 269 LINE",
"1035 149 LINE",
"1041 152 LINE",
"1024 293 LINE",
"1039 435 LINE",
"1033 438 LINE",
"970 318 LINE",
"679 310 LINE",
"679 569 LINE",
"1143 561 LINE",
"1168 402 LINE",
"1175 400 LINE",
"1224 615 LINE",
"925 600 LINE",
"399 601 LINE",
"401 597 LINE",
"570 560 LINE",
"60 49 LINE",
"-90 3 LINE"
);
}
);
width = 1284;
},
{
layerId = "1838EE49-6142-4994-A2D6-8A9E455BC2D6";
paths = (
{
closed = 1;
nodes = (
"315 566.621 LINE",
"315 190 LINE",
"169.018 190 LINE"
);
},
{
closed = 1;
nodes = (
"-18 0 LINE",
"195 0 LINE",
"197 6 LINE",
"107 30 LINE",
"157 160 LINE",
"315 160 LINE",
"315 30 LINE",
"225 6 LINE",
"227 0 LINE",
"572 0 LINE",
"557 210 LINE",
"553 208 LINE",
"522 30 LINE",
"370 21 LINE",
"370 284 LINE",
"486 277 LINE",
"516 208 LINE",
"517 210 LINE",
"512 293 LINE",
"518 372 LINE",
"516 374 LINE",
"485 312 LINE",
"370 304 LINE",
"370 579 LINE",
"522 570 LINE",
"546 402 LINE",
"550 400 LINE",
"574 610 LINE",
"487 600 LINE",
"195 600 LINE",
"192 594 LINE",
"282 579 LINE",
"70 30 LINE",
"-20 6 LINE"
);
}
);
width = 619;
},
{
layerId = "84B9B914-E755-4DFA-8752-0B6F9D0EEB02";
paths = (
{
closed = 1;
nodes = (
"301 570 LINE",
"301 189 LINE",
"149 189 LINE"
);
},
{
closed = 1;
nodes = (
"-18 0 LINE",
"182 0 LINE",
"184 6 LINE",
"91 40 LINE",
"143 172 LINE",
"301 172 LINE",
"301 40 LINE",
"211 6 LINE",
"213 0 LINE",
"552 0 LINE",
"538 193 LINE",
"532 191 LINE",
"508 20 LINE",
"321 15 LINE",
"321 284 LINE",
"427 281 LINE",
"457 212 LINE",
"459 214 LINE",
"450 293 LINE",
"459 368 LINE",
"457 370 LINE",
"426 303 LINE",
"321 299 LINE",
"321 585 LINE",
"508 580 LINE",
"525 415 LINE",
"531 413 LINE",
"548 610 LINE",
"464 600 LINE",
"203 600 LINE",
"201 596 LINE",
"275 560 LINE",
"70 40 LINE",
"-20 6 LINE"
);
}
);
width = 597;
},
{
layerId = "8D80EE76-87DD-4377-B1D9-DA40B71577EF";
paths = (
{
closed = 1;
nodes = (
"584 557 LINE",
"584 218 LINE",
"265 218 LINE"
);
},
{
closed = 1;
nodes = (
"-88 0 LINE",
"245 0 LINE",
"247 3 LINE",
"101 50 LINE",
"244 197 LINE",
"583 197 LINE",
"583 50 LINE",
"433 3 LINE",
"435 0 LINE",
"1189 0 LINE",
"1169 192 LINE",
"1163 190 LINE",
"1118 22 LINE",
"607 13 LINE",
"608 281 LINE",
"882 278 LINE",
"947 158 LINE",
"953 161 LINE",
"932 293 LINE",
"951 426 LINE",
"945 429 LINE",
"882 300 LINE",
"608 298 LINE",
"608 587 LINE",
"1127 580 LINE",
"1143 423 LINE",
"1150 421 LINE",
"1190 615 LINE",
"895 600 LINE",
"430 600 LINE",
"429 597 LINE",
"560 558 LINE",
"69 50 LINE",
"-90 3 LINE"
);
}
);
width = 1250;
},
{
layerId = "D4C2733C-030D-4F32-9813-200DF8941BD6";
paths = (
{
closed = 1;
nodes = (
"438 556 LINE",
"438 202 LINE",
"218 202 LINE"
);
},
{
closed = 1;
nodes = (
"-48 0 LINE",
"224 0 LINE",
"226 5 LINE",
"110 38 LINE",
"194 168 LINE",
"438 168 LINE",
"438 39 LINE",
"323 5 LINE",
"325 0 LINE",
"847 0 LINE",
"830 214 LINE",
"825 212 LINE",
"784 36 LINE",
"502 25 LINE",
"502 281 LINE",
"693 274 LINE",
"738 183 LINE",
"742 185 LINE",
"731 293 LINE",
"741 399 LINE",
"738 401 LINE",
"693 315 LINE",
"502 307 LINE",
"502 575 LINE",
"788 566 LINE",
"813 402 LINE",
"818 400 LINE",
"853 612 LINE",
"675 600 LINE",
"282 600 LINE",
"282 595 LINE",
"405 571 LINE",
"66 38 LINE",
"-50 5 LINE"
);
}
);
width = 904;
}
);
leftMetricsKey = A;
rightMetricsKey = E;
unicode = 00C6;
},
{
color = 4;
glyphname = B;
lastChange = "2020-04-09 10:00:24 +0000";
layers = (
{
guideLines = (
{
angle = 270;
position = "{576, 293}";
}
);
layerId = "0CCC0E2D-406A-4672-8E6C-854B1DF78A27";
paths = (
{
closed = 1;
nodes = (
"12 0 LINE",
"527 1 LINE SMOOTH",
"795 2 OFFCURVE",
"926 50 OFFCURVE",
"926 167 CURVE SMOOTH",
"926 240.459 OFFCURVE",
"845.998 296.207 OFFCURVE",
"683.131 317.064 CURVE",
"815.986 336.826 OFFCURVE",
"891 391.655 OFFCURVE",
"891 456 CURVE SMOOTH",
"891 565 OFFCURVE",
"756 600 OFFCURVE",
"527 600 CURVE SMOOTH",
"12 600 LINE",
"10 597 LINE",
"160 550 LINE",
"160 50 LINE",
"10 3 LINE"
);
},
{
closed = 1;
nodes = (
"235 286 LINE",
"497 286 LINE SMOOTH",
"731 286 OFFCURVE",
"846 265 OFFCURVE",
"846 154 CURVE SMOOTH",
"846 69 OFFCURVE",
"738 41 OFFCURVE",
"517 41 CURVE SMOOTH",
"235 50 LINE"
);
},
{
closed = 1;
nodes = (
"235.765 561.733 LINE",
"497 570 LINE",
"708 569 OFFCURVE",
"811 543 OFFCURVE",
"811 448 CURVE SMOOTH",
"811 377 OFFCURVE",
"732 326 OFFCURVE",
"527 326 CURVE SMOOTH",
"235.552 326 LINE"
);
}
);
width = 976;
},
{
layerId = "1838EE49-6142-4994-A2D6-8A9E455BC2D6";
paths = (
{
closed = 1;
nodes = (
"17 0 LINE",
"218 0 LINE SMOOTH",
"323 0 OFFCURVE",
"397 71 OFFCURVE",
"397 172 CURVE SMOOTH",
"397 248.444 OFFCURVE",
"357.687 300.159 OFFCURVE",
"288.653 318.056 CURVE",
"345.155 339.487 OFFCURVE",
"377 387.349 OFFCURVE",
"377 462 CURVE SMOOTH",
"377 549 OFFCURVE",
"319 600 OFFCURVE",
"220 600 CURVE SMOOTH",
"17 600 LINE",
"15 594 LINE",
"105 570 LINE",
"105 30 LINE",
"15 6 LINE"
);
},
{
closed = 1;
nodes = (
"160 295 LINE",
"218 295 LINE SMOOTH",
"293 297 OFFCURVE",
"337 246 OFFCURVE",
"337 158 CURVE SMOOTH",
"337 67 OFFCURVE",
"306 27 OFFCURVE",
"230 27 CURVE",
"160 29.917 LINE"
);
},
{
closed = 1;
nodes = (
"160 570 LINE",
"208 570 LINE SMOOTH",
"277 570 OFFCURVE",
"317 525 OFFCURVE",
"317 448 CURVE SMOOTH",
"317 371 OFFCURVE",
"286 325 OFFCURVE",
"220 325 CURVE SMOOTH",
"160 325 LINE"
);
}
);
width = 437;
},
{
associatedMasterId = "0CCC0E2D-406A-4672-8E6C-854B1DF78A27";
guideLines = (
{
angle = 270;
position = "{606, 293}";
}
);
layerId = "50E6EA7B-AFCA-42BE-AA86-BD03D217D714";
name = "Mar 27 18, 20:39";
paths = (
{
closed = 1;
nodes = (
"42 0 LINE",
"265 0 LINE",
"265 50 LINE",
"266 550 LINE",
"265 600 LINE",
"42 600 LINE",
"40 597 LINE",
"190 550 LINE",
"190 50 LINE",
"40 3 LINE"
);
},
{
closed = 1;
nodes = (
"527 288 LINE SMOOTH",
"761 288 OFFCURVE",
"876 265 OFFCURVE",
"876 154 CURVE SMOOTH",
"876 69 OFFCURVE",
"768 41 OFFCURVE",
"547 41 CURVE",
"226 40 LINE",
"226 0 LINE",
"557 1 LINE SMOOTH",
"825 2 OFFCURVE",
"956 57 OFFCURVE",
"956 167 CURVE SMOOTH",
"956 272 OFFCURVE",
"825 323 OFFCURVE",
"557 323 CURVE SMOOTH",
"211 323 LINE",
"211 288 LINE"
);
},
{
closed = 1;
nodes = (
"527 570 LINE",
"738 569 OFFCURVE",
"841 536 OFFCURVE",
"841 441 CURVE SMOOTH",
"841 361 OFFCURVE",
"741 322 OFFCURVE",
"536 322 CURVE",
"560 309 LINE",
"787 300 OFFCURVE",
"921 355 OFFCURVE",
"921 456 CURVE SMOOTH",
"921 547 OFFCURVE",
"786 600 OFFCURVE",
"557 600 CURVE SMOOTH",
"211 600 LINE",
"211 560 LINE"
);
}
);
width = 1006;
},
{
associatedMasterId = "FC46D930-83A8-41E8-A9CB-C8AD47DCDD9D";
guideLines = (
{
angle = 270;
position = "{606, 293}";
}
);
layerId = "39A7403D-D5F7-476E-B4DD-AC7E852F258F";
name = "Mar 27 18, 20:39";
paths = (
{
closed = 1;
nodes = (
"42 0 LINE",
"265 0 LINE",
"265 50 LINE",
"266 550 LINE",
"265 600 LINE",
"42 600 LINE",
"40 597 LINE",
"190 550 LINE",
"190 50 LINE",
"40 3 LINE"
);
},
{
closed = 1;
nodes = (
"527 288 LINE SMOOTH",
"761 288 OFFCURVE",
"876 265 OFFCURVE",
"876 154 CURVE SMOOTH",
"876 69 OFFCURVE",
"768 41 OFFCURVE",
"547 41 CURVE",
"226 40 LINE",
"226 0 LINE",
"557 1 LINE SMOOTH",
"825 2 OFFCURVE",
"956 57 OFFCURVE",
"956 167 CURVE SMOOTH",
"956 272 OFFCURVE",
"825 323 OFFCURVE",
"557 323 CURVE SMOOTH",
"211 323 LINE",
"211 288 LINE"
);
},
{
closed = 1;
nodes = (
"527 570 LINE",
"738 569 OFFCURVE",
"841 536 OFFCURVE",
"841 441 CURVE SMOOTH",
"841 361 OFFCURVE",
"741 322 OFFCURVE",
"536 322 CURVE",
"560 309 LINE",
"787 300 OFFCURVE",
"921 355 OFFCURVE",
"921 456 CURVE SMOOTH",
"921 547 OFFCURVE",
"786 600 OFFCURVE",
"557 600 CURVE SMOOTH",
"211 600 LINE",
"211 560 LINE"
);
}
);
width = 1006;
},
{
layerId = "84B9B914-E755-4DFA-8752-0B6F9D0EEB02";
paths = (
{
closed = 1;
nodes = (
"17 0 LINE",
"188 0 LINE SMOOTH",
"302 0 OFFCURVE",
"357 71 OFFCURVE",
"357 171 CURVE SMOOTH",
"357 258 OFFCURVE",
"320 298 OFFCURVE",
"229 312 CURVE",
"312 328 OFFCURVE",
"337 378 OFFCURVE",
"337 461 CURVE SMOOTH",
"337 541 OFFCURVE",
"294 600 OFFCURVE",
"190 600 CURVE SMOOTH",
"17 600 LINE",
"15 594 LINE",
"105 560 LINE",
"105 40 LINE",
"15 6 LINE"
);
},
{
closed = 1;
nodes = (
"124 301 LINE",
"188 301 LINE SMOOTH",
"291 303 OFFCURVE",
"337 251 OFFCURVE",
"334 162 CURVE SMOOTH",
"331 64 OFFCURVE",
"252 3 OFFCURVE",
"200 18 CURVE SMOOTH",
"124 40 LINE"
);
},
{
closed = 1;
nodes = (
"124 570 LINE",
"178 582 LINE",
"283 582 OFFCURVE",
"314 529 OFFCURVE",
"314 449 CURVE SMOOTH",
"314 378 OFFCURVE",
"272 319 OFFCURVE",
"190 319 CURVE SMOOTH",
"125 319 LINE"
);
}
);
width = 397;
},
{
layerId = "8D80EE76-87DD-4377-B1D9-DA40B71577EF";
paths = (
{
closed = 1;
nodes = (
"12 0 LINE",
"485 1 LINE SMOOTH",
"766 2 OFFCURVE",
"868 45 OFFCURVE",
"868 165 CURVE SMOOTH",
"868 260 OFFCURVE",
"792 293 OFFCURVE",
"593 308 CURVE",
"768 319 OFFCURVE",
"833 367 OFFCURVE",
"833 455 CURVE SMOOTH",
"833 560 OFFCURVE",
"721 600 OFFCURVE",
"485 600 CURVE SMOOTH",
"12 600 LINE",
"10 598 LINE",
"160 550 LINE",
"160 50 LINE",
"10 2 LINE"
);
},
{
closed = 1;
nodes = (
"183 295 LINE",
"455 295 LINE SMOOTH",
"733 295 OFFCURVE",
"840 260 OFFCURVE",
"840 160 CURVE SMOOTH",
"840 59 OFFCURVE",
"719 15 OFFCURVE",
"475 23 CURVE SMOOTH",
"183 32 LINE"
);
},
{
closed = 1;
nodes = (
"184 572 LINE",
"455 582 LINE",
"699 582 OFFCURVE",
"805 543 OFFCURVE",
"805 450 CURVE SMOOTH",
"805 365 OFFCURVE",
"714 317 OFFCURVE",
"485 317 CURVE SMOOTH",
"184 317 LINE"
);
}
);
width = 918;
},
{
layerId = "D4C2733C-030D-4F32-9813-200DF8941BD6";
paths = (
{
closed = 1;
nodes = (
"15 0 LINE",
"350 0 LINE SMOOTH",
"525 1 OFFCURVE",
"624 62 OFFCURVE",
"624 170 CURVE SMOOTH",
"624 245 OFFCURVE",
"567 298 OFFCURVE",
"458 318 CURVE",
"547 338 OFFCURVE",
"597 389 OFFCURVE",
"597 459 CURVE SMOOTH",
"597 556 OFFCURVE",
"506 600 OFFCURVE",
"352 600 CURVE SMOOTH",
"15 600 LINE",
"13 595 LINE",
"129 561 LINE",
"129 39 LINE",
"13 5 LINE"
);
},
{
closed = 1;
nodes = (
"192 291 LINE",
"338 291 LINE SMOOTH",
"481 292 OFFCURVE",
"555 254 OFFCURVE",
"555 156 CURVE SMOOTH",
"555 68 OFFCURVE",
"491 33 OFFCURVE",
"353 33 CURVE SMOOTH",
"192 39 LINE"
);
},
{
closed = 1;
nodes = (
"192 566 LINE",
"332 570 LINE",
"462 570 OFFCURVE",
"529 533 OFFCURVE",
"529 448 CURVE SMOOTH",
"529 374 OFFCURVE",
"477 325 OFFCURVE",
"352 325 CURVE SMOOTH",
"192 325 LINE"
);
}
);
width = 668;
}
);
unicode = 0042;
},
{
color = 4;
glyphname = C;
lastChange = "2020-04-09 10:00:24 +0000";
layers = (
{
layerId = "0CCC0E2D-406A-4672-8E6C-854B1DF78A27";
paths = (
{
closed = 1;
nodes = (
"50 112 OFFCURVE",
"234 -20 OFFCURVE",
"495 -20 CURVE SMOOTH",
"628 -20 OFFCURVE",
"751 18 OFFCURVE",
"829 85 CURVE",
"822 105 LINE",
"766 54 OFFCURVE",
"645 25 OFFCURVE",
"539 25 CURVE SMOOTH",
"299 25 OFFCURVE",
"130 149 OFFCURVE",
"130 325 CURVE SMOOTH",
"130 474 OFFCURVE",
"271 580 OFFCURVE",
"471 580 CURVE SMOOTH",
"589 580 OFFCURVE",
"700 557 OFFCURVE",
"769 500 CURVE",
"787 332 LINE",
"794 330 LINE",
"855 511 LINE",
"779 579 OFFCURVE",
"652 625 OFFCURVE",
"514 625 CURVE SMOOTH",
"242 625 OFFCURVE",
"50 490 OFFCURVE",
"50 299 CURVE SMOOTH"
);
}
);
width = 935;
},
{
layerId = "1838EE49-6142-4994-A2D6-8A9E455BC2D6";
paths = (
{
closed = 1;
nodes = (
"40 103 OFFCURVE",
"92 -10 OFFCURVE",
"197 -10 CURVE SMOOTH",
"245 -10 OFFCURVE",
"283 24 OFFCURVE",
"314 70 CURVE",
"301 87 LINE",
"277 49 OFFCURVE",
"243 25 OFFCURVE",
"209 25 CURVE SMOOTH",
"135 25 OFFCURVE",
"100 130 OFFCURVE",
"100 391 CURVE SMOOTH",
"100 530 OFFCURVE",
"131 585 OFFCURVE",
"197 585 CURVE SMOOTH",
"230 585 OFFCURVE",
"254 566 OFFCURVE",
"271 523 CURVE",
"291 343 LINE",
"295 341 LINE",
"317 551 LINE",
"291 594 OFFCURVE",
"255 615 OFFCURVE",
"209 615 CURVE SMOOTH",
"96 615 OFFCURVE",
"40 522 OFFCURVE",
"40 333 CURVE SMOOTH"
);
}
);
width = 357;
},
{
associatedMasterId = "0CCC0E2D-406A-4672-8E6C-854B1DF78A27";
layerId = "D1E02D2E-03A9-408A-95E8-8AA71CA27DF5";
name = "Mar 27 18, 21:18";
paths = (
{
closed = 1;
nodes = (
"735 500 LINE",
"793 331 LINE",
"797 329 LINE",
"819 533 LINE"
);
},
{
closed = 1;
nodes = (
"792 257 LINE",
"786 255 LINE",
"756 102 LINE",
"819 92 LINE"
);
},
{
closed = 1;
nodes = (
"819 533 LINE",
"744 587 OFFCURVE",
"625 625 OFFCURVE",
"504 625 CURVE SMOOTH",
"232 625 OFFCURVE",
"40 490 OFFCURVE",
"40 299 CURVE SMOOTH",
"40 112 OFFCURVE",
"214 -20 OFFCURVE",
"475 -20 CURVE SMOOTH",
"626 -20 OFFCURVE",
"741 16 OFFCURVE",
"819 92 CURVE",
"756 102 LINE",
"699 48 OFFCURVE",
"623 25 OFFCURVE",
"519 25 CURVE SMOOTH",
"279 25 OFFCURVE",
"120 149 OFFCURVE",
"120 325 CURVE SMOOTH",
"120 474 OFFCURVE",
"261 580 OFFCURVE",
"461 580 CURVE SMOOTH",
"567 580 OFFCURVE",
"668 546 OFFCURVE",
"735 500 CURVE"
);
}
);
width = 869;
},
{
associatedMasterId = "FC46D930-83A8-41E8-A9CB-C8AD47DCDD9D";
layerId = "2916A66B-B6EE-41CB-B69B-6CA9D5BF9094";
name = "Mar 27 18, 21:18";
paths = (
{
closed = 1;
nodes = (
"735 500 LINE",
"793 331 LINE",
"797 329 LINE",
"819 533 LINE"
);
},
{
closed = 1;
nodes = (
"792 257 LINE",
"786 255 LINE",
"756 102 LINE",
"819 92 LINE"
);
},
{
closed = 1;
nodes = (
"819 533 LINE",
"744 587 OFFCURVE",
"625 625 OFFCURVE",
"504 625 CURVE SMOOTH",
"232 625 OFFCURVE",
"40 490 OFFCURVE",
"40 299 CURVE SMOOTH",
"40 112 OFFCURVE",
"214 -20 OFFCURVE",
"475 -20 CURVE SMOOTH",
"626 -20 OFFCURVE",
"741 16 OFFCURVE",
"819 92 CURVE",
"756 102 LINE",
"699 48 OFFCURVE",
"623 25 OFFCURVE",
"519 25 CURVE SMOOTH",
"279 25 OFFCURVE",
"120 149 OFFCURVE",
"120 325 CURVE SMOOTH",
"120 474 OFFCURVE",
"261 580 OFFCURVE",
"461 580 CURVE SMOOTH",
"567 580 OFFCURVE",
"668 546 OFFCURVE",
"735 500 CURVE"
);
}
);
width = 869;
},
{
layerId = "84B9B914-E755-4DFA-8752-0B6F9D0EEB02";
paths = (
{
closed = 1;
nodes = (
"40 131 OFFCURVE",
"82 -9 OFFCURVE",
"170 -9 CURVE SMOOTH",
"220 -9 OFFCURVE",
"258 20 OFFCURVE",
"297 92 CURVE",
"291 98 LINE",
"258 40 OFFCURVE",
"222 11 OFFCURVE",
"182 11 CURVE SMOOTH",
"94 11 OFFCURVE",
"64 137 OFFCURVE",
"64 382 CURVE SMOOTH",
"64 513 OFFCURVE",
"110 598 OFFCURVE",
"181 598 CURVE SMOOTH",
"217 598 OFFCURVE",
"245 574 OFFCURVE",
"261 529 CURVE",
"275 349 LINE",
"279 347 LINE",
"305 551 LINE",
"252 602 OFFCURVE",
"220 614 OFFCURVE",
"188 614 CURVE SMOOTH",
"83 614 OFFCURVE",
"40 534 OFFCURVE",
"40 342 CURVE SMOOTH"
);
}
);
width = 345;
},
{
layerId = "8D80EE76-87DD-4377-B1D9-DA40B71577EF";
paths = (
{
closed = 1;
nodes = (
"50 119 OFFCURVE",
"211 -18 OFFCURVE",
"436 -18 CURVE SMOOTH",
"589 -18 OFFCURVE",
"716 30 OFFCURVE",
"801 103 CURVE",
"796 114 LINE",
"731 55 OFFCURVE",
"601 5 OFFCURVE",
"480 5 CURVE SMOOTH",
"245 5 OFFCURVE",
"79 126 OFFCURVE",
"79 325 CURVE SMOOTH",
"79 472 OFFCURVE",
"243 601 OFFCURVE",
"445 601 CURVE SMOOTH",
"574 601 OFFCURVE",
"689 562 OFFCURVE",
"752 509 CURVE",
"761 341 LINE",
"768 339 LINE",
"820 511 LINE",
"711 580 OFFCURVE",
"602 623 OFFCURVE",
"488 623 CURVE SMOOTH",
"220 623 OFFCURVE",
"50 492 OFFCURVE",
"50 299 CURVE SMOOTH"
);
}
);
width = 900;
},
{
layerId = "D4C2733C-030D-4F32-9813-200DF8941BD6";
paths = (
{
closed = 1;
nodes = (
"44 107 OFFCURVE",
"153 -14 OFFCURVE",
"325 -14 CURVE SMOOTH",
"409 -14 OFFCURVE",
"484 21 OFFCURVE",
"535 76 CURVE",
"524 95 LINE",
"487 51 OFFCURVE",
"415 25 OFFCURVE",
"350 25 CURVE SMOOTH",
"205 25 OFFCURVE",
"113 138 OFFCURVE",
"113 363 CURVE SMOOTH",
"113 506 OFFCURVE",
"191 583 OFFCURVE",
"314 583 CURVE SMOOTH",
"384 583 OFFCURVE",
"445 562 OFFCURVE",
"484 513 CURVE",
"504 338 LINE",
"509 336 LINE",
"548 534 LINE",
"500 588 OFFCURVE",
"425 619 OFFCURVE",
"340 619 CURVE SMOOTH",
"159 619 OFFCURVE",
"44 508 OFFCURVE",
"44 318 CURVE SMOOTH"
);
}
);
width = 605;
}
);
unicode = 0043;
},
{
color = 3;
glyphname = Ccedilla;
lastChange = "2020-04-09 10:00:24 +0000";
layers = (
{
layerId = "0CCC0E2D-406A-4672-8E6C-854B1DF78A27";
paths = (
{
closed = 1;
nodes = (
"50 112 OFFCURVE",
"234 -20 OFFCURVE",
"495 -20 CURVE SMOOTH",
"519.422 -20 OFFCURVE",
"543.506 -18.719 OFFCURVE",
"567.037 -16.212 CURVE",
"443 -73 LINE",
"456 -96 LINE",
"498 -85 OFFCURVE",
"532 -103 OFFCURVE",
"532 -139 CURVE SMOOTH",
"532 -165 OFFCURVE",
"501 -184 OFFCURVE",
"462 -184 CURVE SMOOTH",
"434 -184 OFFCURVE",
"404 -173 OFFCURVE",
"389 -157 CURVE",
"380 -165 LINE",
"406 -197 OFFCURVE",
"448 -219 OFFCURVE",
"505 -219 CURVE SMOOTH",
"557 -219 OFFCURVE",
"600 -186 OFFCURVE",
"600 -137 CURVE SMOOTH",
"600 -90 OFFCURVE",
"554 -57 OFFCURVE",
"507 -68 CURVE",
"710 12 OFFCURVE",
"795 56 OFFCURVE",
"829 85 CURVE",
"822 105 LINE",
"766 54 OFFCURVE",
"645 25 OFFCURVE",
"539 25 CURVE SMOOTH",
"299 25 OFFCURVE",
"130 149 OFFCURVE",
"130 325 CURVE SMOOTH",
"130 474 OFFCURVE",
"271 580 OFFCURVE",
"471 580 CURVE SMOOTH",
"589 580 OFFCURVE",
"700 557 OFFCURVE",
"769 500 CURVE",
"787 332 LINE",
"794 330 LINE",
"855 511 LINE",
"779 579 OFFCURVE",
"652 625 OFFCURVE",
"514 625 CURVE SMOOTH",
"242 625 OFFCURVE",
"50 490 OFFCURVE",
"50 299 CURVE SMOOTH"
);
}
);
width = 935;
},
{
layerId = "1838EE49-6142-4994-A2D6-8A9E455BC2D6";
paths = (
{
closed = 1;
nodes = (
"40 103 OFFCURVE",
"92 -10 OFFCURVE",
"197 -10 CURVE",
"199 -10 OFFCURVE",
"206 -10 OFFCURVE",
"209.313 -9.241 CURVE",
"171 -45 LINE",
"177 -58 LINE",
"206 -41 OFFCURVE",
"231 -67 OFFCURVE",
"231 -101 CURVE SMOOTH",
"231 -133 OFFCURVE",
"216 -171 OFFCURVE",
"174 -171 CURVE SMOOTH",
"156 -171 OFFCURVE",
"136 -164 OFFCURVE",
"121 -155 CURVE",
"116 -160 LINE",
"133 -177 OFFCURVE",
"164 -191 OFFCURVE",
"193 -191 CURVE SMOOTH",
"243 -191 OFFCURVE",
"276 -143 OFFCURVE",
"276 -99 CURVE SMOOTH",
"276 -55 OFFCURVE",
"243 -21 OFFCURVE",
"204 -40 CURVE",
"257 5 OFFCURVE",
"298 46 OFFCURVE",
"314 70 CURVE",
"301 87 LINE",
"277 49 OFFCURVE",
"243 25 OFFCURVE",
"209 25 CURVE SMOOTH",
"135 25 OFFCURVE",
"100 130 OFFCURVE",
"100 391 CURVE SMOOTH",
"100 530 OFFCURVE",
"131 585 OFFCURVE",
"197 585 CURVE SMOOTH",
"230 585 OFFCURVE",
"254 566 OFFCURVE",
"271 523 CURVE",
"291 343 LINE",
"295 341 LINE",
"317 551 LINE",
"291 594 OFFCURVE",
"255 615 OFFCURVE",
"209 615 CURVE SMOOTH",
"96 615 OFFCURVE",
"40 522 OFFCURVE",
"40 333 CURVE SMOOTH"
);
}
);
width = 357;
},
{
layerId = "84B9B914-E755-4DFA-8752-0B6F9D0EEB02";
paths = (
{
closed = 1;
nodes = (
"40 131 OFFCURVE",
"82 -9 OFFCURVE",
"170 -9 CURVE SMOOTH",
"184 -9 OFFCURVE",
"197 -7 OFFCURVE",
"210 -2 CURVE",
"178 -42 LINE",
"188 -50 LINE",
"232 -33 OFFCURVE",
"249 -52 OFFCURVE",
"249 -96 CURVE SMOOTH",
"249 -142 OFFCURVE",
"223 -170 OFFCURVE",
"187 -170 CURVE SMOOTH",
"166 -170 OFFCURVE",
"139 -159 OFFCURVE",
"119 -142 CURVE",
"116 -150 LINE",
"134 -168 OFFCURVE",
"167 -186 OFFCURVE",
"193 -186 CURVE SMOOTH",
"239 -186 OFFCURVE",
"276 -144 OFFCURVE",
"276 -94 CURVE SMOOTH",
"276 -43 OFFCURVE",
"238 -17 OFFCURVE",
"194 -39 CURVE",
"229 9 OFFCURVE",
"257 20 OFFCURVE",
"297 92 CURVE",
"291 98 LINE",
"258 40 OFFCURVE",
"222 11 OFFCURVE",
"182 11 CURVE SMOOTH",
"94 11 OFFCURVE",
"64 137 OFFCURVE",
"64 382 CURVE SMOOTH",
"64 513 OFFCURVE",
"110 598 OFFCURVE",
"181 598 CURVE SMOOTH",
"217 598 OFFCURVE",
"245 574 OFFCURVE",
"261 529 CURVE",
"275 349 LINE",
"279 347 LINE",
"305 551 LINE",
"252 602 OFFCURVE",
"220 614 OFFCURVE",
"188 614 CURVE SMOOTH",
"83 614 OFFCURVE",
"40 534 OFFCURVE",
"40 342 CURVE SMOOTH"
);
}
);
width = 345;
},
{
layerId = "8D80EE76-87DD-4377-B1D9-DA40B71577EF";
paths = (
{
closed = 1;
nodes = (
"50 119 OFFCURVE",
"211 -18 OFFCURVE",
"436 -18 CURVE SMOOTH",
"485 -18 OFFCURVE",
"531 -13 OFFCURVE",
"574 -4 CURVE",
"468 -68 LINE",
"477 -78 LINE",
"519 -67 OFFCURVE",
"563 -89 OFFCURVE",
"563 -131 CURVE SMOOTH",
"563 -157 OFFCURVE",
"543 -194 OFFCURVE",
"485 -194 CURVE SMOOTH",
"444 -194 OFFCURVE",
"404 -167 OFFCURVE",
"388 -153 CURVE",
"384 -157 LINE",
"410 -189 OFFCURVE",
"452 -211 OFFCURVE",
"509 -211 CURVE SMOOTH",
"561 -211 OFFCURVE",
"604 -178 OFFCURVE",
"604 -129 CURVE SMOOTH",
"604 -82 OFFCURVE",
"558 -49 OFFCURVE",
"493 -70 CURVE",
"628 7 OFFCURVE",
"696 20 OFFCURVE",
"801 103 CURVE",
"796 114 LINE",
"731 55 OFFCURVE",
"601 5 OFFCURVE",
"480 5 CURVE SMOOTH",
"245 5 OFFCURVE",
"79 126 OFFCURVE",
"79 325 CURVE SMOOTH",
"79 472 OFFCURVE",
"243 601 OFFCURVE",
"445 601 CURVE SMOOTH",
"574 601 OFFCURVE",
"689 562 OFFCURVE",
"752 509 CURVE",
"761 341 LINE",
"768 339 LINE",
"820 511 LINE",
"711 580 OFFCURVE",
"602 623 OFFCURVE",
"488 623 CURVE SMOOTH",
"220 623 OFFCURVE",
"50 492 OFFCURVE",
"50 299 CURVE SMOOTH"
);
}
);
width = 900;
},
{
layerId = "D4C2733C-030D-4F32-9813-200DF8941BD6";
paths = (
{
closed = 1;
nodes = (
"44 107 OFFCURVE",
"153 -14 OFFCURVE",
"325 -14 CURVE SMOOTH",
"336 -14 OFFCURVE",
"351 -14 OFFCURVE",
"363 -12 CURVE",
"288 -57 LINE",
"297 -74 LINE",
"331 -60 OFFCURVE",
"360 -82 OFFCURVE",
"360 -117 CURVE SMOOTH",
"360 -147 OFFCURVE",
"338 -177 OFFCURVE",
"297 -177 CURVE SMOOTH",
"275 -177 OFFCURVE",
"251 -168 OFFCURVE",
"236 -156 CURVE",
"229 -162 LINE",
"250 -186 OFFCURVE",
"286 -203 OFFCURVE",
"327 -203 CURVE SMOOTH",
"378 -203 OFFCURVE",
"415 -161 OFFCURVE",
"415 -115 CURVE SMOOTH",
"415 -70 OFFCURVE",
"376 -36 OFFCURVE",
"334 -52 CURVE",
"451 8 OFFCURVE",
"511 50 OFFCURVE",
"535 76 CURVE",
"524 95 LINE",
"487 51 OFFCURVE",
"415 25 OFFCURVE",
"350 25 CURVE SMOOTH",
"205 25 OFFCURVE",
"113 138 OFFCURVE",
"113 363 CURVE SMOOTH",
"113 506 OFFCURVE",
"191 583 OFFCURVE",
"314 583 CURVE SMOOTH",
"384 583 OFFCURVE",
"445 562 OFFCURVE",
"484 513 CURVE",
"504 338 LINE",
"509 336 LINE",
"548 534 LINE",
"500 588 OFFCURVE",
"425 619 OFFCURVE",
"340 619 CURVE SMOOTH",
"159 619 OFFCURVE",
"44 508 OFFCURVE",
"44 318 CURVE SMOOTH"
);
}
);
width = 605;
}
);
leftMetricsKey = C;
rightMetricsKey = C;
unicode = 00C7;
},
{
color = 4;
glyphname = D;
lastChange = "2020-04-09 10:00:24 +0000";
layers = (
{
layerId = "0CCC0E2D-406A-4672-8E6C-854B1DF78A27";
paths = (
{
closed = 1;
nodes = (
"456 1 LINE SMOOTH",
"798 3 OFFCURVE",
"967 100 OFFCURVE",
"967 300 CURVE SMOOTH",
"967 501 OFFCURVE",
"798 600 OFFCURVE",
"456 600 CURVE SMOOTH",
"22 600 LINE",
"20 597 LINE",
"170 550 LINE",
"170 50 LINE",
"20 3 LINE",
"22 0 LINE"
);
},
{
closed = 1;
nodes = (
"245.933 553.357 LINE",
"426 575 LINE",
"735 575 OFFCURVE",
"884 470 OFFCURVE",
"884 287 CURVE SMOOTH",
"884 115 OFFCURVE",
"741 31 OFFCURVE",
"446 31 CURVE",
"245 49.361 LINE"
);
}
);
width = 1007;
},
{
layerId = "1838EE49-6142-4994-A2D6-8A9E455BC2D6";
paths = (
{
closed = 1;
nodes = (
"207 0 LINE SMOOTH",
"324 0 OFFCURVE",
"386 58 OFFCURVE",
"386 301 CURVE SMOOTH",
"386 514 OFFCURVE",
"339 600 OFFCURVE",
"219 600 CURVE SMOOTH",
"17 600 LINE",
"15 594 LINE",
"105 570 LINE",
"105 30 LINE",
"15 6 LINE",
"17 0 LINE"
);
},
{
closed = 1;
nodes = (
"160 572.167 LINE",
"207 580 LINE",
"296 580 OFFCURVE",
"326 499 OFFCURVE",
"326 268 CURVE SMOOTH",
"326 61 OFFCURVE",
"290 25 OFFCURVE",
"219 25 CURVE",
"160 33.194 LINE"
);
}
);
width = 416;
},
{
layerId = "84B9B914-E755-4DFA-8752-0B6F9D0EEB02";
paths = (
{
closed = 1;
nodes = (
"184 0 LINE SMOOTH",
"279 0 OFFCURVE",
"345 67 OFFCURVE",
"345 307 CURVE SMOOTH",
"345 521 OFFCURVE",
"312 600 OFFCURVE",
"196 600 CURVE SMOOTH",
"17 600 LINE",
"15 594 LINE",
"105 560 LINE",
"105 40 LINE",
"15 5 LINE",
"17 0 LINE"
);
},
{
closed = 1;
nodes = (
"125 570 LINE",
"184 586 LINE",
"308 577 OFFCURVE",
"322 517 OFFCURVE",
"322 274 CURVE SMOOTH",
"322 66 OFFCURVE",
"248 4 OFFCURVE",
"196 19 CURVE SMOOTH",
"125 40 LINE"
);
}
);
width = 375;
},
{
layerId = "8D80EE76-87DD-4377-B1D9-DA40B71577EF";
paths = (
{
closed = 1;
nodes = (
"424 1 LINE SMOOTH",
"732 2 OFFCURVE",
"907 114 OFFCURVE",
"907 309 CURVE SMOOTH",
"907 512 OFFCURVE",
"760 600 OFFCURVE",
"424 600 CURVE SMOOTH",
"22 600 LINE",
"20 597 LINE",
"170 550 LINE",
"170 50 LINE",
"20 3 LINE",
"22 0 LINE"
);
},
{
closed = 1;
nodes = (
"195 571 LINE",
"394 584 LINE",
"736 584 OFFCURVE",
"879 499 OFFCURVE",
"879 296 CURVE SMOOTH",
"879 122 OFFCURVE",
"710 22 OFFCURVE",
"414 22 CURVE",
"194 31 LINE"
);
}
);
width = 947;
},
{
layerId = "D4C2733C-030D-4F32-9813-200DF8941BD6";
paths = (
{
closed = 1;
nodes = (
"314 0 LINE SMOOTH",
"527 1 OFFCURVE",
"635 76 OFFCURVE",
"635 301 CURVE SMOOTH",
"635 508 OFFCURVE",
"536 600 OFFCURVE",
"321 600 CURVE SMOOTH",
"19 600 LINE",
"17 595 LINE",
"133 561 LINE",
"133 39 LINE",
"17 5 LINE",
"19 0 LINE"
);
},
{
closed = 1;
nodes = (
"197 564 LINE",
"301 578 LINE",
"484 578 OFFCURVE",
"565 487 OFFCURVE",
"565 276 CURVE SMOOTH",
"565 84 OFFCURVE",
"483 28 OFFCURVE",
"316 28 CURVE",
"196 40 LINE"
);
}
);
width = 669;
}
);
unicode = 0044;
},
{
color = 4;
glyphname = Eth;
lastChange = "2020-04-09 10:00:24 +0000";
layers = (
{
layerId = "0CCC0E2D-406A-4672-8E6C-854B1DF78A27";
paths = (
{
closed = 1;
nodes = (
"20 320 LINE",
"20 280 LINE",
"396 280 LINE",
"396 320 LINE"
);
},
{
closed = 1;
nodes = (
"456 1 LINE SMOOTH",
"798 3 OFFCURVE",
"966 100 OFFCURVE",
"966 300 CURVE SMOOTH",
"966 501 OFFCURVE",
"798 600 OFFCURVE",
"456 600 CURVE SMOOTH",
"22 600 LINE",
"20 597 LINE",
"170 550 LINE",
"170 50 LINE",
"20 3 LINE",
"22 0 LINE"
);
},
{
closed = 1;
nodes = (
"246 553 LINE",
"426 570 LINE",
"735 570 OFFCURVE",
"886 470 OFFCURVE",
"886 287 CURVE SMOOTH",
"886 115 OFFCURVE",
"741 36 OFFCURVE",
"446 36 CURVE",
"245 50 LINE"
);
}
);
width = 1006;
},
{
layerId = "1838EE49-6142-4994-A2D6-8A9E455BC2D6";
paths = (
{
closed = 1;
nodes = (
"17 320 LINE",
"17 290 LINE",
"248 290 LINE",
"248 320 LINE"
);
},
{
closed = 1;
nodes = (
"207 0 LINE SMOOTH",
"324 0 OFFCURVE",
"386 58 OFFCURVE",
"386 301 CURVE SMOOTH",
"386 514 OFFCURVE",
"339 600 OFFCURVE",
"219 600 CURVE SMOOTH",
"17 600 LINE",
"15 594 LINE",
"105 570 LINE",
"105 30 LINE",
"15 6 LINE",
"17 0 LINE"
);
},
{
closed = 1;
nodes = (
"160 572.167 LINE",
"207 580 LINE",
"296 580 OFFCURVE",
"326 499 OFFCURVE",
"326 268 CURVE SMOOTH",
"326 61 OFFCURVE",
"290 25 OFFCURVE",
"219 25 CURVE",
"160 33.194 LINE"
);
}
);
width = 416;
},
{
layerId = "84B9B914-E755-4DFA-8752-0B6F9D0EEB02";
paths = (
{
closed = 1;
nodes = (
"15 315 LINE",
"15 296 LINE",
"246 296 LINE",
"246 315 LINE"
);
},
{
closed = 1;
nodes = (
"185 0 LINE SMOOTH",
"280 0 OFFCURVE",
"346 67 OFFCURVE",
"346 307 CURVE SMOOTH",
"346 521 OFFCURVE",
"313 600 OFFCURVE",
"197 600 CURVE SMOOTH",
"18 600 LINE",
"16 594 LINE",
"106 560 LINE",
"106 40 LINE",
"16 5 LINE",
"18 0 LINE"
);
},
{
closed = 1;
nodes = (
"126 560 LINE",
"185 586 LINE",
"309 577 OFFCURVE",
"323 517 OFFCURVE",
"323 274 CURVE SMOOTH",
"323 66 OFFCURVE",
"249 4 OFFCURVE",
"197 19 CURVE SMOOTH",
"126 40 LINE"
);
}
);
width = 376;
},
{
layerId = "8D80EE76-87DD-4377-B1D9-DA40B71577EF";
paths = (
{
closed = 1;
nodes = (
"20 311 LINE",
"20 289 LINE",
"396 289 LINE",
"396 311 LINE"
);
},
{
closed = 1;
nodes = (
"433 1 LINE SMOOTH",
"741 2 OFFCURVE",
"916 114 OFFCURVE",
"916 309 CURVE SMOOTH",
"916 512 OFFCURVE",
"769 600 OFFCURVE",
"433 600 CURVE SMOOTH",
"31 600 LINE",
"29 597 LINE",
"179 550 LINE",
"179 50 LINE",
"29 3 LINE",
"31 0 LINE"
);
},
{
closed = 1;
nodes = (
"204 553 LINE",
"403 584 LINE",
"745 584 OFFCURVE",
"889 499 OFFCURVE",
"889 296 CURVE SMOOTH",
"889 122 OFFCURVE",
"719 22 OFFCURVE",
"423 22 CURVE",
"203 49 LINE"
);
}
);
width = 956;
},
{
layerId = "D4C2733C-030D-4F32-9813-200DF8941BD6";
paths = (
{
closed = 1;
nodes = (
"18 320 LINE",
"18 286 LINE",
"311 286 LINE",
"311 320 LINE"
);
},
{
closed = 1;
nodes = (
"314 0 LINE SMOOTH",
"527 1 OFFCURVE",
"635 76 OFFCURVE",
"635 301 CURVE SMOOTH",
"635 508 OFFCURVE",
"536 600 OFFCURVE",
"321 600 CURVE SMOOTH",
"19 600 LINE",
"17 595 LINE",
"133 561 LINE",
"133 39 LINE",
"17 5 LINE",
"19 0 LINE"
);
},
{
closed = 1;
nodes = (
"197 564 LINE",
"301 576 LINE",
"484 576 OFFCURVE",
"566 487 OFFCURVE",
"566 276 CURVE SMOOTH",
"566 84 OFFCURVE",
"483 30 OFFCURVE",
"316 30 CURVE",
"196 40 LINE"
);
}
);
width = 669;
}
);
leftMetricsKey = D;
rightMetricsKey = D;
unicode = 00D0;
},
{
color = 4;
glyphname = E;
lastChange = "2020-04-09 10:00:24 +0000";
layers = (
{
layerId = "0CCC0E2D-406A-4672-8E6C-854B1DF78A27";
paths = (
{
closed = 1;
nodes = (
"2 0 LINE",
"861 0 LINE",
"841 220 LINE",
"835 218 LINE",
"781 45 LINE",
"225 30.983 LINE",
"225.453 276.621 LINE",
"519 269 LINE",
"584 149 LINE",
"590 152 LINE",
"573 293 LINE",
"588 435 LINE",
"582 438 LINE",
"519 318 LINE",
"225.519 309.38 LINE",
"225.612 569.41 LINE",
"790 561 LINE",
"815 402 LINE",
"822 400 LINE",
"871 615 LINE",
"572 600 LINE",
"2 600 LINE",
"0 597 LINE",
"150 550 LINE",
"150 50 LINE",
"0 3 LINE"
);
}
);
width = 931;
},
{
layerId = "1838EE49-6142-4994-A2D6-8A9E455BC2D6";
paths = (
{
closed = 1;
nodes = (
"22 0 LINE",
"387 0 LINE",
"372 210 LINE",
"368 208 LINE",
"337 30 LINE",
"165 21.042 LINE",
"165 283.834 LINE",
"281 277 LINE",
"311 208 LINE",
"312 210 LINE",
"307 293 LINE",
"313 372 LINE",
"311 374 LINE",
"280 312 LINE",
"165 304.145 LINE",
"165 579.101 LINE",
"337 570 LINE",
"361 402 LINE",
"365 400 LINE",
"389 610 LINE",
"302 600 LINE",
"22 600 LINE",
"20 594 LINE",
"110 570 LINE",
"110 30 LINE",
"20 6 LINE"
);
}
);
width = 434;
},
{
associatedMasterId = "1838EE49-6142-4994-A2D6-8A9E455BC2D6";
layerId = "FC499AFE-FF39-4F6C-8705-A9218B73CB92";
name = "Apr 20 19, 12:14";
paths = (
{
closed = 1;
nodes = (
"22 0 LINE",
"387 0 LINE",
"372 210 LINE",
"368 208 LINE",
"337 30 LINE",
"165 21.042 LINE",
"165 283.834 LINE",
"307 276 LINE",
"307 311 LINE",
"165 304.145 LINE",
"165 579.101 LINE",
"337 570 LINE",
"361 402 LINE",
"365 400 LINE",
"389 610 LINE",
"302 600 LINE",
"22 600 LINE",
"20 594 LINE",
"110 570 LINE",
"110 30 LINE",
"20 6 LINE"
);
}
);
width = 434;
},
{
associatedMasterId = "0CCC0E2D-406A-4672-8E6C-854B1DF78A27";
layerId = "A910C0A5-6BB5-4CBA-8C8A-E5C5693DC7F9";
name = "Apr 20 19, 12:14";
paths = (
{
closed = 1;
nodes = (
"22 0 LINE",
"387 0 LINE",
"372 210 LINE",
"368 208 LINE",
"337 30 LINE",
"165 21.042 LINE",
"165 283.834 LINE",
"307 276 LINE",
"307 311 LINE",
"165 304.145 LINE",
"165 579.101 LINE",
"337 570 LINE",
"361 402 LINE",
"365 400 LINE",
"389 610 LINE",
"302 600 LINE",
"22 600 LINE",
"20 594 LINE",
"110 570 LINE",
"110 30 LINE",
"20 6 LINE"
);
}
);
width = 434;
},
{
layerId = "84B9B914-E755-4DFA-8752-0B6F9D0EEB02";
paths = (
{
closed = 1;
nodes = (
"22 0 LINE",
"352 0 LINE",
"338 193 LINE",
"332 191 LINE",
"308 20 LINE",
"130 15 LINE",
"130 284 LINE",
"246 281 LINE",
"276 214 LINE",
"278 216 LINE",
"269 293 LINE",
"278 368 LINE",
"276 370 LINE",
"245 303 LINE",
"130 299 LINE",
"130 585 LINE",
"308 580 LINE",
"325 415 LINE",
"331 413 LINE",
"348 610 LINE",
"267 600 LINE",
"22 600 LINE",
"20 593 LINE",
"110 560 LINE",
"110 40 LINE",
"20 8 LINE"
);
}
);
width = 397;
},
{
layerId = "8D80EE76-87DD-4377-B1D9-DA40B71577EF";
paths = (
{
closed = 1;
nodes = (
"2 0 LINE",
"810 0 LINE",
"790 192 LINE",
"784 190 LINE",
"739 22 LINE",
"174 13 LINE",
"175 281 LINE",
"468 278 LINE",
"533 158 LINE",
"539 161 LINE",
"518 293 LINE",
"537 426 LINE",
"531 429 LINE",
"468 300 LINE",
"175 298 LINE",
"175 587 LINE",
"748 580 LINE",
"764 423 LINE",
"771 421 LINE",
"811 615 LINE",
"521 600 LINE",
"2 600 LINE",
"0 597 LINE",
"150 550 LINE",
"150 50 LINE",
"0 3 LINE"
);
}
);
width = 871;
},
{
layerId = "D4C2733C-030D-4F32-9813-200DF8941BD6";
paths = (
{
closed = 1;
nodes = (
"13 0 LINE",
"590 0 LINE",
"573 214 LINE",
"568 212 LINE",
"527 36 LINE",
"191 25 LINE",
"191 281 LINE",
"383 274 LINE",
"428 183 LINE",
"431 185 LINE",
"421 293 LINE",
"431 399 LINE",
"427 401 LINE",
"382 315 LINE",
"191 306 LINE",
"191 575 LINE",
"531 566 LINE",
"556 402 LINE",
"561 400 LINE",
"596 612 LINE",
"418 600 LINE",
"13 600 LINE",
"11 595 LINE",
"127 561 LINE",
"127 39 LINE",
"11 5 LINE"
);
}
);
width = 647;
}
);
unicode = 0045;
},
{
color = 4;
glyphname = F;
lastChange = "2020-04-09 10:00:24 +0000";
layers = (
{
layerId = "0CCC0E2D-406A-4672-8E6C-854B1DF78A27";
paths = (
{
closed = 1;
nodes = (
"10 597 LINE",
"160 550 LINE",
"161 50 LINE",
"11 6 LINE",
"13 0 LINE",
"433 0 LINE",
"436 6 LINE",
"236 53 LINE",
"235.591 263.957 LINE",
"528 256 LINE",
"593 136 LINE",
"599 139 LINE",
"582 280 LINE",
"597 422 LINE",
"591 425 LINE",
"528 305 LINE",
"235.529 296.016 LINE",
"235 569 LINE",
"800 561 LINE",
"825 402 LINE",
"832 400 LINE",
"881 615 LINE",
"582 600 LINE",
"12 600 LINE"
);
}
);
width = 901;
},
{
layerId = "1838EE49-6142-4994-A2D6-8A9E455BC2D6";
paths = (
{
closed = 1;
nodes = (
"30 594 LINE",
"120 570 LINE",
"120 30 LINE",
"30 6 LINE",
"32 0 LINE",
"293 0 LINE",
"295 6 LINE",
"175 31 LINE",
"175 284 LINE",
"291 277 LINE",
"321 208 LINE",
"322 210 LINE",
"317 293 LINE",
"323 372 LINE",
"321 374 LINE",
"290 312 LINE",
"175 304 LINE",
"175 579 LINE",
"347 570 LINE",
"371 402 LINE",
"375 400 LINE",
"399 610 LINE",
"312 600 LINE",
"32 600 LINE"
);
}
);
width = 419;
},
{
associatedMasterId = "1838EE49-6142-4994-A2D6-8A9E455BC2D6";
layerId = "4F7CC4AD-91D7-475E-9F74-6318EE029700";
name = "Apr 20 19, 12:20";
paths = (
{
closed = 1;
nodes = (
"120 570 LINE",
"120 30 LINE",
"30 6 LINE",
"32 0 LINE",
"293 0 LINE",
"295 6 LINE",
"175 31 LINE",
"175 283.834 LINE",
"317 276 LINE",
"317 311 LINE",
"175 304.145 LINE",
"175 579.101 LINE",
"347 570 LINE",
"371 402 LINE",
"375 400 LINE",
"399 610 LINE",
"312 600 LINE",
"32 600 LINE",
"30 594 LINE"
);
}
);
width = 419;
},
{
associatedMasterId = "0CCC0E2D-406A-4672-8E6C-854B1DF78A27";
layerId = "8E3AE6BA-28EB-4BD7-9A6A-D82C415CF13D";
name = "Apr 20 19, 12:25";
paths = (
{
closed = 1;
nodes = (
"160 550 LINE",
"161 50 LINE",
"11 6 LINE",
"13 0 LINE",
"433 0 LINE",
"436 6 LINE",
"236 53 LINE",
"235.615 263.668 LINE",
"591 255 LINE",
"591 305 LINE",
"235.555 296.331 LINE",
"235.056 569.418 LINE",
"800 561 LINE",
"825 402 LINE",
"832 400 LINE",
"881 615 LINE",
"582 600 LINE",
"12 600 LINE",
"10 597 LINE"
);
}
);
width = 901;
},
{
associatedMasterId = "FC46D930-83A8-41E8-A9CB-C8AD47DCDD9D";
layerId = "B26159C7-A002-4A1B-A6BB-21D8CC73AC5D";
name = "Apr 20 19, 12:25";
paths = (
{
closed = 1;
nodes = (
"160 550 LINE",
"161 50 LINE",
"11 6 LINE",
"13 0 LINE",
"433 0 LINE",
"436 6 LINE",
"236 53 LINE",
"235.615 263.668 LINE",
"591 255 LINE",
"591 305 LINE",
"235.555 296.331 LINE",
"235.056 569.418 LINE",
"800 561 LINE",
"825 402 LINE",
"832 400 LINE",
"881 615 LINE",
"582 600 LINE",
"12 600 LINE",
"10 597 LINE"
);
}
);
width = 901;
},
{
associatedMasterId = "0CCC0E2D-406A-4672-8E6C-854B1DF78A27";
layerId = "EA982466-DFC0-4B75-BFAC-EDF952505A81";
name = "Apr 20 19, 12:20";
paths = (
{
closed = 1;
nodes = (
"120 570 LINE",
"120 30 LINE",
"30 6 LINE",
"32 0 LINE",
"293 0 LINE",
"295 6 LINE",
"175 31 LINE",
"175 283.834 LINE",
"317 276 LINE",
"317 311 LINE",
"175 304.145 LINE",
"175 579.101 LINE",
"347 570 LINE",
"371 402 LINE",
"375 400 LINE",
"399 610 LINE",
"312 600 LINE",
"32 600 LINE",
"30 594 LINE"
);
}
);
width = 419;
},
{
layerId = "84B9B914-E755-4DFA-8752-0B6F9D0EEB02";
paths = (
{
closed = 1;
nodes = (
"30 594 LINE",
"120 560 LINE",
"119 39 LINE",
"30 6 LINE",
"32 0 LINE",
"260 0 LINE",
"262 6 LINE",
"142 40 LINE",
"142.46 283.988 LINE",
"258 281 LINE",
"288 214 LINE",
"290 216 LINE",
"281 293 LINE",
"290 368 LINE",
"288 370 LINE",
"257 303 LINE",
"142.487 299.017 LINE",
"143 585 LINE",
"320 580 LINE",
"338 415 LINE",
"342 413 LINE",
"360 610 LINE",
"279 600 LINE",
"32 600 LINE"
);
}
);
width = 380;
},
{
layerId = "8D80EE76-87DD-4377-B1D9-DA40B71577EF";
paths = (
{
closed = 1;
nodes = (
"10 597 LINE",
"160 550 LINE",
"160 50 LINE",
"11 6 LINE",
"13 0 LINE",
"381 0 LINE",
"384 6 LINE",
"184 53 LINE",
"184 271 LINE",
"476 270 LINE",
"541 145 LINE",
"547 148 LINE",
"526 280 LINE",
"545 413 LINE",
"539 416 LINE",
"476 292 LINE",
"184 288 LINE",
"184 587 LINE",
"758 580 LINE",
"773 423 LINE",
"780 421 LINE",
"820 615 LINE",
"530 600 LINE",
"12 600 LINE"
);
}
);
width = 840;
},
{
layerId = "D4C2733C-030D-4F32-9813-200DF8941BD6";
paths = (
{
closed = 1;
nodes = (
"21 595 LINE",
"137 561 LINE",
"138 39 LINE",
"22 6 LINE",
"24 0 LINE",
"353 0 LINE",
"355 6 LINE",
"201 40 LINE",
"201 275 LINE",
"393 268 LINE",
"438 177 LINE",
"441 180 LINE",
"431 287 LINE",
"440 393 LINE",
"437 396 LINE",
"392 309 LINE",
"201 301 LINE",
"201 575 LINE",
"541 566 LINE",
"566 402 LINE",
"571 400 LINE",
"606 612 LINE",
"428 600 LINE",
"23 600 LINE"
);
}
);
width = 626;
}
);
unicode = 0046;
},
{
color = 4;
glyphname = G;
lastChange = "2020-04-09 10:00:24 +0000";
layers = (
{
layerId = "0CCC0E2D-406A-4672-8E6C-854B1DF78A27";
paths = (
{
closed = 1;
nodes = (
"60 112 OFFCURVE",
"244 -20 OFFCURVE",
"505 -20 CURVE SMOOTH",
"628 -20 OFFCURVE",
"742 10 OFFCURVE",
"821 63 CURVE",
"829 4 LINE",
"857 0 LINE",
"867 269 LINE",
"343 269 LINE",
"356 249 LINE",
"797 228 LINE",
"815 103 LINE",
"747 45 OFFCURVE",
"646 25 OFFCURVE",
"549 25 CURVE SMOOTH",
"309 25 OFFCURVE",
"140 149 OFFCURVE",
"140 325 CURVE SMOOTH",
"140 477 OFFCURVE",
"252 580 OFFCURVE",
"481 580 CURVE SMOOTH",
"599 580 OFFCURVE",
"710 557 OFFCURVE",
"779 500 CURVE",
"797 332 LINE",
"804 330 LINE",
"865 511 LINE",
"789 579 OFFCURVE",
"662 625 OFFCURVE",
"524 625 CURVE SMOOTH",
"252 625 OFFCURVE",
"60 490 OFFCURVE",
"60 299 CURVE SMOOTH"
);
}
);
width = 957;
},
{
layerId = "1838EE49-6142-4994-A2D6-8A9E455BC2D6";
paths = (
{
closed = 1;
nodes = (
"40 103 OFFCURVE",
"92 -10 OFFCURVE",
"197 -10 CURVE SMOOTH",
"237.534 -10 OFFCURVE",
"264.519 9.254 OFFCURVE",
"284.579 42.944 CURVE",
"289 -3 LINE",
"311 -6 LINE",
"318 267 LINE",
"153 267 LINE",
"156 256 LINE",
"266 236 LINE",
"281.213 77.916 LINE",
"267.074 41.378 OFFCURVE",
"242.372 25 OFFCURVE",
"209 25 CURVE SMOOTH",
"135 25 OFFCURVE",
"100 130 OFFCURVE",
"100 391 CURVE SMOOTH",
"100 530 OFFCURVE",
"131 585 OFFCURVE",
"197 585 CURVE SMOOTH",
"230 585 OFFCURVE",
"254 566 OFFCURVE",
"271 523 CURVE",
"291 343 LINE",
"295 341 LINE",
"317 551 LINE",
"291 594 OFFCURVE",
"255 615 OFFCURVE",
"209 615 CURVE SMOOTH",
"96 615 OFFCURVE",
"40 522 OFFCURVE",
"40 333 CURVE SMOOTH"
);
}
);
width = 383;
},
{
associatedMasterId = "0CCC0E2D-406A-4672-8E6C-854B1DF78A27";
layerId = "0BFE6188-949A-456E-A6EC-EA65FB64DE6E";
name = "Sep 12 19, 11:21";
paths = (
{
closed = 1;
nodes = (
"60 112 OFFCURVE",
"244 -20 OFFCURVE",
"505 -20 CURVE SMOOTH",
"627.98 -20 OFFCURVE",
"742.41 9.925 OFFCURVE",
"820.62 62.66 CURVE",
"829 4 LINE",
"857 0 LINE",
"867 269 LINE",
"343 269 LINE",
"356 249 LINE",
"797 228 LINE",
"814.876 102.866 LINE",
"747.185 45.265 OFFCURVE",
"646.404 25 OFFCURVE",
"549 25 CURVE SMOOTH",
"309 25 OFFCURVE",
"140 149 OFFCURVE",
"140 325 CURVE SMOOTH",
"140 477 OFFCURVE",
"252 580 OFFCURVE",
"481 580 CURVE SMOOTH",
"599 580 OFFCURVE",
"710 557 OFFCURVE",
"779 500 CURVE",
"797 332 LINE",
"804 330 LINE",
"865 511 LINE",
"789 579 OFFCURVE",
"662 625 OFFCURVE",
"524 625 CURVE SMOOTH",
"252 625 OFFCURVE",
"60 490 OFFCURVE",
"60 299 CURVE SMOOTH"
);
}
);
width = 957;
},
{
layerId = "84B9B914-E755-4DFA-8752-0B6F9D0EEB02";
paths = (
{
closed = 1;
nodes = (
"40 131 OFFCURVE",
"82 -9 OFFCURVE",
"170 -9 CURVE SMOOTH",
"214 -9 OFFCURVE",
"249 14 OFFCURVE",
"282 67 CURVE",
"286 -3 LINE",
"294 -6 LINE",
"313 262 LINE",
"143 261 LINE",
"146 256 LINE",
"272 242 LINE",
"281 85 LINE",
"251 35 OFFCURVE",
"218 11 OFFCURVE",
"182 11 CURVE SMOOTH",
"94 11 OFFCURVE",
"64 137 OFFCURVE",
"64 382 CURVE SMOOTH",
"64 513 OFFCURVE",
"110 598 OFFCURVE",
"181 598 CURVE SMOOTH",
"217 598 OFFCURVE",
"245 574 OFFCURVE",
"261 529 CURVE",
"275 349 LINE",
"279 347 LINE",
"305 551 LINE",
"252 602 OFFCURVE",
"220 614 OFFCURVE",
"188 614 CURVE SMOOTH",
"83 614 OFFCURVE",
"40 534 OFFCURVE",
"40 342 CURVE SMOOTH"
);
}
);
width = 378;
},
{
layerId = "8D80EE76-87DD-4377-B1D9-DA40B71577EF";
paths = (
{
closed = 1;
nodes = (
"60 119 OFFCURVE",
"221 -18 OFFCURVE",
"446 -18 CURVE SMOOTH",
"596 -18 OFFCURVE",
"721 26 OFFCURVE",
"806 96 CURVE",
"818 4 LINE",
"825 0 LINE",
"839 260 LINE",
"325 260 LINE",
"338 249 LINE",
"788 238 LINE",
"804 113 LINE",
"738 53 OFFCURVE",
"609 5 OFFCURVE",
"490 5 CURVE SMOOTH",
"255 5 OFFCURVE",
"89 126 OFFCURVE",
"89 325 CURVE SMOOTH",
"89 472 OFFCURVE",
"251 601 OFFCURVE",
"455 601 CURVE SMOOTH",
"584 601 OFFCURVE",
"699 562 OFFCURVE",
"762 509 CURVE",
"771 341 LINE",
"778 339 LINE",
"830 511 LINE",
"721 580 OFFCURVE",
"612 623 OFFCURVE",
"498 623 CURVE SMOOTH",
"230 623 OFFCURVE",
"60 492 OFFCURVE",
"60 299 CURVE SMOOTH"
);
}
);
width = 929;
},
{
layerId = "D4C2733C-030D-4F32-9813-200DF8941BD6";
paths = (
{
closed = 1;
nodes = (
"49 107 OFFCURVE",
"157 -14 OFFCURVE",
"329 -14 CURVE SMOOTH",
"405 -14 OFFCURVE",
"469 10 OFFCURVE",
"514 52 CURVE",
"520 0 LINE",
"545 -3 LINE",
"553 268 LINE",
"234 268 LINE",
"242 253 LINE",
"494 233 LINE",
"510 89 LINE",
"473 43 OFFCURVE",
"415 25 OFFCURVE",
"355 25 CURVE SMOOTH",
"210 25 OFFCURVE",
"117 138 OFFCURVE",
"117 363 CURVE SMOOTH",
"117 507 OFFCURVE",
"183 583 OFFCURVE",
"319 583 CURVE SMOOTH",
"388 583 OFFCURVE",
"449 562 OFFCURVE",
"489 513 CURVE",
"508 338 LINE",
"513 336 LINE",
"552 534 LINE",
"504 588 OFFCURVE",
"429 619 OFFCURVE",
"344 619 CURVE SMOOTH",
"163 619 OFFCURVE",
"49 508 OFFCURVE",
"49 318 CURVE SMOOTH"
);
}
);
width = 629;
}
);
unicode = 0047;
},
{
color = 4;
glyphname = H;
lastChange = "2020-04-09 10:00:24 +0000";
layers = (
{
layerId = "0CCC0E2D-406A-4672-8E6C-854B1DF78A27";
paths = (
{
closed = 1;
nodes = (
"26 0 LINE",
"397 0 LINE",
"399 4 LINE",
"249 50 LINE",
"249 280 LINE",
"895 280 LINE",
"895 50 LINE",
"745 4 LINE",
"747 0 LINE",
"1118 0 LINE",
"1120 4 LINE",
"970 50 LINE",
"970 555 LINE",
"1120 596 LINE",
"1118 600 LINE",
"747 600 LINE",
"745 596 LINE",
"895 555 LINE",
"895 320 LINE",
"249 320 LINE",
"249 555 LINE",
"399 596 LINE",
"397 600 LINE",
"26 600 LINE",
"24 596 LINE",
"174 555 LINE",
"174 50 LINE",
"24 4 LINE"
);
}
);
width = 1145;
},
{
layerId = "1838EE49-6142-4994-A2D6-8A9E455BC2D6";
paths = (
{
closed = 1;
nodes = (
"2 0 LINE",
"217 0 LINE",
"219 6 LINE",
"145 30 LINE",
"145 290 LINE",
"335 290 LINE",
"335 30 LINE",
"260 6 LINE",
"262 0 LINE",
"478 0 LINE",
"480 6 LINE",
"390 30 LINE",
"390 570 LINE",
"480 594 LINE",
"478 600 LINE",
"263 600 LINE",
"261 594 LINE",
"335 570 LINE",
"335 320 LINE",
"145 320 LINE",
"145 570 LINE",
"220 594 LINE",
"218 600 LINE",
"2 600 LINE",
"0 594 LINE",
"90 570 LINE",
"90 30 LINE",
"0 6 LINE"
);
}
);
width = 480;
},
{
layerId = "84B9B914-E755-4DFA-8752-0B6F9D0EEB02";
paths = (
{
closed = 1;
nodes = (
"2 0 LINE",
"182 0 LINE",
"184 6 LINE",
"110 40 LINE",
"110 294 LINE",
"312 294 LINE",
"312 40 LINE",
"237 6 LINE",
"239 0 LINE",
"420 0 LINE",
"422 6 LINE",
"332 40 LINE",
"332 560 LINE",
"422 594 LINE",
"420 600 LINE",
"240 600 LINE",
"238 594 LINE",
"312 560 LINE",
"312 313 LINE",
"110 313 LINE",
"110 560 LINE",
"185 594 LINE",
"183 600 LINE",
"2 600 LINE",
"0 594 LINE",
"90 560 LINE",
"90 40 LINE",
"0 6 LINE"
);
}
);
width = 422;
},
{
layerId = "8D80EE76-87DD-4377-B1D9-DA40B71577EF";
paths = (
{
closed = 1;
nodes = (
"26 0 LINE",
"346 0 LINE",
"348 7 LINE",
"198 50 LINE",
"198 289 LINE",
"863 289 LINE",
"863 50 LINE",
"713 7 LINE",
"715 0 LINE",
"1035 0 LINE",
"1037 7 LINE",
"887 50 LINE",
"887 555 LINE",
"1037 593 LINE",
"1035 600 LINE",
"715 600 LINE",
"713 593 LINE",
"863 555 LINE",
"863 310 LINE",
"198 310 LINE",
"198 555 LINE",
"348 593 LINE",
"346 600 LINE",
"26 600 LINE",
"24 593 LINE",
"174 555 LINE",
"174 50 LINE",
"24 7 LINE"
);
}
);
width = 1062;
},
{
layerId = "D4C2733C-030D-4F32-9813-200DF8941BD6";
paths = (
{
closed = 1;
nodes = (
"12 0 LINE",
"294 0 LINE",
"296 5 LINE",
"190 39 LINE",
"190 286 LINE",
"575 286 LINE",
"575 39 LINE",
"468 5 LINE",
"470 0 LINE",
"752 0 LINE",
"754 5 LINE",
"639 39 LINE",
"639 564 LINE",
"754 595 LINE",
"752 600 LINE",
"470 600 LINE",
"468 595 LINE",
"575 564 LINE",
"575 320 LINE",
"190 320 LINE",
"190 564 LINE",
"297 595 LINE",
"295 600 LINE",
"12 600 LINE",
"10 595 LINE",
"126 564 LINE",
"126 39 LINE",
"10 5 LINE"
);
}
);
width = 765;
}
);
unicode = 0048;
},
{
color = 4;
glyphname = I;
lastChange = "2020-04-09 10:00:24 +0000";
layers = (
{
layerId = "0CCC0E2D-406A-4672-8E6C-854B1DF78A27";
paths = (
{
closed = 1;
nodes = (
"32 0 LINE",
"408 0 LINE",
"410 6 LINE",
"260 50 LINE",
"260 550 LINE",
"415 594 LINE",
"413 600 LINE",
"37 600 LINE",
"35 594 LINE",
"185 550 LINE",
"185 50 LINE",
"30 6 LINE"
);
}
);
width = 484;
},
{
layerId = "1838EE49-6142-4994-A2D6-8A9E455BC2D6";
paths = (
{
closed = 1;
nodes = (
"42 0 LINE",
"273 0 LINE",
"275 6 LINE",
"185 30 LINE",
"185 570 LINE",
"275 594 LINE",
"273 600 LINE",
"42 600 LINE",
"40 594 LINE",
"130 570 LINE",
"130 30 LINE",
"40 6 LINE"
);
}
);
width = 315;
},
{
layerId = "84B9B914-E755-4DFA-8752-0B6F9D0EEB02";
paths = (
{
closed = 1;
nodes = (
"42 0 LINE",
"238 0 LINE",
"240 6 LINE",
"150 40 LINE",
"150 560 LINE",
"240 594 LINE",
"238 600 LINE",
"42 600 LINE",
"40 594 LINE",
"130 560 LINE",
"130 40 LINE",
"40 6 LINE"
);
}
);
width = 280;
},
{
layerId = "8D80EE76-87DD-4377-B1D9-DA40B71577EF";
paths = (
{
closed = 1;
nodes = (
"32 0 LINE",
"357 0 LINE",
"359 5 LINE",
"209 50 LINE",
"209 555 LINE",
"364 596 LINE",
"362 600 LINE",
"37 600 LINE",
"35 596 LINE",
"185 555 LINE",
"185 50 LINE",
"30 5 LINE"
);
}
);
width = 433;
},
{
layerId = "D4C2733C-030D-4F32-9813-200DF8941BD6";
paths = (
{
closed = 1;
nodes = (
"38 0 LINE",
"331 0 LINE",
"333 6 LINE",
"217 39 LINE",
"217 561 LINE",
"335 594 LINE",
"333 600 LINE",
"40 600 LINE",
"38 594 LINE",
"154 561 LINE",
"154 39 LINE",
"36 6 LINE"
);
}
);
width = 387;
}
);
unicode = 0049;
},
{
color = 4;
glyphname = J;
lastChange = "2020-04-09 10:00:24 +0000";
layers = (
{
layerId = "0CCC0E2D-406A-4672-8E6C-854B1DF78A27";
paths = (
{
closed = 1;
nodes = (
"-55 137 LINE",
"30 77 OFFCURVE",
"179 40 OFFCURVE",
"276 40 CURVE SMOOTH",
"416 40 OFFCURVE",
"457 86 OFFCURVE",
"455 260 CURVE",
"455 550 LINE",
"285 594 LINE",
"287 600 LINE",
"683 600 LINE",
"685 594 LINE",
"530 550 LINE",
"530 260 LINE SMOOTH",
"530 85 OFFCURVE",
"445 -10 OFFCURVE",
"301 -10 CURVE SMOOTH",
"198 -10 OFFCURVE",
"16 51 OFFCURVE",
"-70 117 CURVE"
);
}
);
width = 705;
},
{
layerId = "1838EE49-6142-4994-A2D6-8A9E455BC2D6";
paths = (
{
closed = 1;
nodes = (
"3 121 LINE",
"38 60 OFFCURVE",
"86 30 OFFCURVE",
"140 30 CURVE SMOOTH",
"199 30 OFFCURVE",
"190 81 OFFCURVE",
"189 255 CURVE",
"189 569 LINE",
"69 594 LINE",
"72 600 LINE",
"332 600 LINE",
"334 594 LINE",
"244 570 LINE",
"244 255 LINE SMOOTH",
"244 80 OFFCURVE",
"214 -5 OFFCURVE",
"140 -5 CURVE SMOOTH",
"88 -5 OFFCURVE",
"23 46 OFFCURVE",
"-5 119 CURVE"
);
}
);
width = 354;
},
{
layerId = "84B9B914-E755-4DFA-8752-0B6F9D0EEB02";
paths = (
{
closed = 1;
nodes = (
"2 125 LINE",
"37 64 OFFCURVE",
"74 13 OFFCURVE",
"137 13 CURVE SMOOTH",
"204 13 OFFCURVE",
"202 103 OFFCURVE",
"202 255 CURVE SMOOTH",
"202 560 LINE",
"83 594 LINE",
"85 600 LINE",
"310 600 LINE",
"312 594 LINE",
"222 560 LINE",
"222 255 LINE SMOOTH",
"222 74 OFFCURVE",
"213 -5 OFFCURVE",
"131 -5 CURVE SMOOTH",
"70 -5 OFFCURVE",
"23 50 OFFCURVE",
"-5 123 CURVE"
);
}
);
width = 332;
},
{
layerId = "8D80EE76-87DD-4377-B1D9-DA40B71577EF";
paths = (
{
closed = 1;
nodes = (
"-64 132 LINE",
"21 72 OFFCURVE",
"160 12 OFFCURVE",
"271 12 CURVE SMOOTH",
"423 12 OFFCURVE",
"473 84 OFFCURVE",
"473 260 CURVE",
"473 550 LINE",
"303 594 LINE",
"305 600 LINE",
"651 600 LINE",
"653 594 LINE",
"498 550 LINE",
"498 260 LINE SMOOTH",
"498 76 OFFCURVE",
"443 -10 OFFCURVE",
"287 -10 CURVE SMOOTH",
"169 -10 OFFCURVE",
"16 57 OFFCURVE",
"-70 123 CURVE"
);
}
);
width = 673;
},
{
layerId = "D4C2733C-030D-4F32-9813-200DF8941BD6";
paths = (
{
closed = 1;
nodes = (
"-22 128 LINE",
"35 67 OFFCURVE",
"126 34 OFFCURVE",
"198 34 CURVE SMOOTH",
"292 34 OFFCURVE",
"304 83 OFFCURVE",
"303 257 CURVE",
"303 561 LINE",
"162 594 LINE",
"164 600 LINE",
"482 600 LINE",
"484 594 LINE",
"367 561 LINE",
"367 257 LINE SMOOTH",
"367 82 OFFCURVE",
"313 -7 OFFCURVE",
"209 -7 CURVE SMOOTH",
"135 -7 OFFCURVE",
"20 48 OFFCURVE",
"-33 118 CURVE"
);
}
);
width = 504;
}
);
unicode = 004A;
},
{
color = 4;
glyphname = K;
lastChange = "2020-04-09 10:00:24 +0000";
layers = (
{
layerId = "1838EE49-6142-4994-A2D6-8A9E455BC2D6";
paths = (
{
closed = 1;
nodes = (
"2 0 LINE",
"233 0 LINE",
"235 6 LINE",
"145 30 LINE",
"145 190.394 LINE",
"215.177 316.581 LINE",
"332 30 LINE",
"258 6 LINE",
"259 0 LINE",
"476 0 LINE",
"477 6 LINE",
"387 32 LINE",
"246.081 372.15 LINE",
"355 568 LINE",
"445 594 LINE",
"444 600 LINE",
"246 600 LINE",
"245 594 LINE",
"320 570 LINE",
"145 253.685 LINE",
"145 570 LINE",
"220 594 LINE",
"218 600 LINE",
"2 600 LINE",
"0 594 LINE",
"90 570 LINE",
"90 30 LINE",
"0 6 LINE"
);
}
);
width = 457;
},
{
associatedMasterId = "0CCC0E2D-406A-4672-8E6C-854B1DF78A27";
layerId = "590979A8-FF2F-4509-A2A3-14684D938160";
name = "Extended Mar 31 18, 15:49";
paths = (
{
closed = 1;
nodes = (
"37 0 LINE",
"412 0 LINE",
"414 6 LINE",
"264 50 LINE",
"264 550 LINE",
"419 594 LINE",
"417 600 LINE",
"42 600 LINE",
"40 594 LINE",
"190 550 LINE",
"190 50 LINE",
"35 6 LINE"
);
},
{
closed = 1;
nodes = (
"259 145 LINE",
"817 550 LINE",
"967 594 LINE",
"970 600 LINE",
"589 600 LINE",
"587 594 LINE",
"737 550 LINE",
"190 145 LINE"
);
},
{
closed = 1;
nodes = (
"909 -66 LINE",
"958 -56 LINE",
"523 382 LINE",
"462 310 LINE"
);
}
);
width = 1035;
},
{
layerId = "0CCC0E2D-406A-4672-8E6C-854B1DF78A27";
paths = (
{
closed = 1;
nodes = (
"31 0 LINE",
"407 0 LINE",
"409 6 LINE",
"259 50 LINE",
"259 168.45 LINE",
"461.429 308.119 LINE",
"780 50 LINE",
"630 6 LINE",
"632 0 LINE",
"1023 0 LINE",
"1025 6 LINE",
"894 50 LINE",
"525.133 352.072 LINE",
"812 550 LINE",
"962 594 LINE",
"965 600 LINE",
"591 600 LINE",
"589 594 LINE",
"739 550 LINE",
"259 214.61 LINE",
"259 550 LINE",
"414 594 LINE",
"412 600 LINE",
"36 600 LINE",
"34 594 LINE",
"184 550 LINE",
"184 50 LINE",
"29 6 LINE"
);
}
);
width = 1030;
},
{
associatedMasterId = "FC46D930-83A8-41E8-A9CB-C8AD47DCDD9D";
layerId = "32157E01-D1D7-4E57-A950-BE1247EEB11C";
name = "Extended Mar 31 18, 15:49";
paths = (
{
closed = 1;
nodes = (
"37 0 LINE",
"412 0 LINE",
"414 6 LINE",
"264 50 LINE",
"264 550 LINE",
"419 594 LINE",
"417 600 LINE",
"42 600 LINE",
"40 594 LINE",
"190 550 LINE",
"190 50 LINE",
"35 6 LINE"
);
},
{
closed = 1;
nodes = (
"259 145 LINE",
"817 550 LINE",
"967 594 LINE",
"970 600 LINE",
"589 600 LINE",
"587 594 LINE",
"737 550 LINE",
"190 145 LINE"
);
},
{
closed = 1;
nodes = (
"909 -66 LINE",
"958 -56 LINE",
"523 382 LINE",
"462 310 LINE"
);
}
);
width = 1035;
},
{
layerId = "84B9B914-E755-4DFA-8752-0B6F9D0EEB02";
paths = (
{
closed = 1;
nodes = (
"2 0 LINE",
"198 0 LINE",
"200 6 LINE",
"110 39 LINE",
"110 206 LINE",
"191 341 LINE",
"310 40 LINE",
"234 6 LINE",
"235 0 LINE",
"424 0 LINE",
"425 6 LINE",
"333 40 LINE",
"204 360 LINE",
"325.905 560 LINE",
"417 594 LINE",
"415 600 LINE",
"231 600 LINE",
"229 594 LINE",
"306 560 LINE",
"110 239 LINE",
"110 560 LINE",
"185 594 LINE",
"183 600 LINE",
"2 600 LINE",
"0 594 LINE",
"90 560 LINE",
"90 39 LINE",
"0 6 LINE"
);
}
);
width = 405;
},
{
layerId = "8D80EE76-87DD-4377-B1D9-DA40B71577EF";
paths = (
{
closed = 1;
nodes = (
"31 0 LINE",
"356 0 LINE",
"358 6 LINE",
"208 50 LINE",
"208 183 LINE",
"435 337 LINE",
"787 50 LINE",
"635 6 LINE",
"637 0 LINE",
"954 0 LINE",
"956 6 LINE",
"822 50 LINE",
"456 349 LINE",
"761 550 LINE",
"911 594 LINE",
"914 600 LINE",
"577 600 LINE",
"575 594 LINE",
"725 550 LINE",
"208 208 LINE",
"208 550 LINE",
"363 594 LINE",
"361 600 LINE",
"36 600 LINE",
"34 594 LINE",
"184 550 LINE",
"184 50 LINE",
"29 6 LINE"
);
}
);
width = 961;
},
{
layerId = "D4C2733C-030D-4F32-9813-200DF8941BD6";
paths = (
{
closed = 1;
nodes = (
"14 0 LINE",
"308 0 LINE",
"310 6 LINE",
"194 39 LINE",
"194 181 LINE",
"321 313 LINE",
"524 39 LINE",
"417 6 LINE",
"419 0 LINE",
"710 0 LINE",
"712 6 LINE",
"604 40 LINE",
"366 364 LINE",
"551 560 LINE",
"667 594 LINE",
"667 600 LINE",
"394 600 LINE",
"392 594 LINE",
"500 561 LINE",
"194 237 LINE",
"194 561 LINE",
"303 594 LINE",
"301 600 LINE",
"17 600 LINE",
"15 594 LINE",
"130 561 LINE",
"130 39 LINE",
"12 6 LINE"
);
}
);
width = 703;
}
);
unicode = 004B;
},
{
color = 4;
glyphname = L;
lastChange = "2020-04-09 10:00:24 +0000";
layers = (
{
layerId = "0CCC0E2D-406A-4672-8E6C-854B1DF78A27";
paths = (
{
closed = 1;
nodes = (
"22 0 LINE",
"841 0 LINE",
"821 220 LINE",
"815 218 LINE",
"761 45 LINE",
"245.056 31.056 LINE",
"246 550 LINE",
"396 594 LINE",
"394 600 LINE",
"23 600 LINE",
"21 594 LINE",
"171 550 LINE",
"170 50 LINE",
"20 3 LINE"
);
}
);
width = 901;
},
{
layerId = "1838EE49-6142-4994-A2D6-8A9E455BC2D6";
paths = (
{
closed = 1;
nodes = (
"32 0 LINE",
"387 0 LINE",
"375 210 LINE",
"371 208 LINE",
"337 30 LINE",
"175 21.099 LINE",
"175 570 LINE",
"265 594 LINE",
"263 600 LINE",
"32 600 LINE",
"30 594 LINE",
"120 570 LINE",
"120 30 LINE",
"30 6 LINE"
);
}
);
width = 437;
},
{
layerId = "84B9B914-E755-4DFA-8752-0B6F9D0EEB02";
paths = (
{
closed = 1;
nodes = (
"32 0 LINE",
"353 0 LINE",
"342 193 LINE",
"336 191 LINE",
"308 20 LINE",
"140 15 LINE",
"140 560 LINE",
"229 594 LINE",
"227 600 LINE",
"32 600 LINE",
"30 594 LINE",
"120 560 LINE",
"120 40 LINE",
"30 6 LINE"
);
}
);
width = 373;
},
{
layerId = "8D80EE76-87DD-4377-B1D9-DA40B71577EF";
paths = (
{
closed = 1;
nodes = (
"22 0 LINE",
"790 0 LINE",
"770 192 LINE",
"764 190 LINE",
"719 22 LINE",
"194 13 LINE",
"195 555 LINE",
"345 594 LINE",
"343 600 LINE",
"23 600 LINE",
"21 594 LINE",
"171 555 LINE",
"170 50 LINE",
"20 3 LINE"
);
}
);
width = 850;
},
{
layerId = "D4C2733C-030D-4F32-9813-200DF8941BD6";
paths = (
{
closed = 1;
nodes = (
"28 0 LINE",
"582 0 LINE",
"566 214 LINE",
"561 212 LINE",
"519 36 LINE",
"205 25 LINE",
"205 561 LINE",
"321 594 LINE",
"319 600 LINE",
"28 600 LINE",
"26 594 LINE",
"142 561 LINE",
"141 39 LINE",
"26 5 LINE"
);
}
);
width = 636;
}
);
unicode = 004C;
},
{
color = 4;
glyphname = M;
lastChange = "2020-04-09 10:00:24 +0000";
layers = (
{
layerId = "0CCC0E2D-406A-4672-8E6C-854B1DF78A27";
paths = (
{
closed = 1;
nodes = (
"2 0 LINE",
"348 0 LINE",
"350 6 LINE",
"193 50 LINE",
"273 497 LINE",
"593 0 LINE",
"643 0 LINE",
"956 541 LINE",
"1045 50 LINE",
"895 6 LINE",
"897 0 LINE",
"1268 0 LINE",
"1270 6 LINE",
"1120 50 LINE",
"1028 552 LINE",
"1148 594 LINE",
"1146 600 LINE",
"945 600 LINE",
"636 74 LINE",
"291 600 LINE",
"90 600 LINE",
"89 594 LINE",
"239 549 LINE",
"150 50 LINE",
"0 6 LINE"
);
}
);
width = 1270;
},
{
layerId = "1838EE49-6142-4994-A2D6-8A9E455BC2D6";
paths = (
{
closed = 1;
nodes = (
"-6 0 LINE",
"194 0 LINE",
"196 6 LINE",
"121 30 LINE",
"161 487 LINE",
"290 0 LINE",
"325 0 LINE",
"464 477 LINE",
"499 30 LINE",
"424 6 LINE",
"426 0 LINE",
"642 0 LINE",
"644 6 LINE",
"554 30 LINE",
"505 565 LINE",
"595 597 LINE",
"591 600 LINE",
"464 600 LINE",
"315 86 LINE",
"171 600 LINE",
"45 600 LINE",
"41 597 LINE",
"131 555 LINE",
"81 30 LINE",
"-10 6 LINE"
);
}
);
width = 634;
},
{
layerId = "84B9B914-E755-4DFA-8752-0B6F9D0EEB02";
paths = (
{
closed = 1;
nodes = (
"-6 0 LINE",
"174 0 LINE",
"176 6 LINE",
"101 40 LINE",
"141 524 LINE",
"291 0 LINE",
"305 0 LINE",
"470 524 LINE",
"499 40 LINE",
"424 6 LINE",
"426 0 LINE",
"610 0 LINE",
"612 6 LINE",
"522 40 LINE",
"488 560 LINE",
"588 594 LINE",
"586 600 LINE",
"476 600 LINE",
"299 57 LINE",
"139 600 LINE",
"37 600 LINE",
"35 594 LINE",
"126 560 LINE",
"81 40 LINE",
"-10 6 LINE"
);
}
);
width = 602;
},
{
layerId = "8D80EE76-87DD-4377-B1D9-DA40B71577EF";
paths = (
{
closed = 1;
nodes = (
"2 0 LINE",
"330 0 LINE",
"332 6 LINE",
"175 59 LINE",
"255 555 LINE",
"609 0 LINE",
"625 0 LINE",
"978 559 LINE",
"1059 59 LINE",
"909 6 LINE",
"911 0 LINE",
"1234 0 LINE",
"1236 6 LINE",
"1086 59 LINE",
"1005 550 LINE",
"1147 594 LINE",
"1145 600 LINE",
"978 600 LINE",
"618 29 LINE",
"255 600 LINE",
"82 600 LINE",
"81 594 LINE",
"231 550 LINE",
"150 59 LINE",
"0 6 LINE"
);
}
);
width = 1236;
},
{
layerId = "D4C2733C-030D-4F32-9813-200DF8941BD6";
paths = (
{
closed = 1;
nodes = (
"-3 0 LINE",
"260 0 LINE",
"262 6 LINE",
"152 39 LINE",
"209 491 LINE",
"420 0 LINE",
"461 0 LINE",
"675 504 LINE",
"733 39 LINE",
"626 6 LINE",
"628 0 LINE",
"910 0 LINE",
"912 6 LINE",
"797 39 LINE",
"729 559 LINE",
"832 596 LINE",
"829 600 LINE",
"670 600 LINE",
"453 81 LINE",
"222 600 LINE",
"64 600 LINE",
"62 596 LINE",
"177 552 LINE",
"111 39 LINE",
"-6 6 LINE"
);
}
);
width = 907;
}
);
unicode = 004D;
},
{
color = 4;
glyphname = N;
lastChange = "2020-04-09 10:00:24 +0000";
layers = (
{
layerId = "0CCC0E2D-406A-4672-8E6C-854B1DF78A27";
paths = (
{
closed = 1;
nodes = (
"875 0 LINE",
"875 550 LINE",
"1026 594 LINE",
"1024 600 LINE",
"683 600 LINE",
"681 594 LINE",
"830 550 LINE",
"830 95.474 LINE",
"190 600 LINE",
"-3 600 LINE",
"-5 596 LINE",
"145 550 LINE",
"145 50 LINE",
"-5 6 LINE",
"-5 0 LINE",
"341 0 LINE",
"341 6 LINE",
"190 50 LINE",
"190 505 LINE",
"841 -9 LINE"
);
}
);
width = 1021;
},
{
layerId = "1838EE49-6142-4994-A2D6-8A9E455BC2D6";
paths = (
{
closed = 1;
nodes = (
"389 0 LINE",
"389 570 LINE",
"479 594 LINE",
"476 600 LINE",
"263 600 LINE",
"260 594 LINE",
"349 570 LINE",
"349 100.292 LINE",
"131 600 LINE",
"5 600 LINE",
"1 596 LINE",
"91 559 LINE",
"91 30 LINE",
"0 6 LINE",
"4 0 LINE",
"218 0 LINE",
"221 6 LINE",
"131 30 LINE",
"131 500 LINE",
"356 -15 LINE"
);
}
);
width = 489;
},
{
layerId = "84B9B914-E755-4DFA-8752-0B6F9D0EEB02";
paths = (
{
closed = 1;
nodes = (
"354 0 LINE",
"354 560 LINE",
"444 594 LINE",
"442 600 LINE",
"248 600 LINE",
"246 594 LINE",
"334 560 LINE",
"334 57 LINE",
"104 600 LINE",
"3 600 LINE",
"1 594 LINE",
"90 555 LINE",
"90 40 LINE",
"0 6 LINE",
"2 0 LINE",
"198 0 LINE",
"200 6 LINE",
"110 40 LINE",
"110 538 LINE",
"337 -6 LINE"
);
}
);
width = 454;
},
{
layerId = "8D80EE76-87DD-4377-B1D9-DA40B71577EF";
paths = (
{
closed = 1;
nodes = (
"847 0 LINE",
"847 550 LINE",
"998 595 LINE",
"996 600 LINE",
"678 600 LINE",
"676 595 LINE",
"825 550 LINE",
"825 27 LINE",
"167 600 LINE",
"-3 600 LINE",
"-5 596 LINE",
"145 550 LINE",
"145 50 LINE",
"-5 5 LINE",
"-5 0 LINE",
"318 0 LINE",
"318 5 LINE",
"167 50 LINE",
"167 565 LINE",
"827 -9 LINE"
);
}
);
width = 993;
},
{
layerId = "D4C2733C-030D-4F32-9813-200DF8941BD6";
paths = (
{
closed = 1;
nodes = (
"597 0 LINE",
"597 561 LINE",
"713 594 LINE",
"711 600 LINE",
"443 600 LINE",
"440 594 LINE",
"555 561 LINE",
"555 98 LINE",
"156 600 LINE",
"2 600 LINE",
"-2 596 LINE",
"114 555 LINE",
"114 39 LINE",
"-2 6 LINE",
"0 0 LINE",
"271 0 LINE",
"272 6 LINE",
"156 39 LINE",
"156 502 LINE",
"564 -12 LINE"
);
}
);
width = 717;
}
);
unicode = 004E;
},
{
color = 4;
glyphname = O;
lastChange = "2020-04-09 10:00:24 +0000";
layers = (
{
layerId = "0CCC0E2D-406A-4672-8E6C-854B1DF78A27";
paths = (
{
closed = 1;
nodes = (
"744 -20 OFFCURVE",
"928 115 OFFCURVE",
"928 307 CURVE SMOOTH",
"928 494 OFFCURVE",
"752 625 OFFCURVE",
"504 625 CURVE SMOOTH",
"232 625 OFFCURVE",
"40 490 OFFCURVE",
"40 299 CURVE SMOOTH",
"40 112 OFFCURVE",
"224 -20 OFFCURVE",
"485 -20 CURVE SMOOTH"
);
},
{
closed = 1;
nodes = (
"289 25 OFFCURVE",
"120 145 OFFCURVE",
"120 325 CURVE SMOOTH",
"120 474 OFFCURVE",
"244 580 OFFCURVE",
"461 580 CURVE SMOOTH",
"689 580 OFFCURVE",
"848 457 OFFCURVE",
"848 282 CURVE SMOOTH",
"848 131 OFFCURVE",
"736 25 OFFCURVE",
"529 25 CURVE SMOOTH"
);
}
);
width = 968;
},
{
layerId = "1838EE49-6142-4994-A2D6-8A9E455BC2D6";
paths = (
{
closed = 1;
nodes = (
"309 -10 OFFCURVE",
"376 85 OFFCURVE",
"376 278 CURVE SMOOTH",
"376 503 OFFCURVE",
"314 615 OFFCURVE",
"209 615 CURVE SMOOTH",
"96 615 OFFCURVE",
"30 522 OFFCURVE",
"30 333 CURVE SMOOTH",
"30 103 OFFCURVE",
"92 -10 OFFCURVE",
"197 -10 CURVE SMOOTH"
);
},
{
closed = 1;
nodes = (
"135 25 OFFCURVE",
"90 130 OFFCURVE",
"90 391 CURVE SMOOTH",
"90 530 OFFCURVE",
"131 585 OFFCURVE",
"197 585 CURVE SMOOTH",
"271 585 OFFCURVE",
"316 488 OFFCURVE",
"316 245 CURVE SMOOTH",
"316 88 OFFCURVE",
"275 25 OFFCURVE",
"209 25 CURVE SMOOTH"
);
}
);
width = 406;
},
{
layerId = "84B9B914-E755-4DFA-8752-0B6F9D0EEB02";
paths = (
{
closed = 1;
nodes = (
"280 -9 OFFCURVE",
"344 86 OFFCURVE",
"344 327 CURVE SMOOTH",
"344 524 OFFCURVE",
"283 611 OFFCURVE",
"187 611 CURVE SMOOTH",
"106 611 OFFCURVE",
"30 519 OFFCURVE",
"30 296 CURVE SMOOTH",
"30 101 OFFCURVE",
"92 -9 OFFCURVE",
"187 -9 CURVE SMOOTH"
);
},
{
closed = 1;
nodes = (
"112 12 OFFCURVE",
"54 109 OFFCURVE",
"54 354 CURVE SMOOTH",
"54 510 OFFCURVE",
"127 595 OFFCURVE",
"187 595 CURVE SMOOTH",
"265 595 OFFCURVE",
"320 499 OFFCURVE",
"320 294 CURVE SMOOTH",
"319 87 OFFCURVE",
"268 12 OFFCURVE",
"187 12 CURVE SMOOTH"
);
}
);
width = 374;
},
{
layerId = "8D80EE76-87DD-4377-B1D9-DA40B71577EF";
paths = (
{
closed = 1;
nodes = (
"704 -18 OFFCURVE",
"877 117 OFFCURVE",
"877 307 CURVE SMOOTH",
"877 492 OFFCURVE",
"712 623 OFFCURVE",
"478 623 CURVE SMOOTH",
"222 623 OFFCURVE",
"40 485 OFFCURVE",
"40 290 CURVE SMOOTH",
"40 109 OFFCURVE",
"214 -18 OFFCURVE",
"459 -18 CURVE SMOOTH"
);
},
{
closed = 1;
nodes = (
"261 5 OFFCURVE",
"69 127 OFFCURVE",
"69 316 CURVE SMOOTH",
"69 472 OFFCURVE",
"238 601 OFFCURVE",
"444 601 CURVE SMOOTH",
"665 601 OFFCURVE",
"848 475 OFFCURVE",
"848 282 CURVE SMOOTH",
"847 130 OFFCURVE",
"689 5 OFFCURVE",
"494 5 CURVE SMOOTH"
);
}
);
width = 917;
},
{
layerId = "D4C2733C-030D-4F32-9813-200DF8941BD6";
paths = (
{
closed = 1;
nodes = (
"495 -14 OFFCURVE",
"613 98 OFFCURVE",
"613 290 CURVE SMOOTH",
"613 499 OFFCURVE",
"502 619 OFFCURVE",
"335 619 CURVE SMOOTH",
"154 619 OFFCURVE",
"34 508 OFFCURVE",
"34 318 CURVE SMOOTH",
"34 107 OFFCURVE",
"149 -14 OFFCURVE",
"320 -14 CURVE SMOOTH"
);
},
{
closed = 1;
nodes = (
"201 25 OFFCURVE",
"103 136 OFFCURVE",
"103 363 CURVE SMOOTH",
"103 506 OFFCURVE",
"179 583 OFFCURVE",
"310 583 CURVE SMOOTH",
"450 583 OFFCURVE",
"544 475 OFFCURVE",
"544 261 CURVE SMOOTH",
"544 106 OFFCURVE",
"473 25 OFFCURVE",
"346 25 CURVE SMOOTH"
);
}
);
width = 647;
}
);
unicode = 004F;
},
{
color = 3;
glyphname = Oslash;
lastChange = "2020-04-09 10:00:24 +0000";
layers = (
{
layerId = "0CCC0E2D-406A-4672-8E6C-854B1DF78A27";
paths = (
{
closed = 1;
nodes = (
"744 -20 OFFCURVE",
"928 115 OFFCURVE",
"928 307 CURVE SMOOTH",
"928 493 OFFCURVE",
"752 625 OFFCURVE",
"504 625 CURVE SMOOTH",
"232 625 OFFCURVE",
"40 490 OFFCURVE",
"40 299 CURVE SMOOTH",
"40 112 OFFCURVE",
"224 -20 OFFCURVE",
"485 -20 CURVE SMOOTH"
);
},
{
closed = 1;
nodes = (
"289 25 OFFCURVE",
"120 145 OFFCURVE",
"120 325 CURVE SMOOTH",
"120 474 OFFCURVE",
"261 580 OFFCURVE",
"461 580 CURVE SMOOTH",
"689 580 OFFCURVE",
"848 457 OFFCURVE",
"848 282 CURVE SMOOTH",
"848 131 OFFCURVE",
"716 25 OFFCURVE",
"529 25 CURVE SMOOTH"
);
},
{
closed = 1;
nodes = (
"233 -62 LINE",
"278 -62 LINE",
"748 669 LINE",
"703 669 LINE"
);
}
);
width = 968;
},
{
layerId = "1838EE49-6142-4994-A2D6-8A9E455BC2D6";
paths = (
{
closed = 1;
nodes = (
"299 -10 OFFCURVE",
"356 85 OFFCURVE",
"356 278 CURVE SMOOTH",
"356 503 OFFCURVE",
"304 615 OFFCURVE",
"199 615 CURVE SMOOTH",
"86 615 OFFCURVE",
"30 522 OFFCURVE",
"30 333 CURVE SMOOTH",
"30 103 OFFCURVE",
"82 -10 OFFCURVE",
"187 -10 CURVE SMOOTH"
);
},
{
closed = 1;
nodes = (
"125 25 OFFCURVE",
"90 130 OFFCURVE",
"90 391 CURVE SMOOTH",
"90 530 OFFCURVE",
"121 585 OFFCURVE",
"187 585 CURVE SMOOTH",
"261 585 OFFCURVE",
"296 488 OFFCURVE",
"296 245 CURVE SMOOTH",
"296 88 OFFCURVE",
"265 25 OFFCURVE",
"199 25 CURVE SMOOTH"
);
},
{
closed = 1;
nodes = (
"98 -62 LINE",
"128 -62 LINE",
"303 669 LINE",
"273 669 LINE"
);
}
);
width = 386;
},
{
layerId = "84B9B914-E755-4DFA-8752-0B6F9D0EEB02";
paths = (
{
closed = 1;
nodes = (
"290 -9 OFFCURVE",
"344 107 OFFCURVE",
"344 327 CURVE SMOOTH",
"344 512 OFFCURVE",
"289 611 OFFCURVE",
"187 611 CURVE SMOOTH",
"91 611 OFFCURVE",
"30 489 OFFCURVE",
"30 296 CURVE SMOOTH",
"30 106 OFFCURVE",
"89 -9 OFFCURVE",
"187 -9 CURVE SMOOTH"
);
},
{
closed = 1;
nodes = (
"102 12 OFFCURVE",
"54 135 OFFCURVE",
"54 354 CURVE SMOOTH",
"54 486 OFFCURVE",
"114 595 OFFCURVE",
"187 595 CURVE SMOOTH",
"271 595 OFFCURVE",
"320 485 OFFCURVE",
"320 294 CURVE SMOOTH",
"319 104 OFFCURVE",
"276 12 OFFCURVE",
"187 12 CURVE SMOOTH"
);
},
{
closed = 1;
nodes = (
"89 -62 LINE",
"110 -62 LINE",
"285 669 LINE",
"264 669 LINE"
);
}
);
width = 374;
},
{
layerId = "8D80EE76-87DD-4377-B1D9-DA40B71577EF";
paths = (
{
closed = 1;
nodes = (
"704 -18 OFFCURVE",
"877 117 OFFCURVE",
"877 307 CURVE SMOOTH",
"877 492 OFFCURVE",
"712 623 OFFCURVE",
"478 623 CURVE SMOOTH",
"222 623 OFFCURVE",
"40 485 OFFCURVE",
"40 290 CURVE SMOOTH",
"40 109 OFFCURVE",
"214 -18 OFFCURVE",
"459 -18 CURVE SMOOTH"
);
},
{
closed = 1;
nodes = (
"261 5 OFFCURVE",
"69 127 OFFCURVE",
"69 316 CURVE SMOOTH",
"69 472 OFFCURVE",
"239 601 OFFCURVE",
"444 601 CURVE SMOOTH",
"665 601 OFFCURVE",
"848 475 OFFCURVE",
"848 282 CURVE SMOOTH",
"847 130 OFFCURVE",
"687 5 OFFCURVE",
"494 5 CURVE SMOOTH"
);
},
{
closed = 1;
nodes = (
"233 -62 LINE",
"260 -62 LINE",
"730 669 LINE",
"703 669 LINE"
);
}
);
width = 917;
},
{
layerId = "D4C2733C-030D-4F32-9813-200DF8941BD6";
paths = (
{
closed = 1;
nodes = (
"490 -14 OFFCURVE",
"601 98 OFFCURVE",
"601 290 CURVE SMOOTH",
"601 499 OFFCURVE",
"496 619 OFFCURVE",
"330 619 CURVE SMOOTH",
"149 619 OFFCURVE",
"34 508 OFFCURVE",
"34 318 CURVE SMOOTH",
"34 107 OFFCURVE",
"143 -14 OFFCURVE",
"315 -14 CURVE SMOOTH"
);
},
{
closed = 1;
nodes = (
"195 25 OFFCURVE",
"103 136 OFFCURVE",
"103 363 CURVE SMOOTH",
"103 506 OFFCURVE",
"181 583 OFFCURVE",
"304 583 CURVE SMOOTH",
"444 583 OFFCURVE",
"533 475 OFFCURVE",
"533 261 CURVE SMOOTH",
"533 106 OFFCURVE",
"458 25 OFFCURVE",
"340 25 CURVE SMOOTH"
);
},
{
closed = 1;
nodes = (
"156 -62 LINE",
"192 -62 LINE",
"494 669 LINE",
"457 669 LINE"
);
}
);
width = 635;
}
);
leftMetricsKey = O;
rightMetricsKey = O;
unicode = 00D8;
},
{
color = 4;
glyphname = OE;
lastChange = "2020-04-09 10:00:24 +0000";
layers = (
{
layerId = "0CCC0E2D-406A-4672-8E6C-854B1DF78A27";
paths = (
{
closed = 1;
nodes = (
"120 474 OFFCURVE",
"261 570 OFFCURVE",
"461 570 CURVE SMOOTH",
"545.118 570 OFFCURVE",
"619.044 554.319 OFFCURVE",
"680 526.43 CURVE",
"680 51.588 LINE",
"635.92 34.486 OFFCURVE",
"585.379 25 OFFCURVE",
"529 25 CURVE SMOOTH",
"289 25 OFFCURVE",
"120 145 OFFCURVE",
"120 325 CURVE SMOOTH"
);
},
{
closed = 1;
nodes = (
"40 112 OFFCURVE",
"224 -20 OFFCURVE",
"485 -20 CURVE SMOOTH",
"544 -20 OFFCURVE",
"600 -13 OFFCURVE",
"650 0 CURVE",
"1341 0 LINE",
"1321 220 LINE",
"1315 218 LINE",
"1261 45 LINE",
"755 31 LINE",
"755 278 LINE",
"1040 270 LINE",
"1105 150 LINE",
"1111 153 LINE",
"1094 294 LINE",
"1109 436 LINE",
"1103 439 LINE",
"1040 319 LINE",
"756 310 LINE",
"756 569 LINE",
"1280 561 LINE",
"1305 402 LINE",
"1312 400 LINE",
"1361 615 LINE",
"1062 600 LINE",
"647 600 LINE",
"603 610 OFFCURVE",
"555 615 OFFCURVE",
"504 615 CURVE SMOOTH",
"232 615 OFFCURVE",
"40 490 OFFCURVE",
"40 299 CURVE SMOOTH"
);
}
);
width = 1421;
},
{
layerId = "1838EE49-6142-4994-A2D6-8A9E455BC2D6";
paths = (
{
closed = 1;
nodes = (
"90 530 OFFCURVE",
"121 580 OFFCURVE",
"187 580 CURVE SMOOTH",
"215 580 OFFCURVE",
"238 561 OFFCURVE",
"255 530 CURVE",
"255 55 LINE",
"240 39 OFFCURVE",
"222 25 OFFCURVE",
"199 25 CURVE SMOOTH",
"125 25 OFFCURVE",
"90 130 OFFCURVE",
"90 391 CURVE SMOOTH"
);
},
{
closed = 1;
nodes = (
"30 103 OFFCURVE",
"82 -10 OFFCURVE",
"187 -10 CURVE SMOOTH",
"202 -10 OFFCURVE",
"217 -6 OFFCURVE",
"230 0 CURVE",
"512 0 LINE",
"497 210 LINE",
"493 208 LINE",
"462 30 LINE",
"310 21 LINE",
"310 284 LINE",
"416 277 LINE",
"446 208 LINE",
"447 210 LINE",
"442 293 LINE",
"448 372 LINE",
"446 374 LINE",
"415 312 LINE",
"310 304 LINE",
"310 579 LINE",
"462 570 LINE",
"486 402 LINE",
"490 400 LINE",
"514 610 LINE",
"427 600 LINE",
"238 600 LINE",
"226 606 OFFCURVE",
"213 610 OFFCURVE",
"199 610 CURVE SMOOTH",
"86 610 OFFCURVE",
"30 522 OFFCURVE",
"30 333 CURVE SMOOTH"
);
}
);
width = 559;
},
{
layerId = "84B9B914-E755-4DFA-8752-0B6F9D0EEB02";
paths = (
{
closed = 1;
nodes = (
"54 529 OFFCURVE",
"117 598 OFFCURVE",
"177 598 CURVE SMOOTH",
"210 598 OFFCURVE",
"238 580 OFFCURVE",
"258 543 CURVE",
"258 62 LINE",
"237 27 OFFCURVE",
"209 12 OFFCURVE",
"177 12 CURVE SMOOTH",
"102 12 OFFCURVE",
"54 109 OFFCURVE",
"54 354 CURVE SMOOTH"
);
},
{
closed = 1;
nodes = (
"30 101 OFFCURVE",
"82 -9 OFFCURVE",
"177 -9 CURVE SMOOTH",
"195 -9 OFFCURVE",
"212 -6 OFFCURVE",
"226 0 CURVE",
"509 0 LINE",
"494 193 LINE",
"490 191 LINE",
"465 15 LINE",
"278 10 LINE",
"278 286 LINE",
"389 282 LINE",
"419 213 LINE",
"420 215 LINE",
"412 292 LINE",
"421 366 LINE",
"419 368 LINE",
"388 300 LINE",
"278 296 LINE",
"278 588 LINE",
"459 582 LINE",
"477 415 LINE",
"481 413 LINE",
"499 610 LINE",
"418 600 LINE",
"235 600 LINE",
"218 609 OFFCURVE",
"199 614 OFFCURVE",
"177 614 CURVE SMOOTH",
"96 614 OFFCURVE",
"30 519 OFFCURVE",
"30 296 CURVE SMOOTH"
);
}
);
width = 554;
},
{
layerId = "8D80EE76-87DD-4377-B1D9-DA40B71577EF";
paths = (
{
closed = 1;
nodes = (
"69 472 OFFCURVE",
"239 600 OFFCURVE",
"444 600 CURVE SMOOTH",
"534 600 OFFCURVE",
"611 589 OFFCURVE",
"680 557 CURVE",
"680 41 LINE",
"606 16 OFFCURVE",
"556 5 OFFCURVE",
"494 5 CURVE SMOOTH",
"261 5 OFFCURVE",
"69 127 OFFCURVE",
"69 316 CURVE SMOOTH"
);
},
{
closed = 1;
nodes = (
"40 109 OFFCURVE",
"214 -18 OFFCURVE",
"459 -18 CURVE SMOOTH",
"512 -18 OFFCURVE",
"562 -12 OFFCURVE",
"608 0 CURVE",
"1336 0 LINE",
"1316 192 LINE",
"1310 190 LINE",
"1266 22 LINE",
"704 13 LINE",
"705 281 LINE",
"998 278 LINE",
"1063 158 LINE",
"1069 161 LINE",
"1047 293 LINE",
"1067 426 LINE",
"1061 429 LINE",
"998 301 LINE",
"705 298 LINE",
"705 587 LINE",
"1275 580 LINE",
"1291 423 LINE",
"1298 421 LINE",
"1338 615 LINE",
"1048 600 LINE",
"637 600 LINE",
"589 615 OFFCURVE",
"536 622 OFFCURVE",
"478 622 CURVE SMOOTH",
"222 622 OFFCURVE",
"40 485 OFFCURVE",
"40 290 CURVE SMOOTH"
);
}
);
width = 1398;
},
{
layerId = "D4C2733C-030D-4F32-9813-200DF8941BD6";
paths = (
{
closed = 1;
nodes = (
"103 506 OFFCURVE",
"181 576 OFFCURVE",
"304 576 CURVE SMOOTH",
"356 576 OFFCURVE",
"401 558 OFFCURVE",
"437 528 CURVE",
"437 54 LINE",
"410 37 OFFCURVE",
"378 25 OFFCURVE",
"340 25 CURVE SMOOTH",
"195 25 OFFCURVE",
"103 136 OFFCURVE",
"103 363 CURVE SMOOTH"
);
},
{
closed = 1;
nodes = (
"34 107 OFFCURVE",
"143 -14 OFFCURVE",
"315 -14 CURVE SMOOTH",
"349 -14 OFFCURVE",
"381 -9 OFFCURVE",
"410 0 CURVE",
"867 0 LINE",
"850 214 LINE",
"845 212 LINE",
"804 36 LINE",
"501 25 LINE",
"501 281 LINE",
"683 274 LINE",
"728 183 LINE",
"732 186 LINE",
"721 293 LINE",
"731 399 LINE",
"728 402 LINE",
"683 315 LINE",
"501 307 LINE",
"501 575 LINE",
"813 566 LINE",
"837 402 LINE",
"842 400 LINE",
"877 612 LINE",
"699 600 LINE",
"413 600 LINE",
"388 608 OFFCURVE",
"360 612 OFFCURVE",
"330 612 CURVE SMOOTH",
"149 612 OFFCURVE",
"34 508 OFFCURVE",
"34 318 CURVE SMOOTH"
);
}
);
width = 928;
}
);
leftMetricsKey = O;
rightMetricsKey = E;
unicode = 0152;
},
{
color = 4;
glyphname = P;
lastChange = "2020-04-09 10:00:24 +0000";
layers = (
{
layerId = "0CCC0E2D-406A-4672-8E6C-854B1DF78A27";
paths = (
{
closed = 1;
nodes = (
"2 0 LINE",
"403 0 LINE",
"405 4 LINE",
"225 52 LINE",
"224.598 252.091 LINE",
"520 253 LINE SMOOTH",
"712 254 OFFCURVE",
"826 305 OFFCURVE",
"826 430 CURVE SMOOTH",
"826 551 OFFCURVE",
"712 600 OFFCURVE",
"520 600 CURVE",
"2 600 LINE",
"0 597 LINE",
"150 550 LINE",
"150 50 LINE",
"0 3 LINE"
);
},
{
closed = 1;
nodes = (
"224 560 LINE",
"490 560 LINE",
"631 560 OFFCURVE",
"746 538 OFFCURVE",
"746 416 CURVE SMOOTH",
"746 319 OFFCURVE",
"652 287 OFFCURVE",
"510 290 CURVE SMOOTH",
"225 297 LINE"
);
}
);
width = 866;
},
{
layerId = "1838EE49-6142-4994-A2D6-8A9E455BC2D6";
paths = (
{
closed = 1;
nodes = (
"12 0 LINE",
"273 0 LINE",
"275 6 LINE",
"155 32 LINE",
"155 263 LINE",
"213 263 LINE SMOOTH",
"318 263 OFFCURVE",
"392 340 OFFCURVE",
"392 441 CURVE SMOOTH",
"392 537 OFFCURVE",
"330 600 OFFCURVE",
"225 600 CURVE SMOOTH",
"12 600 LINE",
"10 594 LINE",
"100 570 LINE",
"100 30 LINE",
"10 6 LINE"
);
},
{
closed = 1;
nodes = (
"155 570 LINE",
"213 570 LINE SMOOTH",
"288 572 OFFCURVE",
"332 515 OFFCURVE",
"332 427 CURVE SMOOTH",
"332 336 OFFCURVE",
"301 286 OFFCURVE",
"225 286 CURVE",
"155 295 LINE"
);
}
);
width = 417;
},
{
layerId = "84B9B914-E755-4DFA-8752-0B6F9D0EEB02";
paths = (
{
closed = 1;
nodes = (
"12 0 LINE",
"238 0 LINE",
"240 6 LINE",
"120 40 LINE",
"120 269 LINE",
"186 269 LINE",
"302 269 OFFCURVE",
"348 347 OFFCURVE",
"348 445 CURVE",
"348 529 OFFCURVE",
"291 600 OFFCURVE",
"198 600 CURVE",
"12 600 LINE",
"10 594 LINE",
"100 560 LINE",
"100 40 LINE",
"10 6 LINE"
);
},
{
closed = 1;
nodes = (
"120 570 LINE",
"186 585 LINE",
"293 587 OFFCURVE",
"325 510 OFFCURVE",
"325 431 CURVE",
"325 347 OFFCURVE",
"283 284 OFFCURVE",
"188 284 CURVE",
"120 287 LINE"
);
}
);
width = 373;
},
{
layerId = "8D80EE76-87DD-4377-B1D9-DA40B71577EF";
paths = (
{
closed = 1;
nodes = (
"2 0 LINE",
"352 0 LINE",
"354 4 LINE",
"174 50 LINE",
"174 262 LINE",
"483 262 LINE SMOOTH",
"674 263 OFFCURVE",
"761 316 OFFCURVE",
"761 436 CURVE SMOOTH",
"761 538 OFFCURVE",
"655 600 OFFCURVE",
"483 600 CURVE",
"2 600 LINE",
"0 597 LINE",
"150 550 LINE",
"150 50 LINE",
"0 3 LINE"
);
},
{
closed = 1;
nodes = (
"174 569 LINE",
"453 578 LINE",
"644 578 OFFCURVE",
"737 531 OFFCURVE",
"737 422 CURVE SMOOTH",
"737 327 OFFCURVE",
"650 282 OFFCURVE",
"473 283 CURVE SMOOTH",
"174 288 LINE"
);
}
);
width = 801;
},
{
layerId = "D4C2733C-030D-4F32-9813-200DF8941BD6";
paths = (
{
closed = 1;
nodes = (
"8 0 LINE",
"329 0 LINE",
"331 5 LINE",
"185 41 LINE",
"185 258 LINE",
"345 259 LINE SMOOTH",
"487 259 OFFCURVE",
"578 325 OFFCURVE",
"578 436 CURVE SMOOTH",
"578 543 OFFCURVE",
"494 600 OFFCURVE",
"351 600 CURVE",
"8 600 LINE",
"6 595 LINE",
"121 561 LINE",
"121 39 LINE",
"6 5 LINE"
);
},
{
closed = 1;
nodes = (
"185 566 LINE",
"332 566 LINE",
"435 567 OFFCURVE",
"509 525 OFFCURVE",
"509 422 CURVE SMOOTH",
"509 329 OFFCURVE",
"451 286 OFFCURVE",
"347 288 CURVE SMOOTH",
"185 296 LINE"
);
}
);
width = 609;
}
);
unicode = 0050;
},
{
color = 4;
glyphname = Thorn;
lastChange = "2020-04-09 10:03:18 +0000";
layers = (
{
layerId = "0CCC0E2D-406A-4672-8E6C-854B1DF78A27";
paths = (
{
closed = 1;
nodes = (
"2 0 LINE",
"377 0 LINE",
"379 6 LINE",
"229 50 LINE",
"229 133.078 LINE",
"620 134 LINE SMOOTH",
"812 134 OFFCURVE",
"926 185 OFFCURVE",
"926 310 CURVE SMOOTH",
"926 431 OFFCURVE",
"812 480 OFFCURVE",
"620 480 CURVE SMOOTH",
"229 480 LINE",
"229 550 LINE",
"384 594 LINE",
"382 600 LINE",
"7 600 LINE",
"5 594 LINE",
"155 550 LINE",
"155 50 LINE",
"0 6 LINE"
);
},
{
closed = 1;
nodes = (
"229 440 LINE",
"590 440 LINE SMOOTH",
"731 440 OFFCURVE",
"846 418 OFFCURVE",
"846 296 CURVE SMOOTH",
"846 203 OFFCURVE",
"738 173 OFFCURVE",
"610 173 CURVE SMOOTH",
"229 172.08 LINE"
);
}
);
width = 966;
},
{
layerId = "1838EE49-6142-4994-A2D6-8A9E455BC2D6";
paths = (
{
closed = 1;
nodes = (
"12 0 LINE",
"243 0 LINE",
"245 6 LINE",
"155 30 LINE",
"155 139 LINE",
"193 139 LINE SMOOTH",
"298 139 OFFCURVE",
"372 216 OFFCURVE",
"372 317 CURVE SMOOTH",
"372 413 OFFCURVE",
"310 476 OFFCURVE",
"205 476 CURVE SMOOTH",
"155 476 LINE",
"155 570 LINE",
"245 594 LINE",
"243 600 LINE",
"12 600 LINE",
"10 594 LINE",
"100 570 LINE",
"100 30 LINE",
"10 6 LINE"
);
},
{
closed = 1;
nodes = (
"155 446 LINE",
"193 446 LINE SMOOTH",
"268 448 OFFCURVE",
"312 391 OFFCURVE",
"312 303 CURVE SMOOTH",
"312 212 OFFCURVE",
"281 166 OFFCURVE",
"205 166 CURVE",
"155 168.083 LINE"
);
}
);
width = 397;
},
{
layerId = "84B9B914-E755-4DFA-8752-0B6F9D0EEB02";
paths = (
{
closed = 1;
nodes = (
"12 0 LINE",
"238 0 LINE",
"240 6 LINE",
"120 40 LINE",
"120 145 LINE",
"186 145 LINE SMOOTH",
"302 145 OFFCURVE",
"348 223 OFFCURVE",
"348 321 CURVE SMOOTH",
"348 405 OFFCURVE",
"291 476 OFFCURVE",
"198 476 CURVE SMOOTH",
"120 476 LINE",
"120 560 LINE",
"240 594 LINE",
"238 600 LINE",
"12 600 LINE",
"10 594 LINE",
"100 560 LINE",
"100 40 LINE",
"10 6 LINE"
);
},
{
closed = 1;
nodes = (
"120 461 LINE",
"186 461 LINE SMOOTH",
"293 463 OFFCURVE",
"325 386 OFFCURVE",
"325 307 CURVE SMOOTH",
"325 223 OFFCURVE",
"283 160 OFFCURVE",
"188 160 CURVE",
"120 163 LINE"
);
}
);
width = 373;
},
{
layerId = "8D80EE76-87DD-4377-B1D9-DA40B71577EF";
paths = (
{
closed = 1;
nodes = (
"2 0 LINE",
"327 0 LINE",
"329 5 LINE",
"179 50 LINE",
"179 139 LINE",
"495 140 LINE SMOOTH",
"686 140 OFFCURVE",
"774 193 OFFCURVE",
"774 313 CURVE SMOOTH",
"774 415 OFFCURVE",
"667 477 OFFCURVE",
"495 477 CURVE SMOOTH",
"179 477 LINE",
"179 555 LINE",
"334 596 LINE",
"332 600 LINE",
"7 600 LINE",
"5 596 LINE",
"155 555 LINE",
"155 50 LINE",
"0 5 LINE"
);
},
{
closed = 1;
nodes = (
"179 456 LINE",
"465 456 LINE SMOOTH",
"656 456 OFFCURVE",
"749 408 OFFCURVE",
"749 299 CURVE SMOOTH",
"749 205 OFFCURVE",
"661 161 OFFCURVE",
"485 161 CURVE SMOOTH",
"179 160 LINE"
);
}
);
width = 814;
},
{
layerId = "D4C2733C-030D-4F32-9813-200DF8941BD6";
paths = (
{
closed = 1;
nodes = (
"8 0 LINE",
"300 0 LINE",
"302 6 LINE",
"187 39 LINE",
"187 136 LINE",
"376 137 LINE SMOOTH",
"518 137 OFFCURVE",
"609 203 OFFCURVE",
"609 314 CURVE SMOOTH",
"609 421 OFFCURVE",
"525 478 OFFCURVE",
"383 478 CURVE SMOOTH",
"187 478 LINE",
"187 561 LINE",
"305 594 LINE",
"303 600 LINE",
"10 600 LINE",
"8 594 LINE",
"124 561 LINE",
"124 39 LINE",
"6 6 LINE"
);
},
{
closed = 1;
nodes = (
"187 443 LINE",
"363 443 LINE SMOOTH",
"466 445 OFFCURVE",
"541 403 OFFCURVE",
"541 300 CURVE SMOOTH",
"541 208 OFFCURVE",
"477 169 OFFCURVE",
"379 169 CURVE SMOOTH",
"187 170 LINE"
);
}
);
width = 640;
}
);
leftMetricsKey = P;
rightMetricsKey = P;
unicode = 00DE;
},
{
color = 4;
glyphname = Q;
lastChange = "2020-04-09 10:00:24 +0000";
layers = (
{
layerId = "0CCC0E2D-406A-4672-8E6C-854B1DF78A27";
paths = (
{
closed = 1;
nodes = (
"40 112 OFFCURVE",
"224 -20 OFFCURVE",
"485 -20 CURVE SMOOTH",
"538 -20 OFFCURVE",
"589 -14 OFFCURVE",
"635 -3 CURVE",
"809 -163 LINE",
"840 -137 LINE",
"702 17 LINE",
"841 70 OFFCURVE",
"928 175 OFFCURVE",
"928 307 CURVE SMOOTH",
"928 493 OFFCURVE",
"752 625 OFFCURVE",
"504 625 CURVE SMOOTH",
"232 625 OFFCURVE",
"40 490 OFFCURVE",
"40 299 CURVE SMOOTH"
);
},
{
closed = 1;
nodes = (
"120 474 OFFCURVE",
"244 580 OFFCURVE",
"461 580 CURVE SMOOTH",
"689 580 OFFCURVE",
"848 457 OFFCURVE",
"848 282 CURVE SMOOTH",
"848 172 OFFCURVE",
"788 85 OFFCURVE",
"675 47 CURVE",
"511 229 LINE",
"443 172 LINE",
"599 29 LINE",
"577 27 OFFCURVE",
"554 25 OFFCURVE",
"529 25 CURVE SMOOTH",
"289 25 OFFCURVE",
"120 145 OFFCURVE",
"120 325 CURVE SMOOTH"
);
}
);
width = 968;
},
{
layerId = "1838EE49-6142-4994-A2D6-8A9E455BC2D6";
paths = (
{
closed = 1;
nodes = (
"30 103 OFFCURVE",
"82 -10 OFFCURVE",
"187 -10 CURVE SMOOTH",
"197 -10 OFFCURVE",
"206 -9 OFFCURVE",
"214 -8 CURVE",
"254 -144 LINE",
"280 -139 LINE",
"249 2 LINE",
"320 33 OFFCURVE",
"356 125 OFFCURVE",
"356 278 CURVE SMOOTH",
"356 503 OFFCURVE",
"304 615 OFFCURVE",
"199 615 CURVE SMOOTH",
"86 615 OFFCURVE",
"30 522 OFFCURVE",
"30 333 CURVE SMOOTH"
);
},
{
closed = 1;
nodes = (
"90 527 OFFCURVE",
"119 585 OFFCURVE",
"187 585 CURVE SMOOTH",
"263 585 OFFCURVE",
"296 482 OFFCURVE",
"296 245 CURVE SMOOTH",
"296 127 OFFCURVE",
"279 62 OFFCURVE",
"241 37 CURVE",
"208 186 LINE",
"162 172 LINE",
"205 25 LINE",
"203 25 OFFCURVE",
"203 25 OFFCURVE",
"199 25 CURVE SMOOTH",
"123 25 OFFCURVE",
"90 136 OFFCURVE",
"90 391 CURVE SMOOTH"
);
}
);
width = 391;
},
{
associatedMasterId = "0CCC0E2D-406A-4672-8E6C-854B1DF78A27";
layerId = "37ACA70E-5713-4BE5-ACC0-CFF013DC889D";
name = "Mar 28 18, 15:13";
paths = (
{
closed = 1;
nodes = (
"744 -20 OFFCURVE",
"928 115 OFFCURVE",
"928 307 CURVE SMOOTH",
"928 493 OFFCURVE",
"752 625 OFFCURVE",
"504 625 CURVE SMOOTH",
"232 625 OFFCURVE",
"40 490 OFFCURVE",
"40 299 CURVE SMOOTH",
"40 112 OFFCURVE",
"224 -20 OFFCURVE",
"485 -20 CURVE SMOOTH"
);
},
{
closed = 1;
nodes = (
"289 25 OFFCURVE",
"120 145 OFFCURVE",
"120 325 CURVE SMOOTH",
"120 474 OFFCURVE",
"261 580 OFFCURVE",
"461 580 CURVE SMOOTH",
"688 580 OFFCURVE",
"848 457 OFFCURVE",
"848 282 CURVE SMOOTH",
"848 131 OFFCURVE",
"716 25 OFFCURVE",
"529 25 CURVE SMOOTH"
);
},
{
closed = 1;
nodes = (
"524 202 LINE",
"484 195 LINE",
"701 -158 LINE",
"786 -145 LINE"
);
}
);
width = 968;
},
{
associatedMasterId = "0CCC0E2D-406A-4672-8E6C-854B1DF78A27";
layerId = "047676F6-4566-4037-A2C9-BC1BAA19EAE7";
name = "Jun 9 18, 17:17";
paths = (
{
closed = 1;
nodes = (
"764 -20 OFFCURVE",
"948 115 OFFCURVE",
"948 307 CURVE SMOOTH",
"948 493 OFFCURVE",
"772 625 OFFCURVE",
"524 625 CURVE SMOOTH",
"252 625 OFFCURVE",
"60 490 OFFCURVE",
"60 299 CURVE SMOOTH",
"60 112 OFFCURVE",
"244 -20 OFFCURVE",
"505 -20 CURVE SMOOTH"
);
},
{
closed = 1;
nodes = (
"309 25 OFFCURVE",
"140 145 OFFCURVE",
"140 325 CURVE SMOOTH",
"140 474 OFFCURVE",
"281 580 OFFCURVE",
"481 580 CURVE SMOOTH",
"708 580 OFFCURVE",
"868 457 OFFCURVE",
"868 282 CURVE SMOOTH",
"868 131 OFFCURVE",
"736 25 OFFCURVE",
"549 25 CURVE SMOOTH"
);
},
{
closed = 1;
nodes = (
"463 172 LINE",
"829 -163 LINE",
"860 -137 LINE",
"531 229 LINE"
);
}
);
width = 1008;
},
{
associatedMasterId = "FC46D930-83A8-41E8-A9CB-C8AD47DCDD9D";
layerId = "1AC5EE05-1C4B-4860-A927-501E2FFF3073";
name = "Mar 28 18, 15:13";
paths = (
{
closed = 1;
nodes = (
"744 -20 OFFCURVE",
"928 115 OFFCURVE",
"928 307 CURVE SMOOTH",
"928 493 OFFCURVE",
"752 625 OFFCURVE",
"504 625 CURVE SMOOTH",
"232 625 OFFCURVE",
"40 490 OFFCURVE",
"40 299 CURVE SMOOTH",
"40 112 OFFCURVE",
"224 -20 OFFCURVE",
"485 -20 CURVE SMOOTH"
);
},
{
closed = 1;
nodes = (
"289 25 OFFCURVE",
"120 145 OFFCURVE",
"120 325 CURVE SMOOTH",
"120 474 OFFCURVE",
"261 580 OFFCURVE",
"461 580 CURVE SMOOTH",
"688 580 OFFCURVE",
"848 457 OFFCURVE",
"848 282 CURVE SMOOTH",
"848 131 OFFCURVE",
"716 25 OFFCURVE",
"529 25 CURVE SMOOTH"
);
},
{
closed = 1;
nodes = (
"524 202 LINE",
"484 195 LINE",
"701 -158 LINE",
"786 -145 LINE"
);
}
);
width = 968;
},
{
associatedMasterId = "FC46D930-83A8-41E8-A9CB-C8AD47DCDD9D";
layerId = "65FE9274-A69F-4605-954C-5F86FE1E3C13";
name = "Jun 9 18, 17:17";
paths = (
{
closed = 1;
nodes = (
"764 -20 OFFCURVE",
"948 115 OFFCURVE",
"948 307 CURVE SMOOTH",
"948 493 OFFCURVE",
"772 625 OFFCURVE",
"524 625 CURVE SMOOTH",
"252 625 OFFCURVE",
"60 490 OFFCURVE",
"60 299 CURVE SMOOTH",
"60 112 OFFCURVE",
"244 -20 OFFCURVE",
"505 -20 CURVE SMOOTH"
);
},
{
closed = 1;
nodes = (
"309 25 OFFCURVE",
"140 145 OFFCURVE",
"140 325 CURVE SMOOTH",
"140 474 OFFCURVE",
"281 580 OFFCURVE",
"481 580 CURVE SMOOTH",
"708 580 OFFCURVE",
"868 457 OFFCURVE",
"868 282 CURVE SMOOTH",
"868 131 OFFCURVE",
"736 25 OFFCURVE",
"549 25 CURVE SMOOTH"
);
},
{
closed = 1;
nodes = (
"463 172 LINE",
"829 -163 LINE",
"860 -137 LINE",
"531 229 LINE"
);
}
);
width = 1008;
},
{
layerId = "84B9B914-E755-4DFA-8752-0B6F9D0EEB02";
paths = (
{
closed = 1;
nodes = (
"30 101 OFFCURVE",
"82 -9 OFFCURVE",
"177 -9 CURVE SMOOTH",
"188 -9 OFFCURVE",
"198 -8 OFFCURVE",
"207 -5 CURVE",
"241 -131 LINE",
"256 -127 LINE",
"227 2 LINE",
"289 34 OFFCURVE",
"324 134 OFFCURVE",
"324 327 CURVE SMOOTH",
"324 524 OFFCURVE",
"273 611 OFFCURVE",
"177 611 CURVE SMOOTH",
"96 611 OFFCURVE",
"30 519 OFFCURVE",
"30 296 CURVE SMOOTH"
);
},
{
closed = 1;
nodes = (
"54 510 OFFCURVE",
"117 595 OFFCURVE",
"177 595 CURVE SMOOTH",
"255 595 OFFCURVE",
"300 499 OFFCURVE",
"300 294 CURVE SMOOTH",
"299 131 OFFCURVE",
"274 50 OFFCURVE",
"223 23 CURVE",
"185 194 LINE",
"155 188 LINE",
"202 15 LINE",
"194 13 OFFCURVE",
"186 12 OFFCURVE",
"177 12 CURVE SMOOTH",
"102 12 OFFCURVE",
"54 109 OFFCURVE",
"54 354 CURVE SMOOTH"
);
}
);
width = 359;
},
{
layerId = "8D80EE76-87DD-4377-B1D9-DA40B71577EF";
paths = (
{
closed = 1;
nodes = (
"40 109 OFFCURVE",
"214 -18 OFFCURVE",
"459 -18 CURVE SMOOTH",
"520 -18 OFFCURVE",
"577 -9 OFFCURVE",
"628 6 CURVE",
"792 -145 LINE",
"805 -137 LINE",
"665 19 LINE",
"796 72 OFFCURVE",
"877 176 OFFCURVE",
"877 307 CURVE SMOOTH",
"877 492 OFFCURVE",
"712 623 OFFCURVE",
"478 623 CURVE SMOOTH",
"222 623 OFFCURVE",
"40 485 OFFCURVE",
"40 290 CURVE SMOOTH"
);
},
{
closed = 1;
nodes = (
"69 472 OFFCURVE",
"238 601 OFFCURVE",
"444 601 CURVE SMOOTH",
"665 601 OFFCURVE",
"848 475 OFFCURVE",
"848 282 CURVE SMOOTH",
"848 174 OFFCURVE",
"768 79 OFFCURVE",
"651 34 CURVE",
"476 229 LINE",
"426 190 LINE",
"612 21 LINE",
"575 10 OFFCURVE",
"536 5 OFFCURVE",
"494 5 CURVE SMOOTH",
"261 5 OFFCURVE",
"69 127 OFFCURVE",
"69 316 CURVE SMOOTH"
);
}
);
width = 917;
},
{
layerId = "D4C2733C-030D-4F32-9813-200DF8941BD6";
paths = (
{
closed = 1;
nodes = (
"34 107 OFFCURVE",
"143 -14 OFFCURVE",
"315 -14 CURVE SMOOTH",
"343 -14 OFFCURVE",
"370 -11 OFFCURVE",
"394 -6 CURVE",
"492 -152 LINE",
"520 -138 LINE",
"443 8 LINE",
"543 49 OFFCURVE",
"601 146 OFFCURVE",
"601 290 CURVE SMOOTH",
"601 499 OFFCURVE",
"496 619 OFFCURVE",
"330 619 CURVE SMOOTH",
"149 619 OFFCURVE",
"34 508 OFFCURVE",
"34 318 CURVE SMOOTH"
);
},
{
closed = 1;
nodes = (
"103 504 OFFCURVE",
"173 583 OFFCURVE",
"304 583 CURVE SMOOTH",
"446 583 OFFCURVE",
"533 471 OFFCURVE",
"533 261 CURVE SMOOTH",
"533 146 OFFCURVE",
"497 72 OFFCURVE",
"427 41 CURVE",
"338 204 LINE",
"282 172 LINE",
"374 27 LINE",
"363 26 OFFCURVE",
"353 25 OFFCURVE",
"340 25 CURVE SMOOTH",
"194 25 OFFCURVE",
"103 140 OFFCURVE",
"103 363 CURVE SMOOTH"
);
}
);
width = 638;
}
);
unicode = 0051;
},
{
color = 4;
glyphname = R;
lastChange = "2020-04-09 10:00:24 +0000";
layers = (
{
layerId = "1838EE49-6142-4994-A2D6-8A9E455BC2D6";
paths = (
{
closed = 1;
nodes = (
"7 0 LINE",
"223 0 LINE",
"224 6 LINE",
"150 32 LINE",
"150 263 LINE",
"228 264 LINE",
"323 30 LINE",
"249 6 LINE",
"250 0 LINE",
"467 0 LINE",
"468 6 LINE",
"378 32 LINE",
"278 276 LINE",
"344 302 OFFCURVE",
"387 364 OFFCURVE",
"387 441 CURVE SMOOTH",
"387 537 OFFCURVE",
"325 600 OFFCURVE",
"220 600 CURVE SMOOTH",
"7 600 LINE",
"5 594 LINE",
"95 570 LINE",
"95 30 LINE",
"5 6 LINE"
);
},
{
closed = 1;
nodes = (
"150 570 LINE",
"208 570 LINE SMOOTH",
"283 572 OFFCURVE",
"327 515 OFFCURVE",
"327 427 CURVE SMOOTH",
"327 336 OFFCURVE",
"296 287 OFFCURVE",
"220 287 CURVE",
"150 296 LINE"
);
}
);
width = 478;
},
{
associatedMasterId = "0CCC0E2D-406A-4672-8E6C-854B1DF78A27";
layerId = "F3BBF246-7A5F-47B7-9EE5-022757B0F994";
name = "Extended Mar 31 18, 15:49";
paths = (
{
closed = 1;
nodes = (
"190 550 LINE",
"190 50 LINE",
"40 3 LINE",
"42 0 LINE",
"414 0 LINE",
"416 4 LINE",
"266 50 LINE",
"265 550 LINE",
"265 600 LINE",
"42 600 LINE",
"40 597 LINE"
);
},
{
closed = 1;
nodes = (
"551 267 LINE",
"909 -68 LINE",
"958 -58 LINE",
"657 277 LINE"
);
},
{
closed = 1;
nodes = (
"620 560 LINE SMOOTH",
"761 560 OFFCURVE",
"876 538 OFFCURVE",
"876 416 CURVE SMOOTH",
"876 323 OFFCURVE",
"768 293 OFFCURVE",
"640 293 CURVE",
"226 292 LINE",
"226 253 LINE",
"650 254 LINE SMOOTH",
"842 255 OFFCURVE",
"956 305 OFFCURVE",
"956 430 CURVE SMOOTH",
"956 551 OFFCURVE",
"842 600 OFFCURVE",
"650 600 CURVE SMOOTH",
"211 600 LINE",
"211 560 LINE"
);
}
);
width = 996;
},
{
layerId = "0CCC0E2D-406A-4672-8E6C-854B1DF78A27";
paths = (
{
closed = 1;
nodes = (
"2 0 LINE",
"374 0 LINE",
"376 4 LINE",
"226 50 LINE",
"225.572 264.093 LINE",
"531 265 LINE",
"699 50 LINE",
"549 6 LINE",
"551 0 LINE",
"941 0 LINE",
"943 6 LINE",
"793 50 LINE",
"621 267 LINE",
"770 278 OFFCURVE",
"866 327 OFFCURVE",
"866 436 CURVE SMOOTH",
"866 556 OFFCURVE",
"752 600 OFFCURVE",
"560 600 CURVE SMOOTH",
"2 600 LINE",
"0 597 LINE",
"150 550 LINE",
"150 50 LINE",
"0 3 LINE"
);
},
{
closed = 1;
nodes = (
"225 560 LINE",
"530 560 LINE SMOOTH",
"671 560 OFFCURVE",
"786 543 OFFCURVE",
"786 422 CURVE SMOOTH",
"786 329 OFFCURVE",
"678 299 OFFCURVE",
"550 299 CURVE",
"225 311 LINE"
);
}
);
width = 950;
},
{
associatedMasterId = "FC46D930-83A8-41E8-A9CB-C8AD47DCDD9D";
layerId = "54BA13CA-5A69-4900-A9F3-01EF8D357D37";
name = "Extended Mar 31 18, 15:49";
paths = (
{
closed = 1;
nodes = (
"190 550 LINE",
"190 50 LINE",
"40 3 LINE",
"42 0 LINE",
"414 0 LINE",
"416 4 LINE",
"266 50 LINE",
"265 550 LINE",
"265 600 LINE",
"42 600 LINE",
"40 597 LINE"
);
},
{
closed = 1;
nodes = (
"551 267 LINE",
"909 -68 LINE",
"958 -58 LINE",
"657 277 LINE"
);
},
{
closed = 1;
nodes = (
"620 560 LINE SMOOTH",
"761 560 OFFCURVE",
"876 538 OFFCURVE",
"876 416 CURVE SMOOTH",
"876 323 OFFCURVE",
"768 293 OFFCURVE",
"640 293 CURVE",
"226 292 LINE",
"226 253 LINE",
"650 254 LINE SMOOTH",
"842 255 OFFCURVE",
"956 305 OFFCURVE",
"956 430 CURVE SMOOTH",
"956 551 OFFCURVE",
"842 600 OFFCURVE",
"650 600 CURVE SMOOTH",
"211 600 LINE",
"211 560 LINE"
);
}
);
width = 996;
},
{
layerId = "84B9B914-E755-4DFA-8752-0B6F9D0EEB02";
paths = (
{
closed = 1;
nodes = (
"7 0 LINE",
"204 0 LINE",
"205 6 LINE",
"115 40 LINE",
"115 269 LINE",
"223 272 LINE",
"315 39 LINE",
"241 6 LINE",
"242 0 LINE",
"426 0 LINE",
"427 6 LINE",
"337 39 LINE",
"242 278 LINE",
"303 298 OFFCURVE",
"343 364 OFFCURVE",
"343 445 CURVE SMOOTH",
"343 540 OFFCURVE",
"285 600 OFFCURVE",
"193 600 CURVE SMOOTH",
"7 600 LINE",
"5 594 LINE",
"95 560 LINE",
"95 40 LINE",
"5 6 LINE"
);
},
{
closed = 1;
nodes = (
"115 576 LINE",
"181 585 LINE",
"268 587 OFFCURVE",
"320 530 OFFCURVE",
"320 431 CURVE SMOOTH",
"320 336 OFFCURVE",
"271 284 OFFCURVE",
"183 284 CURVE",
"115 287 LINE"
);
}
);
width = 437;
},
{
layerId = "8D80EE76-87DD-4377-B1D9-DA40B71577EF";
paths = (
{
closed = 1;
nodes = (
"2 0 LINE",
"324 0 LINE",
"326 3 LINE",
"176 50 LINE",
"176 273 LINE",
"525 274 LINE",
"693 50 LINE",
"543 5 LINE",
"545 0 LINE",
"873 0 LINE",
"875 5 LINE",
"725 50 LINE",
"553 274 LINE",
"694 275 OFFCURVE",
"800 318 OFFCURVE",
"800 436 CURVE SMOOTH",
"800 538 OFFCURVE",
"721 600 OFFCURVE",
"510 600 CURVE SMOOTH",
"2 600 LINE",
"0 598 LINE",
"150 550 LINE",
"150 50 LINE",
"0 2 LINE"
);
},
{
closed = 1;
nodes = (
"175 569 LINE",
"480 578 LINE SMOOTH",
"633 578 OFFCURVE",
"772 559 OFFCURVE",
"772 431 CURVE SMOOTH",
"772 320 OFFCURVE",
"660 293 OFFCURVE",
"519 293 CURVE",
"175 303 LINE"
);
}
);
width = 882;
},
{
layerId = "D4C2733C-030D-4F32-9813-200DF8941BD6";
paths = (
{
closed = 1;
nodes = (
"5 0 LINE",
"288 0 LINE",
"289 5 LINE",
"183 40 LINE",
"182 263 LINE",
"358 264 LINE",
"484 39 LINE",
"378 6 LINE",
"379 0 LINE",
"670 0 LINE",
"672 6 LINE",
"556 40 LINE",
"425 272 LINE",
"527 292 OFFCURVE",
"592 348 OFFCURVE",
"592 439 CURVE SMOOTH",
"592 545 OFFCURVE",
"508 600 OFFCURVE",
"366 600 CURVE SMOOTH",
"5 600 LINE",
"3 595 LINE",
"119 561 LINE",
"119 39 LINE",
"3 5 LINE"
);
},
{
closed = 1;
nodes = (
"182 566 LINE",
"346 566 LINE SMOOTH",
"449 567 OFFCURVE",
"524 527 OFFCURVE",
"524 425 CURVE SMOOTH",
"524 333 OFFCURVE",
"460 292 OFFCURVE",
"361 292 CURVE",
"182 302 LINE"
);
}
);
width = 680;
}
);
unicode = 0052;
},
{
color = 4;
glyphname = S;
lastChange = "2020-04-09 10:00:24 +0000";
layers = (
{
layerId = "0CCC0E2D-406A-4672-8E6C-854B1DF78A27";
paths = (
{
closed = 1;
nodes = (
"133 11 OFFCURVE",
"294 -20 OFFCURVE",
"449 -20 CURVE SMOOTH",
"679 -20 OFFCURVE",
"838 49 OFFCURVE",
"838 185 CURVE SMOOTH",
"838 267 OFFCURVE",
"758 335 OFFCURVE",
"439 351 CURVE SMOOTH",
"198 363 OFFCURVE",
"137 392 OFFCURVE",
"138 458 CURVE SMOOTH",
"140 542 OFFCURVE",
"278 583 OFFCURVE",
"439 583 CURVE SMOOTH",
"540 583 OFFCURVE",
"671 544 OFFCURVE",
"710 513 CURVE",
"728 376 LINE",
"735 374 LINE",
"796 535 LINE",
"719 598 OFFCURVE",
"541 623 OFFCURVE",
"439 623 CURVE SMOOTH",
"170 623 OFFCURVE",
"77 532 OFFCURVE",
"74 439 CURVE SMOOTH",
"70 344 OFFCURVE",
"143 299 OFFCURVE",
"439 281 CURVE SMOOTH",
"706 265 OFFCURVE",
"774 222 OFFCURVE",
"773 164 CURVE SMOOTH",
"771 83 OFFCURVE",
"630 20 OFFCURVE",
"449 20 CURVE SMOOTH",
"338 20 OFFCURVE",
"174 65 OFFCURVE",
"126 102 CURVE",
"108 261 LINE",
"101 263 LINE",
"40 79 LINE"
);
}
);
width = 878;
},
{
layerId = "1838EE49-6142-4994-A2D6-8A9E455BC2D6";
paths = (
{
closed = 1;
nodes = (
"37 19 OFFCURVE",
"106 -8 OFFCURVE",
"167 -8 CURVE SMOOTH",
"265 -8 OFFCURVE",
"324 56 OFFCURVE",
"324 152 CURVE SMOOTH",
"324 234 OFFCURVE",
"287 279 OFFCURVE",
"173 335 CURVE SMOOTH",
"104 369 OFFCURVE",
"76 408 OFFCURVE",
"76 470 CURVE SMOOTH",
"76 547 OFFCURVE",
"106 591 OFFCURVE",
"166 591 CURVE SMOOTH",
"203 591 OFFCURVE",
"236 577 OFFCURVE",
"257 547 CURVE",
"273 353 LINE",
"277 351 LINE",
"305 561 LINE",
"269 603 OFFCURVE",
"215 621 OFFCURVE",
"168 621 CURVE SMOOTH",
"100 621 OFFCURVE",
"26 565 OFFCURVE",
"26 462 CURVE SMOOTH",
"26 369 OFFCURVE",
"58 324 OFFCURVE",
"156 276 CURVE SMOOTH",
"240 234 OFFCURVE",
"274 197 OFFCURVE",
"274 144 CURVE SMOOTH",
"274 67 OFFCURVE",
"234 22 OFFCURVE",
"167 22 CURVE SMOOTH",
"121 22 OFFCURVE",
"67 44 OFFCURVE",
"52 75 CURVE",
"45 233 LINE",
"41 235 LINE",
"15 56 LINE"
);
}
);
width = 364;
},
{
associatedMasterId = "0CCC0E2D-406A-4672-8E6C-854B1DF78A27";
layerId = "9A359F69-7A44-4B2C-B582-FDEDCD665DE8";
name = "Apr 3 18, 11:50";
paths = (
{
closed = 1;
nodes = (
"143 23 OFFCURVE",
"304 -10 OFFCURVE",
"459 -10 CURVE SMOOTH",
"689 -10 OFFCURVE",
"848 49 OFFCURVE",
"848 195 CURVE SMOOTH",
"848 326 OFFCURVE",
"681 353 OFFCURVE",
"449 353 CURVE SMOOTH",
"259 353 OFFCURVE",
"147 364 OFFCURVE",
"149 448 CURVE SMOOTH",
"151 532 OFFCURVE",
"288 578 OFFCURVE",
"449 578 CURVE SMOOTH",
"550 578 OFFCURVE",
"681 555 OFFCURVE",
"720 524 CURVE",
"806 535 LINE",
"729 598 OFFCURVE",
"551 623 OFFCURVE",
"449 623 CURVE SMOOTH",
"180 623 OFFCURVE",
"86 522 OFFCURVE",
"83 418 CURVE SMOOTH",
"79 295 OFFCURVE",
"230 273 OFFCURVE",
"449 273 CURVE SMOOTH",
"650 273 OFFCURVE",
"782 252 OFFCURVE",
"781 174 CURVE SMOOTH",
"780 82 OFFCURVE",
"640 35 OFFCURVE",
"459 35 CURVE SMOOTH",
"348 35 OFFCURVE",
"184 65 OFFCURVE",
"136 102 CURVE",
"50 91 LINE"
);
},
{
closed = 1;
nodes = (
"745 354 LINE",
"738 356 LINE",
"720 524 LINE",
"806 535 LINE"
);
},
{
closed = 1;
nodes = (
"111 272 LINE",
"118 270 LINE",
"136 102 LINE",
"50 91 LINE"
);
}
);
width = 878;
},
{
associatedMasterId = "FC46D930-83A8-41E8-A9CB-C8AD47DCDD9D";
layerId = "A8B821C7-36AA-44CB-84BC-D34DB5EED9F4";
name = "Apr 3 18, 11:50";
paths = (
{
closed = 1;
nodes = (
"143 23 OFFCURVE",
"304 -10 OFFCURVE",
"459 -10 CURVE SMOOTH",
"689 -10 OFFCURVE",
"848 49 OFFCURVE",
"848 195 CURVE SMOOTH",
"848 326 OFFCURVE",
"681 353 OFFCURVE",
"449 353 CURVE SMOOTH",
"259 353 OFFCURVE",
"147 364 OFFCURVE",
"149 448 CURVE SMOOTH",
"151 532 OFFCURVE",
"288 578 OFFCURVE",
"449 578 CURVE SMOOTH",
"550 578 OFFCURVE",
"681 555 OFFCURVE",
"720 524 CURVE",
"806 535 LINE",
"729 598 OFFCURVE",
"551 623 OFFCURVE",
"449 623 CURVE SMOOTH",
"180 623 OFFCURVE",
"86 522 OFFCURVE",
"83 418 CURVE SMOOTH",
"79 295 OFFCURVE",
"230 273 OFFCURVE",
"449 273 CURVE SMOOTH",
"650 273 OFFCURVE",
"782 252 OFFCURVE",
"781 174 CURVE SMOOTH",
"780 82 OFFCURVE",
"640 35 OFFCURVE",
"459 35 CURVE SMOOTH",
"348 35 OFFCURVE",
"184 65 OFFCURVE",
"136 102 CURVE",
"50 91 LINE"
);
},
{
closed = 1;
nodes = (
"745 354 LINE",
"738 356 LINE",
"720 524 LINE",
"806 535 LINE"
);
},
{
closed = 1;
nodes = (
"111 272 LINE",
"118 270 LINE",
"136 102 LINE",
"50 91 LINE"
);
}
);
width = 878;
},
{
layerId = "84B9B914-E755-4DFA-8752-0B6F9D0EEB02";
paths = (
{
closed = 1;
nodes = (
"34 17 OFFCURVE",
"123 -9 OFFCURVE",
"181 -8 CURVE SMOOTH",
"272 -6 OFFCURVE",
"324 51 OFFCURVE",
"323 147 CURVE SMOOTH",
"322 208 OFFCURVE",
"278 250 OFFCURVE",
"181 313 CURVE SMOOTH",
"102 364 OFFCURVE",
"66 412 OFFCURVE",
"64 468 CURVE SMOOTH",
"61 550 OFFCURVE",
"104 602 OFFCURVE",
"170 603 CURVE SMOOTH",
"224 604 OFFCURVE",
"265 549 OFFCURVE",
"269 529 CURVE",
"275 355 LINE",
"279 353 LINE",
"313 551 LINE",
"292 581 OFFCURVE",
"233 622 OFFCURVE",
"172 621 CURVE SMOOTH",
"95 620 OFFCURVE",
"44 559 OFFCURVE",
"44 468 CURVE SMOOTH",
"44 410 OFFCURVE",
"78 355 OFFCURVE",
"166 295 CURVE SMOOTH",
"222 257 OFFCURVE",
"301 217 OFFCURVE",
"303 145 CURVE SMOOTH",
"305 64 OFFCURVE",
"256 11 OFFCURVE",
"181 10 CURVE SMOOTH",
"121 9 OFFCURVE",
"82 28 OFFCURVE",
"59 69 CURVE",
"55 234 LINE",
"51 236 LINE",
"15 62 LINE"
);
}
);
width = 363;
},
{
layerId = "8D80EE76-87DD-4377-B1D9-DA40B71577EF";
paths = (
{
closed = 1;
nodes = (
"137 23 OFFCURVE",
"289 -20 OFFCURVE",
"439 -20 CURVE SMOOTH",
"672 -20 OFFCURVE",
"808 50 OFFCURVE",
"808 172 CURVE SMOOTH",
"808 262 OFFCURVE",
"690 314 OFFCURVE",
"429 328 CURVE SMOOTH",
"205 340 OFFCURVE",
"109 380 OFFCURVE",
"109 458 CURVE SMOOTH",
"110 549 OFFCURVE",
"228 601 OFFCURVE",
"429 601 CURVE SMOOTH",
"546 601 OFFCURVE",
"672 570 OFFCURVE",
"708 532 CURVE",
"709 376 LINE",
"716 374 LINE",
"775 535 LINE",
"723 585 OFFCURVE",
"569 623 OFFCURVE",
"429 623 CURVE SMOOTH",
"210 623 OFFCURVE",
"83 557 OFFCURVE",
"83 451 CURVE SMOOTH",
"83 363 OFFCURVE",
"186 318 OFFCURVE",
"429 304 CURVE SMOOTH",
"670 290 OFFCURVE",
"782 243 OFFCURVE",
"782 163 CURVE SMOOTH",
"782 67 OFFCURVE",
"643 2 OFFCURVE",
"439 2 CURVE SMOOTH",
"318 2 OFFCURVE",
"176 42 OFFCURVE",
"107 96 CURVE",
"98 266 LINE",
"91 268 LINE",
"40 93 LINE"
);
}
);
width = 848;
},
{
layerId = "D4C2733C-030D-4F32-9813-200DF8941BD6";
paths = (
{
closed = 1;
nodes = (
"78 16 OFFCURVE",
"187 -13 OFFCURVE",
"288 -13 CURVE SMOOTH",
"442 -13 OFFCURVE",
"544 53 OFFCURVE",
"544 166 CURVE SMOOTH",
"544 248 OFFCURVE",
"489 303 OFFCURVE",
"287 342 CURVE SMOOTH",
"144 366 OFFCURVE",
"102 401 OFFCURVE",
"103 465 CURVE SMOOTH",
"103 545 OFFCURVE",
"180 588 OFFCURVE",
"283 588 CURVE SMOOTH",
"347 588 OFFCURVE",
"422 563 OFFCURVE",
"451 532 CURVE",
"468 363 LINE",
"473 361 LINE",
"515 550 LINE",
"462 601 OFFCURVE",
"355 622 OFFCURVE",
"284 622 CURVE SMOOTH",
"130 622 OFFCURVE",
"48 551 OFFCURVE",
"47 452 CURVE SMOOTH",
"45 358 OFFCURVE",
"94 313 OFFCURVE",
"277 278 CURVE SMOOTH",
"440 247 OFFCURVE",
"488 208 OFFCURVE",
"488 153 CURVE SMOOTH",
"487 74 OFFCURVE",
"404 21 OFFCURVE",
"288 21 CURVE SMOOTH",
"214 21 OFFCURVE",
"113 53 OFFCURVE",
"84 87 CURVE",
"72 245 LINE",
"67 247 LINE",
"26 66 LINE"
);
}
);
width = 584;
}
);
unicode = 0053;
},
{
color = 4;
glyphname = T;
lastChange = "2020-04-09 10:00:24 +0000";
layers = (
{
layerId = "0CCC0E2D-406A-4672-8E6C-854B1DF78A27";
paths = (
{
closed = 1;
nodes = (
"63 400 LINE",
"69 402 LINE",
"82 560 LINE",
"400 570 LINE",
"401 50 LINE",
"251 6 LINE",
"253 0 LINE",
"624 0 LINE",
"626 6 LINE",
"476 50 LINE",
"475.055 569.97 LINE",
"794 561 LINE",
"819 402 LINE",
"826 400 LINE",
"875 615 LINE",
"626 600 LINE",
"250 600 LINE",
"0 615 LINE"
);
}
);
width = 875;
},
{
layerId = "1838EE49-6142-4994-A2D6-8A9E455BC2D6";
paths = (
{
closed = 1;
nodes = (
"48 400 LINE",
"52 402 LINE",
"72 570 LINE",
"189 580 LINE",
"189 30 LINE",
"96 6 LINE",
"100 0 LINE",
"333 0 LINE",
"337 6 LINE",
"244 30 LINE",
"244 580 LINE",
"362 570 LINE",
"388 402 LINE",
"392 400 LINE",
"414 610 LINE",
"327 600 LINE",
"107 600 LINE",
"20 610 LINE"
);
}
);
width = 434;
},
{
layerId = "84B9B914-E755-4DFA-8752-0B6F9D0EEB02";
paths = (
{
closed = 1;
nodes = (
"36 411 LINE",
"40 413 LINE",
"60 582 LINE",
"177 591 LINE",
"177 40 LINE",
"74 6 LINE",
"76 0 LINE",
"298 0 LINE",
"300 6 LINE",
"197 40 LINE",
"197 591 LINE",
"315 582 LINE",
"341 413 LINE",
"345 411 LINE",
"355 610 LINE",
"280 600 LINE",
"95 600 LINE",
"20 610 LINE"
);
}
);
width = 375;
},
{
layerId = "8D80EE76-87DD-4377-B1D9-DA40B71577EF";
paths = (
{
closed = 1;
nodes = (
"45 418 LINE",
"51 420 LINE",
"64 578 LINE",
"382 588 LINE",
"383 50 LINE",
"233 6 LINE",
"235 0 LINE",
"555 0 LINE",
"557 6 LINE",
"407 50 LINE",
"406 588 LINE",
"725 579 LINE",
"750 420 LINE",
"757 418 LINE",
"787 611 LINE",
"557 600 LINE",
"232 600 LINE",
"0 611 LINE"
);
}
);
width = 787;
},
{
layerId = "D4C2733C-030D-4F32-9813-200DF8941BD6";
paths = (
{
closed = 1;
nodes = (
"54 400 LINE",
"59 402 LINE",
"76 566 LINE",
"279 576 LINE",
"280 39 LINE",
"162 6 LINE",
"166 0 LINE",
"458 0 LINE",
"461 6 LINE",
"343 39 LINE",
"343 576 LINE",
"547 566 LINE",
"573 402 LINE",
"578 400 LINE",
"612 612 LINE",
"455 600 LINE",
"168 600 LINE",
"11 612 LINE"
);
}
);
width = 623;
}
);
unicode = 0054;
},
{
color = 4;
glyphname = U;
lastChange = "2020-04-09 10:00:24 +0000";
layers = (
{
layerId = "0CCC0E2D-406A-4672-8E6C-854B1DF78A27";
paths = (
{
closed = 1;
nodes = (
"170 102 OFFCURVE",
"302 -20 OFFCURVE",
"532 -20 CURVE SMOOTH",
"784 -20 OFFCURVE",
"917 100 OFFCURVE",
"917 311 CURVE SMOOTH",
"917 550 LINE",
"1067 596 LINE",
"1065 600 LINE",
"724 600 LINE",
"722 596 LINE",
"872 550 LINE",
"872 286 LINE SMOOTH",
"872 131 OFFCURVE",
"757 25 OFFCURVE",
"576 25 CURVE SMOOTH",
"354 25 OFFCURVE",
"245 129 OFFCURVE",
"245 325 CURVE SMOOTH",
"245 550 LINE",
"395 596 LINE",
"393 600 LINE",
"22 600 LINE",
"20 596 LINE",
"170 550 LINE",
"170 299 LINE SMOOTH"
);
}
);
width = 1117;
},
{
layerId = "1838EE49-6142-4994-A2D6-8A9E455BC2D6";
paths = (
{
closed = 1;
nodes = (
"105 54 OFFCURVE",
"150 -10 OFFCURVE",
"274 -10 CURVE SMOOTH",
"383 -10 OFFCURVE",
"421 81 OFFCURVE",
"421 308 CURVE",
"421 570 LINE",
"511 596 LINE",
"510 600 LINE",
"293 600 LINE",
"291 596 LINE",
"381 569 LINE",
"381 275 LINE",
"381 96 OFFCURVE",
"354 25 OFFCURVE",
"274 25 CURVE SMOOTH",
"193 25 OFFCURVE",
"165 82 OFFCURVE",
"165 331 CURVE",
"165 570 LINE",
"255 596 LINE",
"254 600 LINE",
"17 600 LINE",
"15 596 LINE",
"105 569 LINE",
"105 273 LINE"
);
}
);
width = 536;
},
{
layerId = "84B9B914-E755-4DFA-8752-0B6F9D0EEB02";
paths = (
{
closed = 1;
nodes = (
"105 76 OFFCURVE",
"143 -10 OFFCURVE",
"243 -10 CURVE SMOOTH",
"343 -10 OFFCURVE",
"385 76 OFFCURVE",
"385 306 CURVE SMOOTH",
"385 561 LINE",
"475 596 LINE",
"474 600 LINE",
"277 600 LINE",
"275 596 LINE",
"365 560 LINE",
"365 273 LINE SMOOTH",
"365 81 OFFCURVE",
"326 13 OFFCURVE",
"243 13 CURVE SMOOTH",
"160 13 OFFCURVE",
"125 81 OFFCURVE",
"125 306 CURVE SMOOTH",
"125 561 LINE",
"215 596 LINE",
"214 600 LINE",
"17 600 LINE",
"15 596 LINE",
"105 560 LINE",
"105 273 LINE SMOOTH"
);
}
);
width = 490;
},
{
layerId = "8D80EE76-87DD-4377-B1D9-DA40B71577EF";
paths = (
{
closed = 1;
nodes = (
"152 102 OFFCURVE",
"310 -20 OFFCURVE",
"500 -20 CURVE SMOOTH",
"733 -20 OFFCURVE",
"866 92 OFFCURVE",
"866 311 CURVE SMOOTH",
"866 550 LINE",
"1016 596 LINE",
"1014 600 LINE",
"696 600 LINE",
"694 596 LINE",
"844 550 LINE",
"844 286 LINE SMOOTH",
"844 108 OFFCURVE",
"706 2 OFFCURVE",
"525 2 CURVE SMOOTH",
"312 2 OFFCURVE",
"179 119 OFFCURVE",
"179 325 CURVE SMOOTH",
"179 550 LINE",
"329 596 LINE",
"327 600 LINE",
"4 600 LINE",
"2 596 LINE",
"152 550 LINE",
"152 299 LINE SMOOTH"
);
}
);
width = 1020;
},
{
layerId = "D4C2733C-030D-4F32-9813-200DF8941BD6";
paths = (
{
closed = 1;
nodes = (
"133 75 OFFCURVE",
"215 -14 OFFCURVE",
"385 -14 CURVE SMOOTH",
"555 -14 OFFCURVE",
"634 89 OFFCURVE",
"634 309 CURVE SMOOTH",
"634 561 LINE",
"749 596 LINE",
"748 600 LINE",
"478 600 LINE",
"476 596 LINE",
"591 561 LINE",
"591 280 LINE SMOOTH",
"591 111 OFFCURVE",
"527 25 OFFCURVE",
"403 25 CURVE SMOOTH",
"262 25 OFFCURVE",
"199 102 OFFCURVE",
"199 328 CURVE SMOOTH",
"199 561 LINE",
"315 596 LINE",
"314 600 LINE",
"19 600 LINE",
"17 596 LINE",
"133 561 LINE",
"133 284 LINE SMOOTH"
);
}
);
width = 785;
}
);
unicode = 0055;
},
{
color = 4;
glyphname = V;
lastChange = "2020-04-09 10:00:24 +0000";
layers = (
{
layerId = "0CCC0E2D-406A-4672-8E6C-854B1DF78A27";
paths = (
{
closed = 1;
nodes = (
"90 550 LINE",
"428 0 LINE",
"478 0 LINE",
"824 550 LINE",
"974 594 LINE",
"972 600 LINE",
"621 600 LINE",
"619 594 LINE",
"774 550 LINE",
"473.121 71.723 LINE",
"177 550 LINE",
"332 594 LINE",
"330 600 LINE",
"-63 600 LINE",
"-65 594 LINE"
);
}
);
width = 919;
},
{
layerId = "1838EE49-6142-4994-A2D6-8A9E455BC2D6";
paths = (
{
closed = 1;
nodes = (
"55 570 LINE",
"225 0 LINE",
"265 0 LINE",
"416 570 LINE",
"506 594 LINE",
"504 600 LINE",
"289 600 LINE",
"287 594 LINE",
"376 570 LINE",
"249.922 94.076 LINE",
"115 570 LINE",
"200 594 LINE",
"198 600 LINE",
"-33 600 LINE",
"-35 594 LINE"
);
}
);
width = 481;
},
{
layerId = "84B9B914-E755-4DFA-8752-0B6F9D0EEB02";
paths = (
{
closed = 1;
nodes = (
"76 560 LINE",
"226 0 LINE",
"246 0 LINE",
"403 560 LINE",
"484 594 LINE",
"482 600 LINE",
"305 600 LINE",
"303 594 LINE",
"382 560 LINE",
"237 42 LINE",
"100 560 LINE",
"187 594 LINE",
"185 600 LINE",
"-13 600 LINE",
"-15 594 LINE"
);
}
);
width = 469;
},
{
layerId = "8D80EE76-87DD-4377-B1D9-DA40B71577EF";
paths = (
{
closed = 1;
nodes = (
"129 550 LINE",
"469 0 LINE",
"494 0 LINE",
"821 550 LINE",
"956 594 LINE",
"954 600 LINE",
"658 600 LINE",
"656 594 LINE",
"796 550 LINE",
"483 28 LINE",
"157 550 LINE",
"314 594 LINE",
"312 600 LINE",
"-26 600 LINE",
"-28 594 LINE"
);
}
);
width = 928;
},
{
layerId = "D4C2733C-030D-4F32-9813-200DF8941BD6";
paths = (
{
closed = 1;
nodes = (
"70 561 LINE",
"312 0 LINE",
"356 0 LINE",
"591 561 LINE",
"707 594 LINE",
"705 600 LINE",
"431 600 LINE",
"429 594 LINE",
"547 561 LINE",
"346 84 LINE",
"142 561 LINE",
"257 594 LINE",
"255 600 LINE",
"-46 600 LINE",
"-48 594 LINE"
);
}
);
width = 669;
}
);
unicode = 0056;
},
{
color = 4;
glyphname = W;
lastChange = "2020-04-09 10:00:24 +0000";
layers = (
{
layerId = "0CCC0E2D-406A-4672-8E6C-854B1DF78A27";
paths = (
{
closed = 1;
nodes = (
"126 547 LINE",
"304 0 LINE",
"347 0 LINE",
"622.421 533.341 LINE",
"896 0 LINE",
"940 0 LINE",
"1113 547 LINE",
"1295 589 LINE",
"1293 600 LINE",
"886 600 LINE",
"884 591 LINE",
"1069 547 LINE",
"928.4 102.443 LINE",
"670 600 LINE",
"599 579 LINE",
"353.127 96.423 LINE",
"206 547 LINE",
"400 592 LINE",
"397 600 LINE",
"-58 600 LINE",
"-60 592 LINE"
);
}
);
width = 1215;
},
{
layerId = "1838EE49-6142-4994-A2D6-8A9E455BC2D6";
paths = (
{
closed = 1;
nodes = (
"70 570 LINE",
"168 0 LINE",
"198 0 LINE",
"325.959 492.151 LINE",
"458 0 LINE",
"488 0 LINE",
"577 570 LINE",
"667 594 LINE",
"665 600 LINE",
"460 600 LINE",
"458 594 LINE",
"540 570 LINE",
"475.995 125.09 LINE",
"354 600 LINE",
"304 574 LINE",
"195.329 115.345 LINE",
"130 570 LINE",
"215 594 LINE",
"213 600 LINE",
"-18 600 LINE",
"-20 594 LINE"
);
}
);
width = 647;
},
{
layerId = "84B9B914-E755-4DFA-8752-0B6F9D0EEB02";
paths = (
{
closed = 1;
nodes = (
"75 560 LINE",
"161 0 LINE",
"184 0 LINE",
"317 550 LINE",
"449 0 LINE",
"472 0 LINE",
"556 560 LINE",
"647 594 LINE",
"645 600 LINE",
"456 600 LINE",
"454 594 LINE",
"534 560 LINE",
"460 47 LINE",
"327 600 LINE",
"305 584 LINE",
"175 42 LINE",
"102 560 LINE",
"182 594 LINE",
"180 600 LINE",
"-13 600 LINE",
"-15 594 LINE"
);
}
);
width = 632;
},
{
layerId = "8D80EE76-87DD-4377-B1D9-DA40B71577EF";
paths = (
{
closed = 1;
nodes = (
"125 550 LINE",
"309 0 LINE",
"328 0 LINE",
"606 572 LINE",
"879 0 LINE",
"901 0 LINE",
"1076 550 LINE",
"1229 592 LINE",
"1227 600 LINE",
"901 600 LINE",
"899 593 LINE",
"1051 550 LINE",
"889 37 LINE",
"620 600 LINE",
"593 595 LINE",
"323 39 LINE",
"152 550 LINE",
"306 594 LINE",
"304 600 LINE",
"-27 600 LINE",
"-28 594 LINE"
);
}
);
width = 1199;
},
{
layerId = "D4C2733C-030D-4F32-9813-200DF8941BD6";
paths = (
{
closed = 1;
nodes = (
"94 560 LINE",
"226 0 LINE",
"262 0 LINE",
"453 510 LINE",
"646 0 LINE",
"682 0 LINE",
"807 560 LINE",
"936 592 LINE",
"934 600 LINE",
"643 600 LINE",
"641 593 LINE",
"767 560 LINE",
"670 115 LINE",
"489 600 LINE",
"430 576 LINE",
"263 107 LINE",
"163 560 LINE",
"294 593 LINE",
"292 600 LINE",
"-35 600 LINE",
"-37 593 LINE"
);
}
);
width = 890;
}
);
unicode = 0057;
},
{
color = 4;
glyphname = X;
lastChange = "2020-04-09 10:00:24 +0000";
layers = (
{
layerId = "0CCC0E2D-406A-4672-8E6C-854B1DF78A27";
paths = (
{
closed = 1;
nodes = (
"-18 0 LINE",
"347 0 LINE",
"349 6 LINE",
"199 50 LINE",
"508.428 276.521 LINE",
"802 50 LINE",
"652 6 LINE",
"654 0 LINE",
"1070 0 LINE",
"1072 6 LINE",
"922 50 LINE",
"570.006 321.6 LINE",
"882 550 LINE",
"1032 594 LINE",
"1030 600 LINE",
"665 600 LINE",
"663 594 LINE",
"813 550 LINE",
"536.413 347.521 LINE",
"274 550 LINE",
"424 594 LINE",
"421 600 LINE",
"6 600 LINE",
"4 594 LINE",
"154 550 LINE",
"474.835 302.442 LINE",
"130 50 LINE",
"-20 6 LINE"
);
}
);
width = 1052;
},
{
layerId = "1838EE49-6142-4994-A2D6-8A9E455BC2D6";
paths = (
{
closed = 1;
nodes = (
"12 0 LINE",
"223 0 LINE",
"225 6 LINE",
"135 30 LINE",
"252.857 261.429 LINE",
"360 30 LINE",
"270 6 LINE",
"272 0 LINE",
"508 0 LINE",
"510 6 LINE",
"420 30 LINE",
"284.286 323.143 LINE",
"410 570 LINE",
"500 594 LINE",
"498 600 LINE",
"287 600 LINE",
"285 594 LINE",
"375 570 LINE",
"267.619 359.143 LINE",
"170 570 LINE",
"260 594 LINE",
"258 600 LINE",
"22 600 LINE",
"20 594 LINE",
"110 570 LINE",
"236.19 297.429 LINE",
"100 30 LINE",
"10 6 LINE"
);
}
);
width = 520;
},
{
layerId = "84B9B914-E755-4DFA-8752-0B6F9D0EEB02";
paths = (
{
closed = 1;
nodes = (
"12 0 LINE",
"211 0 LINE",
"213 6 LINE",
"123 40 LINE",
"247 289 LINE",
"370 40 LINE",
"280 6 LINE",
"282 0 LINE",
"481 0 LINE",
"483 6 LINE",
"393 40 LINE",
"257 308 LINE",
"383 560 LINE",
"473 594 LINE",
"471 600 LINE",
"275 600 LINE",
"273 594 LINE",
"363 560 LINE",
"247 327 LINE",
"130 560 LINE",
"220 594 LINE",
"218 600 LINE",
"22 600 LINE",
"20 594 LINE",
"110 560 LINE",
"236 308 LINE",
"100 40 LINE",
"10 6 LINE"
);
}
);
width = 498;
},
{
layerId = "8D80EE76-87DD-4377-B1D9-DA40B71577EF";
paths = (
{
closed = 1;
nodes = (
"-18 0 LINE",
"313 0 LINE",
"315 7 LINE",
"165 50 LINE",
"505 298 LINE",
"844 50 LINE",
"694 7 LINE",
"696 0 LINE",
"1035 0 LINE",
"1037 7 LINE",
"887 50 LINE",
"527 315 LINE",
"851 550 LINE",
"1001 593 LINE",
"999 600 LINE",
"673 600 LINE",
"671 593 LINE",
"821 550 LINE",
"510 327 LINE",
"203 550 LINE",
"353 593 LINE",
"351 600 LINE",
"13 600 LINE",
"11 593 LINE",
"161 550 LINE",
"489 310 LINE",
"130 50 LINE",
"-20 7 LINE"
);
}
);
width = 1017;
},
{
layerId = "D4C2733C-030D-4F32-9813-200DF8941BD6";
paths = (
{
closed = 1;
nodes = (
"-1 0 LINE",
"276 0 LINE",
"278 6 LINE",
"162 39 LINE",
"362 268 LINE",
"549 39 LINE",
"434 6 LINE",
"436 0 LINE",
"749 0 LINE",
"751 6 LINE",
"635 39 LINE",
"407 322 LINE",
"612 561 LINE",
"728 594 LINE",
"726 600 LINE",
"449 600 LINE",
"447 594 LINE",
"563 561 LINE",
"383 354 LINE",
"215 561 LINE",
"330 594 LINE",
"328 600 LINE",
"15 600 LINE",
"13 594 LINE",
"129 561 LINE",
"338 300 LINE",
"113 39 LINE",
"-3 6 LINE"
);
}
);
width = 748;
}
);
unicode = 0058;
},
{
color = 4;
glyphname = Y;
lastChange = "2020-04-09 10:00:24 +0000";
layers = (
{
layerId = "0CCC0E2D-406A-4672-8E6C-854B1DF78A27";
paths = (
{
closed = 1;
nodes = (
"85 550 LINE",
"435 250 LINE",
"435 50 LINE",
"280 6 LINE",
"282 0 LINE",
"658 0 LINE",
"660 6 LINE",
"510 50 LINE",
"510 250.813 LINE",
"878 550 LINE",
"1028 594 LINE",
"1026 600 LINE",
"670 600 LINE",
"668 594 LINE",
"818 550 LINE",
"498.134 292.658 LINE",
"193 550 LINE",
"343 594 LINE",
"341 600 LINE",
"-63 600 LINE",
"-65 594 LINE"
);
}
);
width = 983;
},
{
layerId = "1838EE49-6142-4994-A2D6-8A9E455BC2D6";
paths = (
{
closed = 1;
nodes = (
"80 570 LINE",
"236 280 LINE",
"236 30 LINE",
"143 6 LINE",
"147 0 LINE",
"380 0 LINE",
"384 6 LINE",
"291 30 LINE",
"291 280 LINE",
"441 570 LINE",
"531 594 LINE",
"529 600 LINE",
"318 600 LINE",
"316 594 LINE",
"406 570 LINE",
"273.157 313.17 LINE",
"135 570 LINE",
"225 594 LINE",
"223 600 LINE",
"-8 600 LINE",
"-10 594 LINE"
);
}
);
width = 521;
},
{
layerId = "84B9B914-E755-4DFA-8752-0B6F9D0EEB02";
paths = (
{
closed = 1;
nodes = (
"85 560 LINE",
"235 281 LINE",
"235 40 LINE",
"145 6 LINE",
"147 0 LINE",
"346 0 LINE",
"348 6 LINE",
"255 40 LINE",
"255 281 LINE",
"398.844 560 LINE",
"489 594 LINE",
"487 600 LINE",
"288 600 LINE",
"286 594 LINE",
"375.937 560.024 LINE",
"245 302 LINE",
"107.279 560.106 LINE",
"197 594 LINE",
"195 600 LINE",
"-3 600 LINE",
"-5 594 LINE"
);
}
);
width = 484;
},
{
layerId = "8D80EE76-87DD-4377-B1D9-DA40B71577EF";
paths = (
{
closed = 1;
nodes = (
"85 550 LINE",
"434 251 LINE",
"434 50 LINE",
"284 6 LINE",
"286 0 LINE",
"606 0 LINE",
"608 6 LINE",
"458 50 LINE",
"458 251 LINE",
"819 550 LINE",
"969 593 LINE",
"967 600 LINE",
"631 600 LINE",
"629 593 LINE",
"779 550 LINE",
"448 269 LINE",
"128 550 LINE",
"278 593 LINE",
"276 600 LINE",
"-63 600 LINE",
"-65 593 LINE"
);
}
);
width = 924;
},
{
layerId = "D4C2733C-030D-4F32-9813-200DF8941BD6";
paths = (
{
closed = 1;
nodes = (
"82 561 LINE",
"321 267 LINE",
"321 39 LINE",
"202 6 LINE",
"205 0 LINE",
"499 0 LINE",
"502 6 LINE",
"385 39 LINE",
"385 267 LINE",
"628 561 LINE",
"744 594 LINE",
"742 600 LINE",
"469 600 LINE",
"467 594 LINE",
"583 561 LINE",
"370 304 LINE",
"160 561 LINE",
"276 594 LINE",
"274 600 LINE",
"-32 600 LINE",
"-34 594 LINE"
);
}
);
width = 719;
}
);
leftKerningGroup = A;
unicode = 0059;
},
{
color = 4;
glyphname = Z;
lastChange = "2020-04-09 10:00:24 +0000";
layers = (
{
layerId = "0CCC0E2D-406A-4672-8E6C-854B1DF78A27";
paths = (
{
closed = 1;
nodes = (
"47 0 LINE",
"818 0 LINE",
"798 220 LINE",
"792 218 LINE",
"738 45 LINE",
"118 36 LINE",
"796 545 LINE",
"778 600 LINE",
"312 600 LINE",
"33 615 LINE",
"82 400 LINE",
"89 402 LINE",
"114 561 LINE",
"707 565 LINE",
"28 54 LINE"
);
}
);
width = 848;
},
{
layerId = "1838EE49-6142-4994-A2D6-8A9E455BC2D6";
paths = (
{
closed = 1;
nodes = (
"35 0 LINE",
"367 0 LINE",
"355 210 LINE",
"351 208 LINE",
"317 30 LINE",
"75.31 20.409 LINE",
"358 580 LINE",
"340 600 LINE",
"121 600 LINE",
"29 610 LINE",
"53 400 LINE",
"57 402 LINE",
"81 570 LINE",
"299.704 579.55 LINE",
"20 24 LINE"
);
}
);
width = 387;
},
{
layerId = "84B9B914-E755-4DFA-8752-0B6F9D0EEB02";
paths = (
{
closed = 1;
nodes = (
"36 0 LINE",
"356 0 LINE",
"344 193 LINE",
"340 191 LINE",
"312 20 LINE",
"47 15 LINE",
"331 589 LINE",
"322 600 LINE",
"106 600 LINE",
"20 609 LINE",
"40 413 LINE",
"44 415 LINE",
"61 582 LINE",
"305 587 LINE",
"22 9 LINE"
);
}
);
width = 376;
},
{
layerId = "8D80EE76-87DD-4377-B1D9-DA40B71577EF";
paths = (
{
closed = 1;
nodes = (
"46 0 LINE",
"795 0 LINE",
"775 192 LINE",
"769 190 LINE",
"725 24 LINE",
"77 17 LINE",
"754 583 LINE",
"744 600 LINE",
"298 600 LINE",
"28 614 LINE",
"72 421 LINE",
"79 423 LINE",
"92 580 LINE",
"715 586 LINE",
"34 15 LINE"
);
}
);
width = 825;
},
{
layerId = "D4C2733C-030D-4F32-9813-200DF8941BD6";
paths = (
{
closed = 1;
nodes = (
"40 0 LINE",
"560 0 LINE",
"545 214 LINE",
"540 212 LINE",
"497 36 LINE",
"94 27 LINE",
"546 565 LINE",
"528 600 LINE",
"203 600 LINE",
"31 612 LINE",
"65 400 LINE",
"71 402 LINE",
"95 566 LINE",
"474 573 LINE",
"23 37 LINE"
);
}
);
width = 585;
}
);
unicode = 005A;
},
{
color = 4;
glyphname = AE.ss01;
lastChange = "2020-04-09 10:00:24 +0000";
layers = (
{
layerId = "0CCC0E2D-406A-4672-8E6C-854B1DF78A27";
paths = (
{
closed = 1;
nodes = (
"-88 -1 LINE",
"263 -1 LINE",
"265 3 LINE",
"115 49 LINE",
"243.33 179 LINE",
"603 179 LINE",
"603 50 LINE",
"453 3 LINE",
"455 0 LINE",
"1214 0 LINE",
"1194 220 LINE",
"1188 218 LINE",
"1134 45 LINE",
"678 31.182 LINE",
"678.453 276.325 LINE",
"949 268 LINE",
"949 318 LINE",
"678.519 309.678 LINE",
"678.614 569.293 LINE",
"1143 561 LINE",
"1168 402 LINE",
"1175 400 LINE",
"1224 615 LINE",
"925 600 LINE",
"455 600 LINE",
"453 597 LINE",
"570.306 560.244 LINE",
"60 49 LINE",
"-90 3 LINE"
);
},
{
closed = 1;
nodes = (
"603 543.349 LINE",
"603 219 LINE",
"282.817 219 LINE"
);
}
);
width = 1284;
},
{
layerId = "1838EE49-6142-4994-A2D6-8A9E455BC2D6";
paths = (
{
closed = 1;
nodes = (
"-18 0 LINE",
"195 0 LINE",
"197 6 LINE",
"107 30 LINE",
"157.389 160 LINE",
"315 160 LINE",
"315 30 LINE",
"225 6 LINE",
"227 0 LINE",
"572 0 LINE",
"557 210 LINE",
"553 208 LINE",
"522 30 LINE",
"370 21.163 LINE",
"370 283.808 LINE",
"492 276 LINE",
"492 311 LINE",
"370 304.168 LINE",
"370 578.994 LINE",
"522 570 LINE",
"546 402 LINE",
"550 400 LINE",
"574 610 LINE",
"487 600 LINE",
"227 600 LINE",
"225 594 LINE",
"282.313 578.717 LINE",
"70 30 LINE",
"-20 6 LINE"
);
},
{
closed = 1;
nodes = (
"315 566.621 LINE",
"315 190 LINE",
"169.018 190 LINE"
);
}
);
width = 619;
},
{
layerId = "84B9B914-E755-4DFA-8752-0B6F9D0EEB02";
paths = (
{
closed = 1;
nodes = (
"-18 0 LINE",
"182 0 LINE",
"184 6 LINE",
"91 40 LINE",
"143 172 LINE",
"301 172 LINE",
"301 40 LINE",
"211 6 LINE",
"213 0 LINE",
"552 0 LINE",
"538 193 LINE",
"532 191 LINE",
"508 20 LINE",
"321 15 LINE",
"321 287 LINE",
"462 281 LINE",
"462 304 LINE",
"321 297 LINE",
"321 585 LINE",
"508 580 LINE",
"525 415 LINE",
"531 413 LINE",
"548 610 LINE",
"464 600 LINE",
"203 600 LINE",
"201 596 LINE",
"275 560 LINE",
"70 40 LINE",
"-20 6 LINE"
);
},
{
closed = 1;
nodes = (
"301 570 LINE",
"301 189 LINE",
"149 189 LINE"
);
}
);
width = 597;
},
{
layerId = "8D80EE76-87DD-4377-B1D9-DA40B71577EF";
paths = (
{
closed = 1;
nodes = (
"-88 -1 LINE",
"245 -1 LINE",
"247 2 LINE",
"101 48 LINE",
"244 197 LINE",
"583 197 LINE",
"583 50 LINE",
"433 3 LINE",
"435 0 LINE",
"1189 0 LINE",
"1169 192 LINE",
"1163 190 LINE",
"1118 22 LINE",
"607 13 LINE",
"608 281 LINE",
"906 274 LINE",
"906 305 LINE",
"608 298 LINE",
"608 587 LINE",
"1127 580 LINE",
"1143 423 LINE",
"1150 421 LINE",
"1190 615 LINE",
"895 600 LINE",
"435 600 LINE",
"433 597 LINE",
"560 558 LINE",
"69 48 LINE",
"-90 2 LINE"
);
},
{
closed = 1;
nodes = (
"586 557 LINE",
"586 218 LINE",
"265 218 LINE"
);
}
);
width = 1250;
},
{
layerId = "D4C2733C-030D-4F32-9813-200DF8941BD6";
paths = (
{
closed = 1;
nodes = (
"-48 0 LINE",
"224 0 LINE",
"226 5 LINE",
"110 38 LINE",
"194 168 LINE",
"438 168 LINE",
"438 39 LINE",
"323 5 LINE",
"325 0 LINE",
"847 0 LINE",
"830 214 LINE",
"825 212 LINE",
"784 36 LINE",
"502 25 LINE",
"502 281 LINE",
"688 273 LINE",
"688 314 LINE",
"502 307 LINE",
"502 575 LINE",
"788 566 LINE",
"813 402 LINE",
"818 400 LINE",
"853 612 LINE",
"675 600 LINE",
"325 600 LINE",
"323 595 LINE",
"406 571 LINE",
"66 38 LINE",
"-50 5 LINE"
);
},
{
closed = 1;
nodes = (
"438 557 LINE",
"438 202 LINE",
"218 202 LINE"
);
}
);
width = 904;
}
);
leftMetricsKey = A;
rightMetricsKey = E;
},
{
color = 4;
glyphname = E.ss01;
lastChange = "2020-04-09 10:00:24 +0000";
layers = (
{
layerId = "0CCC0E2D-406A-4672-8E6C-854B1DF78A27";
paths = (
{
closed = 1;
nodes = (
"2 0 LINE",
"861 0 LINE",
"841 220 LINE",
"835 218 LINE",
"781 45 LINE",
"225 30.983 LINE",
"225.453 276.621 LINE",
"566 268 LINE",
"566 318 LINE",
"225.519 309.38 LINE",
"225.612 569.41 LINE",
"790 561 LINE",
"815 402 LINE",
"822 400 LINE",
"871 615 LINE",
"572 600 LINE",
"2 600 LINE",
"0 597 LINE",
"150 550 LINE",
"150 50 LINE",
"0 3 LINE"
);
}
);
width = 931;
},
{
layerId = "1838EE49-6142-4994-A2D6-8A9E455BC2D6";
paths = (
{
closed = 1;
nodes = (
"22 0 LINE",
"387 0 LINE",
"372 210 LINE",
"368 208 LINE",
"337 30 LINE",
"165 21.042 LINE",
"165 283.834 LINE",
"307 276 LINE",
"307 311 LINE",
"165 304.145 LINE",
"165 579.101 LINE",
"337 570 LINE",
"361 402 LINE",
"365 400 LINE",
"389 610 LINE",
"302 600 LINE",
"22 600 LINE",
"20 594 LINE",
"110 570 LINE",
"110 30 LINE",
"20 6 LINE"
);
}
);
width = 434;
},
{
layerId = "84B9B914-E755-4DFA-8752-0B6F9D0EEB02";
paths = (
{
closed = 1;
nodes = (
"22 0 LINE",
"352 0 LINE",
"338 193 LINE",
"332 191 LINE",
"308 20 LINE",
"130 15 LINE",
"130 287 LINE",
"273 281 LINE",
"273 303 LINE",
"130 297 LINE",
"130 585 LINE",
"308 580 LINE",
"325 415 LINE",
"331 413 LINE",
"348 610 LINE",
"267 600 LINE",
"22 600 LINE",
"20 593 LINE",
"110 560 LINE",
"110 40 LINE",
"20 8 LINE"
);
}
);
width = 397;
},
{
layerId = "8D80EE76-87DD-4377-B1D9-DA40B71577EF";
paths = (
{
closed = 1;
nodes = (
"2 0 LINE",
"810 0 LINE",
"790 192 LINE",
"784 190 LINE",
"739 22 LINE",
"174 13 LINE",
"175 281 LINE",
"518 274 LINE",
"518 305 LINE",
"175 298 LINE",
"175 587 LINE",
"748 580 LINE",
"764 423 LINE",
"771 421 LINE",
"811 615 LINE",
"521 600 LINE",
"2 600 LINE",
"0 597 LINE",
"150 550 LINE",
"150 50 LINE",
"0 3 LINE"
);
}
);
width = 871;
},
{
layerId = "D4C2733C-030D-4F32-9813-200DF8941BD6";
paths = (
{
closed = 1;
nodes = (
"13 0 LINE",
"590 0 LINE",
"573 214 LINE",
"568 212 LINE",
"527 36 LINE",
"191 25 LINE",
"191 281 LINE",
"418 273 LINE",
"418 314 LINE",
"191 306 LINE",
"191 575 LINE",
"531 566 LINE",
"556 402 LINE",
"561 400 LINE",
"596 612 LINE",
"418 600 LINE",
"13 600 LINE",
"11 595 LINE",
"127 561 LINE",
"127 39 LINE",
"11 5 LINE"
);
}
);
width = 647;
}
);
leftMetricsKey = E;
rightMetricsKey = E;
},
{
color = 4;
glyphname = F.ss01;
lastChange = "2020-04-09 10:00:24 +0000";
layers = (
{
layerId = "0CCC0E2D-406A-4672-8E6C-854B1DF78A27";
paths = (
{
closed = 1;
nodes = (
"160 550 LINE",
"161 50 LINE",
"11 6 LINE",
"13 0 LINE",
"433 0 LINE",
"436 6 LINE",
"236 53 LINE",
"235.615 263.668 LINE",
"591 255 LINE",
"591 305 LINE",
"235.555 296.331 LINE",
"235.056 569.418 LINE",
"800 561 LINE",
"825 402 LINE",
"832 400 LINE",
"881 615 LINE",
"582 600 LINE",
"12 600 LINE",
"10 597 LINE"
);
}
);
width = 901;
},
{
layerId = "1838EE49-6142-4994-A2D6-8A9E455BC2D6";
paths = (
{
closed = 1;
nodes = (
"120 570 LINE",
"120 30 LINE",
"30 6 LINE",
"32 0 LINE",
"293 0 LINE",
"295 6 LINE",
"175 31 LINE",
"175 283.834 LINE",
"317 276 LINE",
"317 311 LINE",
"175 304.145 LINE",
"175 579.101 LINE",
"347 570 LINE",
"371 402 LINE",
"375 400 LINE",
"399 610 LINE",
"312 600 LINE",
"32 600 LINE",
"30 594 LINE"
);
}
);
width = 419;
},
{
layerId = "84B9B914-E755-4DFA-8752-0B6F9D0EEB02";
paths = (
{
closed = 1;
nodes = (
"120 560 LINE",
"119 39 LINE",
"30 6 LINE",
"32 0 LINE",
"260 0 LINE",
"262 6 LINE",
"142 40 LINE",
"142 289 LINE",
"282 282 LINE",
"282 306 LINE",
"142 299 LINE",
"143 585 LINE",
"320 580 LINE",
"338 415 LINE",
"342 413 LINE",
"360 610 LINE",
"279 600 LINE",
"32 600 LINE",
"30 594 LINE"
);
}
);
width = 380;
},
{
layerId = "8D80EE76-87DD-4377-B1D9-DA40B71577EF";
paths = (
{
closed = 1;
nodes = (
"160 550 LINE",
"160 50 LINE",
"11 6 LINE",
"13 0 LINE",
"381 0 LINE",
"384 6 LINE",
"184 50 LINE",
"184 271 LINE",
"537 265 LINE",
"537 297 LINE",
"184 288 LINE",
"184 587 LINE",
"758 580 LINE",
"773 423 LINE",
"780 421 LINE",
"820 615 LINE",
"530 600 LINE",
"12 600 LINE",
"10 597 LINE"
);
}
);
width = 840;
},
{
layerId = "D4C2733C-030D-4F32-9813-200DF8941BD6";
paths = (
{
closed = 1;
nodes = (
"137 561 LINE",
"138 39 LINE",
"22 6 LINE",
"24 0 LINE",
"353 0 LINE",
"355 6 LINE",
"201 40 LINE",
"201 275 LINE",
"434 267 LINE",
"434 308 LINE",
"201 301 LINE",
"201 575 LINE",
"541 566 LINE",
"566 402 LINE",
"571 400 LINE",
"606 612 LINE",
"428 600 LINE",
"23 600 LINE",
"21 595 LINE"
);
}
);
width = 626;
}
);
leftMetricsKey = F;
rightMetricsKey = F;
},
{
color = 4;
glyphname = OE.ss01;
lastChange = "2020-04-09 10:00:24 +0000";
layers = (
{
layerId = "0CCC0E2D-406A-4672-8E6C-854B1DF78A27";
paths = (
{
closed = 1;
nodes = (
"40 112 OFFCURVE",
"224 -20 OFFCURVE",
"485 -20 CURVE SMOOTH",
"544.122 -20 OFFCURVE",
"599.515 -13.074 OFFCURVE",
"649.624 0 CURVE",
"1341 0 LINE",
"1321 220 LINE",
"1315 218 LINE",
"1261 45 LINE",
"755 31.073 LINE",
"755.453 276.466 LINE",
"1056 268 LINE",
"1056 318 LINE",
"755.519 309.536 LINE",
"755.613 569.368 LINE",
"1280 561 LINE",
"1305 402 LINE",
"1312 400 LINE",
"1361 615 LINE",
"1062 600 LINE",
"647.379 600 LINE",
"603.086 609.782 OFFCURVE",
"554.966 615 OFFCURVE",
"504 615 CURVE SMOOTH",
"232 615 OFFCURVE",
"40 490 OFFCURVE",
"40 299 CURVE SMOOTH"
);
},
{
closed = 1;
nodes = (
"120 474 OFFCURVE",
"261 570 OFFCURVE",
"461 570 CURVE SMOOTH",
"545.118 570 OFFCURVE",
"619.044 554.319 OFFCURVE",
"680 526.43 CURVE",
"680 51.588 LINE",
"635.92 34.486 OFFCURVE",
"585.379 25 OFFCURVE",
"529 25 CURVE SMOOTH",
"289 25 OFFCURVE",
"120 145 OFFCURVE",
"120 325 CURVE SMOOTH"
);
}
);
width = 1421;
},
{
layerId = "1838EE49-6142-4994-A2D6-8A9E455BC2D6";
paths = (
{
closed = 1;
nodes = (
"30 103 OFFCURVE",
"82 -10 OFFCURVE",
"187 -10 CURVE SMOOTH",
"202 -10 OFFCURVE",
"217 -6 OFFCURVE",
"230 0 CURVE",
"512 0 LINE",
"497 210 LINE",
"493 208 LINE",
"462 30 LINE",
"310 21 LINE",
"310 284 LINE",
"432 276 LINE",
"432 311 LINE",
"310 304 LINE",
"310 579 LINE",
"462 570 LINE",
"486 402 LINE",
"490 400 LINE",
"514 610 LINE",
"427 600 LINE",
"238 600 LINE",
"226 606 OFFCURVE",
"213 610 OFFCURVE",
"199 610 CURVE SMOOTH",
"86 610 OFFCURVE",
"30 522 OFFCURVE",
"30 333 CURVE SMOOTH"
);
},
{
closed = 1;
nodes = (
"90 530 OFFCURVE",
"121 580 OFFCURVE",
"187 580 CURVE SMOOTH",
"215 580 OFFCURVE",
"238 561 OFFCURVE",
"255 530 CURVE",
"255 55 LINE",
"240 39 OFFCURVE",
"222 25 OFFCURVE",
"199 25 CURVE SMOOTH",
"125 25 OFFCURVE",
"90 130 OFFCURVE",
"90 391 CURVE SMOOTH"
);
}
);
width = 559;
},
{
layerId = "84B9B914-E755-4DFA-8752-0B6F9D0EEB02";
paths = (
{
closed = 1;
nodes = (
"30 101 OFFCURVE",
"82 -9 OFFCURVE",
"177 -9 CURVE SMOOTH",
"195 -9 OFFCURVE",
"212 -6 OFFCURVE",
"226 0 CURVE",
"509 0 LINE",
"494 193 LINE",
"490 191 LINE",
"465 15 LINE",
"278 10 LINE",
"278 286 LINE",
"422 280 LINE",
"422 303 LINE",
"278 296 LINE",
"278 588 LINE",
"459 582 LINE",
"477 415 LINE",
"481 413 LINE",
"499 610 LINE",
"418 600 LINE",
"235 600 LINE",
"218 609 OFFCURVE",
"199 614 OFFCURVE",
"177 614 CURVE SMOOTH",
"96 614 OFFCURVE",
"30 519 OFFCURVE",
"30 296 CURVE SMOOTH"
);
},
{
closed = 1;
nodes = (
"54 529 OFFCURVE",
"117 598 OFFCURVE",
"177 598 CURVE SMOOTH",
"210 598 OFFCURVE",
"238 580 OFFCURVE",
"258 543 CURVE",
"258 62 LINE",
"237 27 OFFCURVE",
"209 12 OFFCURVE",
"177 12 CURVE SMOOTH",
"102 12 OFFCURVE",
"54 109 OFFCURVE",
"54 354 CURVE SMOOTH"
);
}
);
width = 554;
},
{
layerId = "8D80EE76-87DD-4377-B1D9-DA40B71577EF";
paths = (
{
closed = 1;
nodes = (
"40 109 OFFCURVE",
"214 -18 OFFCURVE",
"459 -18 CURVE SMOOTH",
"512 -18 OFFCURVE",
"562 -12 OFFCURVE",
"608 0 CURVE",
"1336 0 LINE",
"1316 192 LINE",
"1310 190 LINE",
"1266 22 LINE",
"704 13 LINE",
"705 281 LINE",
"1005 274 LINE",
"1005 305 LINE",
"705 298 LINE",
"705 587 LINE",
"1275 580 LINE",
"1291 423 LINE",
"1298 421 LINE",
"1338 615 LINE",
"1048 600 LINE",
"637 600 LINE",
"589 615 OFFCURVE",
"536 622 OFFCURVE",
"478 622 CURVE SMOOTH",
"222 622 OFFCURVE",
"40 485 OFFCURVE",
"40 290 CURVE SMOOTH"
);
},
{
closed = 1;
nodes = (
"69 472 OFFCURVE",
"239 600 OFFCURVE",
"444 600 CURVE SMOOTH",
"534 600 OFFCURVE",
"611 589 OFFCURVE",
"680 557 CURVE",
"680 41 LINE",
"606 16 OFFCURVE",
"556 5 OFFCURVE",
"494 5 CURVE SMOOTH",
"261 5 OFFCURVE",
"69 127 OFFCURVE",
"69 316 CURVE SMOOTH"
);
}
);
width = 1398;
},
{
layerId = "D4C2733C-030D-4F32-9813-200DF8941BD6";
paths = (
{
closed = 1;
nodes = (
"34 107 OFFCURVE",
"143 -14 OFFCURVE",
"315 -14 CURVE SMOOTH",
"349 -14 OFFCURVE",
"381 -9 OFFCURVE",
"410 0 CURVE",
"867 0 LINE",
"850 214 LINE",
"845 212 LINE",
"804 36 LINE",
"501 25 LINE",
"501 281 LINE",
"699 273 LINE",
"699 314 LINE",
"501 306 LINE",
"501 575 LINE",
"813 566 LINE",
"837 402 LINE",
"842 400 LINE",
"877 612 LINE",
"699 600 LINE",
"413 600 LINE",
"388 608 OFFCURVE",
"360 612 OFFCURVE",
"330 612 CURVE SMOOTH",
"149 612 OFFCURVE",
"34 508 OFFCURVE",
"34 318 CURVE SMOOTH"
);
},
{
closed = 1;
nodes = (
"103 506 OFFCURVE",
"181 576 OFFCURVE",
"304 576 CURVE SMOOTH",
"356 576 OFFCURVE",
"401 558 OFFCURVE",
"437 528 CURVE",
"437 54 LINE",
"410 37 OFFCURVE",
"378 25 OFFCURVE",
"340 25 CURVE SMOOTH",
"195 25 OFFCURVE",
"103 136 OFFCURVE",
"103 363 CURVE SMOOTH"
);
}
);
width = 928;
}
);
leftMetricsKey = O;
rightMetricsKey = E;
},
{
color = 5;
glyphname = a;
lastChange = "2020-04-09 10:00:24 +0000";
layers = (
{
layerId = "0CCC0E2D-406A-4672-8E6C-854B1DF78A27";
paths = (
{
closed = 1;
nodes = (
"60 39 OFFCURVE",
"151 -15 OFFCURVE",
"295 -15 CURVE SMOOTH",
"389 -15 OFFCURVE",
"479 17 OFFCURVE",
"540 72 CURVE",
"553 -8 LINE",
"754 29 LINE",
"751 34 LINE",
"607 47 LINE",
"607 184 LINE SMOOTH",
"613 358 OFFCURVE",
"547 433 OFFCURVE",
"385 433 CURVE SMOOTH",
"284 433 OFFCURVE",
"193 407 OFFCURVE",
"75 344 CURVE",
"146 250 LINE",
"153 251 LINE",
"152 353 LINE",
"191 377 OFFCURVE",
"259 391 OFFCURVE",
"339 391 CURVE SMOOTH",
"480 391 OFFCURVE",
"536 337 OFFCURVE",
"540 196 CURVE",
"497 231 OFFCURVE",
"425 251 OFFCURVE",
"333 255 CURVE SMOOTH",
"178 262 OFFCURVE",
"60 205 OFFCURVE",
"60 124 CURVE SMOOTH"
);
},
{
closed = 1;
nodes = (
"140 187 OFFCURVE",
"199 220 OFFCURVE",
"310 220 CURVE SMOOTH",
"402 220 OFFCURVE",
"492 198 OFFCURVE",
"540 164 CURVE",
"540 103 LINE",
"477 47 OFFCURVE",
"405 20 OFFCURVE",
"317 20 CURVE SMOOTH",
"208 20 OFFCURVE",
"140 60 OFFCURVE",
"140 124 CURVE SMOOTH"
);
}
);
width = 754;
},
{
layerId = "1838EE49-6142-4994-A2D6-8A9E455BC2D6";
paths = (
{
closed = 1;
nodes = (
"30 33 OFFCURVE",
"72 -15 OFFCURVE",
"134 -15 CURVE SMOOTH",
"171 -15 OFFCURVE",
"207 9 OFFCURVE",
"225.722 46.163 CURVE",
"239 -6 LINE",
"363 18 LINE",
"365 22 LINE",
"275 30 LINE",
"275 224 LINE SMOOTH",
"275 378 OFFCURVE",
"260 409 OFFCURVE",
"187 409 CURVE SMOOTH",
"136 409 OFFCURVE",
"85 384 OFFCURVE",
"35 335 CURVE",
"80 249 LINE",
"84 251 LINE",
"76 346 LINE",
"105 367 OFFCURVE",
"137 378 OFFCURVE",
"166 378 CURVE SMOOTH",
"226 378 OFFCURVE",
"235 350 OFFCURVE",
"225 189.305 CURVE",
"204 215 OFFCURVE",
"174 230 OFFCURVE",
"144 230 CURVE SMOOTH",
"76 230 OFFCURVE",
"30 180 OFFCURVE",
"30 106 CURVE SMOOTH"
);
},
{
closed = 1;
nodes = (
"75 164 OFFCURVE",
"102 200 OFFCURVE",
"143 200 CURVE SMOOTH",
"170 200 OFFCURVE",
"201 188 OFFCURVE",
"225 168.121 CURVE",
"225 69.585 LINE",
"202 37 OFFCURVE",
"169 15 OFFCURVE",
"143 15 CURVE SMOOTH",
"102 15 OFFCURVE",
"75 53 OFFCURVE",
"75 109 CURVE SMOOTH"
);
}
);
width = 365;
},
{
associatedMasterId = "0CCC0E2D-406A-4672-8E6C-854B1DF78A27";
layerId = "3579564A-0441-4A8A-B195-9A8D515AF430";
name = "May 21 19, 15:50";
paths = (
{
closed = 1;
nodes = (
"60 43 OFFCURVE",
"143 -15 OFFCURVE",
"295 -15 CURVE SMOOTH",
"399 -15 OFFCURVE",
"486 22 OFFCURVE",
"541 72 CURVE",
"553 -8 LINE",
"754 29 LINE",
"751 34 LINE",
"604 47 LINE",
"609 184 LINE SMOOTH",
"609 347 OFFCURVE",
"548 430 OFFCURVE",
"385 430 CURVE SMOOTH",
"299 430 OFFCURVE",
"210 413 OFFCURVE",
"75 341 CURVE",
"146 247 LINE",
"153 248 LINE",
"152 350 LINE",
"189 373 OFFCURVE",
"254 388 OFFCURVE",
"339 388 CURVE SMOOTH",
"485 388 OFFCURVE",
"534.851 321.434 OFFCURVE",
"538.761 196.471 CURVE",
"490.434 232.274 OFFCURVE",
"417.071 251.222 OFFCURVE",
"333 255 CURVE SMOOTH",
"170 262 OFFCURVE",
"60 201 OFFCURVE",
"60 124 CURVE SMOOTH"
);
},
{
closed = 1;
nodes = (
"140 184 OFFCURVE",
"194 220 OFFCURVE",
"310 220 CURVE SMOOTH",
"406.669 220 OFFCURVE",
"492.769 197.098 OFFCURVE",
"539.363 163.694 CURVE",
"540.449 102.848 LINE",
"486.091 54.057 OFFCURVE",
"416.209 20 OFFCURVE",
"317 20 CURVE SMOOTH",
"194 20 OFFCURVE",
"140 68 OFFCURVE",
"140 124 CURVE SMOOTH"
);
}
);
width = 754;
},
{
layerId = "84B9B914-E755-4DFA-8752-0B6F9D0EEB02";
paths = (
{
closed = 1;
nodes = (
"25 33 OFFCURVE",
"76 -13 OFFCURVE",
"141 -13 CURVE SMOOTH",
"186 -13 OFFCURVE",
"239 14 OFFCURVE",
"253 46 CURVE",
"258 -6 LINE",
"364 20 LINE",
"366 26 LINE",
"272 34 LINE",
"272 224 LINE SMOOTH",
"272 377 OFFCURVE",
"259 410 OFFCURVE",
"184 409 CURVE SMOOTH",
"142 408 OFFCURVE",
"80 385 OFFCURVE",
"29 333 CURVE",
"84 247 LINE",
"88 249 LINE",
"74 347 LINE",
"107 375 OFFCURVE",
"145 392 OFFCURVE",
"177 392 CURVE SMOOTH",
"259 392 OFFCURVE",
"252 337 OFFCURVE",
"252 189 CURVE",
"234 209 OFFCURVE",
"184 228 OFFCURVE",
"148 228 CURVE SMOOTH",
"78 228 OFFCURVE",
"25 181 OFFCURVE",
"25 106 CURVE SMOOTH"
);
},
{
closed = 1;
nodes = (
"45 167 OFFCURVE",
"88 208 OFFCURVE",
"149 208 CURVE SMOOTH",
"188 208 OFFCURVE",
"230 194 OFFCURVE",
"252 175 CURVE",
"252 65 LINE",
"232 30 OFFCURVE",
"187 8 OFFCURVE",
"143 8 CURVE SMOOTH",
"86 8 OFFCURVE",
"45 49 OFFCURVE",
"45 109 CURVE SMOOTH"
);
}
);
width = 366;
},
{
layerId = "8D80EE76-87DD-4377-B1D9-DA40B71577EF";
paths = (
{
closed = 1;
nodes = (
"60 39 OFFCURVE",
"154 -15 OFFCURVE",
"300 -15 CURVE SMOOTH",
"405 -15 OFFCURVE",
"522 23 OFFCURVE",
"572 72 CURVE",
"576 -8 LINE",
"749 29 LINE",
"746 34 LINE",
"595 47 LINE",
"597 184 LINE SMOOTH",
"600 356 OFFCURVE",
"530 434 OFFCURVE",
"374 433 CURVE SMOOTH",
"283 434 OFFCURVE",
"203 410 OFFCURVE",
"75 341 CURVE",
"146 247 LINE",
"153 248 LINE",
"143 356 LINE",
"197 389 OFFCURVE",
"285 414 OFFCURVE",
"350 413 CURVE SMOOTH",
"501 414 OFFCURVE",
"573 343 OFFCURVE",
"572 196 CURVE",
"535 227 OFFCURVE",
"425 253 OFFCURVE",
"328 253 CURVE SMOOTH",
"168 254 OFFCURVE",
"60 202 OFFCURVE",
"60 124 CURVE SMOOTH"
);
},
{
closed = 1;
nodes = (
"89 187 OFFCURVE",
"182 232 OFFCURVE",
"315 232 CURVE SMOOTH",
"416 232 OFFCURVE",
"534 206 OFFCURVE",
"572 175 CURVE",
"572 96 LINE",
"521 45 OFFCURVE",
"409 6 OFFCURVE",
"312 6 CURVE SMOOTH",
"179 6 OFFCURVE",
"89 54 OFFCURVE",
"89 124 CURVE SMOOTH"
);
}
);
width = 754;
},
{
layerId = "D4C2733C-030D-4F32-9813-200DF8941BD6";
paths = (
{
closed = 1;
nodes = (
"43 36 OFFCURVE",
"106 -15 OFFCURVE",
"203 -15 CURVE SMOOTH",
"264 -15 OFFCURVE",
"324 12 OFFCURVE",
"360 57 CURVE",
"374 -7 LINE",
"531 23 LINE",
"530 27 LINE",
"417 37 LINE",
"417 207 LINE SMOOTH",
"420 369 OFFCURVE",
"383 419 OFFCURVE",
"272 419 CURVE SMOOTH",
"199 419 OFFCURVE",
"131 394 OFFCURVE",
"52 339 CURVE",
"108 249 LINE",
"114 251 LINE",
"109 349 LINE",
"142 371 OFFCURVE",
"189 384 OFFCURVE",
"240 384 CURVE SMOOTH",
"335 384 OFFCURVE",
"364 344 OFFCURVE",
"360 192 CURVE",
"330 222 OFFCURVE",
"282 239 OFFCURVE",
"225 241 CURVE SMOOTH",
"120 244 OFFCURVE",
"43 191 OFFCURVE",
"43 114 CURVE SMOOTH"
);
},
{
closed = 1;
nodes = (
"103 174 OFFCURVE",
"144 209 OFFCURVE",
"215 209 CURVE SMOOTH",
"269 209 OFFCURVE",
"326 192 OFFCURVE",
"360 166 CURVE",
"360 84 LINE",
"320 41 OFFCURVE",
"270 17 OFFCURVE",
"218 17 CURVE SMOOTH",
"147 17 OFFCURVE",
"103 56 OFFCURVE",
"103 115 CURVE SMOOTH"
);
}
);
width = 532;
}
);
unicode = 0061;
},
{
color = 3;
glyphname = ae;
lastChange = "2020-04-09 10:00:24 +0000";
layers = (
{
layerId = "0CCC0E2D-406A-4672-8E6C-854B1DF78A27";
paths = (
{
closed = 1;
nodes = (
"60 43 OFFCURVE",
"152 -20 OFFCURVE",
"305 -20 CURVE SMOOTH",
"419 -20 OFFCURVE",
"515 9 OFFCURVE",
"571 109 CURVE",
"616 24 OFFCURVE",
"723 -20 OFFCURVE",
"833 -20 CURVE SMOOTH",
"962 -20 OFFCURVE",
"1050 33 OFFCURVE",
"1133 118 CURVE",
"1118 126 LINE",
"1044 56 OFFCURVE",
"962 30 OFFCURVE",
"870 30 CURVE SMOOTH",
"752.741 30 OFFCURVE",
"624.751 83.654 OFFCURVE",
"611.182 202.8 CURVE",
"1128 196 LINE",
"1126 334 OFFCURVE",
"1018 430 OFFCURVE",
"857 430 CURVE SMOOTH",
"741 430 OFFCURVE",
"648 388 OFFCURVE",
"596 324 CURVE",
"565 394 OFFCURVE",
"502 430 OFFCURVE",
"395 430 CURVE SMOOTH",
"309 430 OFFCURVE",
"217 402 OFFCURVE",
"75 341 CURVE",
"146 247 LINE",
"153 248 LINE",
"151 340 LINE",
"188 363 OFFCURVE",
"264 388 OFFCURVE",
"349 388 CURVE SMOOTH",
"483 388 OFFCURVE",
"537 334 OFFCURVE",
"549 229 CURVE",
"493 239 OFFCURVE",
"428 251 OFFCURVE",
"343 255 CURVE SMOOTH",
"170 262 OFFCURVE",
"60 201 OFFCURVE",
"60 124 CURVE SMOOTH"
);
},
{
closed = 1;
nodes = (
"140 184 OFFCURVE",
"204 220 OFFCURVE",
"320 220 CURVE SMOOTH",
"418 220 OFFCURVE",
"497 212 OFFCURVE",
"550 205 CURVE",
"549 170 OFFCURVE",
"548 136 OFFCURVE",
"532 110 CURVE SMOOTH",
"496 51 OFFCURVE",
"414 20 OFFCURVE",
"327 20 CURVE SMOOTH",
"204 20 OFFCURVE",
"140 68 OFFCURVE",
"140 124 CURVE SMOOTH"
);
},
{
closed = 1;
nodes = (
"611.134 321.856 OFFCURVE",
"709.653 396 OFFCURVE",
"823 396 CURVE SMOOTH",
"956.972 396 OFFCURVE",
"1038.04 325.46 OFFCURVE",
"1058.146 245.476 CURVE",
"610.01 225.664 LINE"
);
}
);
width = 1193;
},
{
layerId = "1838EE49-6142-4994-A2D6-8A9E455BC2D6";
paths = (
{
closed = 1;
nodes = (
"30 33 OFFCURVE",
"72 -15 OFFCURVE",
"134 -15 CURVE SMOOTH",
"188 -15 OFFCURVE",
"225 13 OFFCURVE",
"247 69 CURVE",
"270 18 OFFCURVE",
"306 -10 OFFCURVE",
"348 -10 CURVE SMOOTH",
"415 -10 OFFCURVE",
"463 45 OFFCURVE",
"473 135 CURVE",
"462 139 LINE",
"452 73 OFFCURVE",
"413 26 OFFCURVE",
"369 26 CURVE SMOOTH",
"313 26 OFFCURVE",
"281 85 OFFCURVE",
"276.537 195 CURVE",
"479 195 LINE",
"477 335 OFFCURVE",
"434 410 OFFCURVE",
"355 410 CURVE SMOOTH",
"314 410 OFFCURVE",
"283 393 OFFCURVE",
"261 358 CURVE",
"249 394 OFFCURVE",
"227 410 OFFCURVE",
"187 410 CURVE SMOOTH",
"135 410 OFFCURVE",
"85 382 OFFCURVE",
"35 325 CURVE",
"80 249 LINE",
"84 251 LINE",
"76 336 LINE",
"105 364 OFFCURVE",
"136 379 OFFCURVE",
"166 379 CURVE SMOOTH",
"215 379 OFFCURVE",
"225 349 OFFCURVE",
"224 211 CURVE",
"204 226 OFFCURVE",
"175 235 OFFCURVE",
"144 235 CURVE SMOOTH",
"77 235 OFFCURVE",
"30 181 OFFCURVE",
"30 106 CURVE SMOOTH"
);
},
{
closed = 1;
nodes = (
"75 167 OFFCURVE",
"106 213 OFFCURVE",
"145 213 CURVE SMOOTH",
"170 213 OFFCURVE",
"199 205 OFFCURVE",
"224 186 CURVE",
"224 147 OFFCURVE",
"230 132 OFFCURVE",
"222 89 CURVE SMOOTH",
"214 40 OFFCURVE",
"190 15 OFFCURVE",
"153 15 CURVE SMOOTH",
"104 15 OFFCURVE",
"75 50 OFFCURVE",
"75 109 CURVE SMOOTH"
);
},
{
closed = 1;
nodes = (
"276 352 OFFCURVE",
"290 391 OFFCURVE",
"341 391 CURVE SMOOTH",
"392 391 OFFCURVE",
"429 320 OFFCURVE",
"429.971 217.963 CURVE",
"276.134 209.502 LINE"
);
}
);
width = 529;
},
{
layerId = "84B9B914-E755-4DFA-8752-0B6F9D0EEB02";
paths = (
{
closed = 1;
nodes = (
"25 36 OFFCURVE",
"73 -13 OFFCURVE",
"141 -13 CURVE SMOOTH",
"210 -13 OFFCURVE",
"256 26 OFFCURVE",
"263 91 CURVE",
"273 28 OFFCURVE",
"311 -10 OFFCURVE",
"361 -10 CURVE SMOOTH",
"426 -10 OFFCURVE",
"464 36 OFFCURVE",
"479 131 CURVE",
"468 136 LINE",
"457 56 OFFCURVE",
"417 4 OFFCURVE",
"366 5 CURVE SMOOTH",
"307 6 OFFCURVE",
"277 68 OFFCURVE",
"271 199 CURVE",
"485 199 LINE",
"484 336 OFFCURVE",
"443 410 OFFCURVE",
"368 410 CURVE SMOOTH",
"313 410 OFFCURVE",
"281 378 OFFCURVE",
"265 301 CURVE",
"260 388 OFFCURVE",
"243 410 OFFCURVE",
"184 409 CURVE SMOOTH",
"134 408 OFFCURVE",
"73 378 OFFCURVE",
"29 333 CURVE",
"84 247 LINE",
"88 249 LINE",
"74 347 LINE",
"107 375 OFFCURVE",
"145 392 OFFCURVE",
"177 392 CURVE SMOOTH",
"246 392 OFFCURVE",
"252 374 OFFCURVE",
"252 189 CURVE",
"234 209 OFFCURVE",
"184 228 OFFCURVE",
"148 228 CURVE SMOOTH",
"75 228 OFFCURVE",
"25 178 OFFCURVE",
"25 106 CURVE SMOOTH"
);
},
{
closed = 1;
nodes = (
"45 167 OFFCURVE",
"88 208 OFFCURVE",
"149 208 CURVE SMOOTH",
"187 208 OFFCURVE",
"229 194 OFFCURVE",
"252 175 CURVE",
"252 132 OFFCURVE",
"251 118 OFFCURVE",
"249 101 CURVE SMOOTH",
"241 43 OFFCURVE",
"201 8 OFFCURVE",
"143 8 CURVE SMOOTH",
"85 8 OFFCURVE",
"45 50 OFFCURVE",
"45 109 CURVE SMOOTH"
);
},
{
closed = 1;
nodes = (
"270 323 OFFCURVE",
"306 395 OFFCURVE",
"366 395 CURVE SMOOTH",
"422 395 OFFCURVE",
"456 334 OFFCURVE",
"461 217 CURVE",
"271 211 LINE"
);
}
);
width = 535;
},
{
layerId = "8D80EE76-87DD-4377-B1D9-DA40B71577EF";
paths = (
{
closed = 1;
nodes = (
"60 39 OFFCURVE",
"154 -27 OFFCURVE",
"300 -27 CURVE SMOOTH",
"490 -27 OFFCURVE",
"569 48 OFFCURVE",
"589 125 CURVE",
"623 35 OFFCURVE",
"720 -20 OFFCURVE",
"839 -20 CURVE SMOOTH",
"962 -20 OFFCURVE",
"1047 17 OFFCURVE",
"1135 105 CURVE",
"1124 115 LINE",
"1041 36 OFFCURVE",
"964 2 OFFCURVE",
"864 2 CURVE SMOOTH",
"711 2 OFFCURVE",
"605 77 OFFCURVE",
"600 194 CURVE",
"1126 187 LINE",
"1124 333 OFFCURVE",
"1020 436 OFFCURVE",
"863 436 CURVE SMOOTH",
"736 436 OFFCURVE",
"642 388 OFFCURVE",
"591 276 CURVE",
"570 383 OFFCURVE",
"500 434 OFFCURVE",
"375 433 CURVE SMOOTH",
"284 434 OFFCURVE",
"204 409 OFFCURVE",
"75 341 CURVE",
"146 247 LINE",
"153 248 LINE",
"143 355 LINE",
"197 389 OFFCURVE",
"286 414 OFFCURVE",
"351 413 CURVE SMOOTH",
"499 414 OFFCURVE",
"575 345 OFFCURVE",
"576 211 CURVE",
"542 226 OFFCURVE",
"403 242 OFFCURVE",
"329 242 CURVE SMOOTH",
"169 243 OFFCURVE",
"60 203 OFFCURVE",
"60 124 CURVE SMOOTH"
);
},
{
closed = 1;
nodes = (
"89 189 OFFCURVE",
"186 221 OFFCURVE",
"315 221 CURVE SMOOTH",
"394 221 OFFCURVE",
"539 207 OFFCURVE",
"577 191 CURVE",
"577 188 OFFCURVE",
"578 148 OFFCURVE",
"565 115 CURVE SMOOTH",
"543 56 OFFCURVE",
"457 -6 OFFCURVE",
"313 -6 CURVE SMOOTH",
"179 -6 OFFCURVE",
"89 54 OFFCURVE",
"89 124 CURVE SMOOTH"
);
},
{
closed = 1;
nodes = (
"601 318 OFFCURVE",
"718 417 OFFCURVE",
"846 417 CURVE SMOOTH",
"995 417 OFFCURVE",
"1080 343 OFFCURVE",
"1093 214 CURVE",
"601 209 LINE"
);
}
);
width = 1195;
},
{
layerId = "D4C2733C-030D-4F32-9813-200DF8941BD6";
paths = (
{
closed = 1;
nodes = (
"43 37 OFFCURVE",
"106 -17 OFFCURVE",
"207 -17 CURVE SMOOTH",
"287 -17 OFFCURVE",
"349 11 OFFCURVE",
"386 86 CURVE",
"418 21 OFFCURVE",
"485 -14 OFFCURVE",
"556 -14 CURVE SMOOTH",
"649 -14 OFFCURVE",
"715 40 OFFCURVE",
"756 128 CURVE",
"743 133 LINE",
"706 66 OFFCURVE",
"648 28 OFFCURVE",
"584 28 CURVE SMOOTH",
"501 28 OFFCURVE",
"428 84 OFFCURVE",
"420 198 CURVE",
"757 195 LINE",
"755 335 OFFCURVE",
"684 419 OFFCURVE",
"570 419 CURVE SMOOTH",
"497 419 OFFCURVE",
"439 391 OFFCURVE",
"405 343 CURVE",
"384 394 OFFCURVE",
"345 419 OFFCURVE",
"276 419 CURVE SMOOTH",
"210 419 OFFCURVE",
"142 391 OFFCURVE",
"52 332 CURVE",
"108 248 LINE",
"114 250 LINE",
"108 338 LINE",
"141 364 OFFCURVE",
"191 383 OFFCURVE",
"244 383 CURVE SMOOTH",
"330 383 OFFCURVE",
"359 343 OFFCURVE",
"363 219 CURVE",
"328 232 OFFCURVE",
"283 242 OFFCURVE",
"229 244 CURVE SMOOTH",
"117 247 OFFCURVE",
"43 190 OFFCURVE",
"43 114 CURVE SMOOTH"
);
},
{
closed = 1;
nodes = (
"103 174 OFFCURVE",
"148 216 OFFCURVE",
"220 216 CURVE SMOOTH",
"276 216 OFFCURVE",
"327 208 OFFCURVE",
"364 194 CURVE",
"363 157 OFFCURVE",
"366 134 OFFCURVE",
"355 98 CURVE SMOOTH",
"335 45 OFFCURVE",
"286 17 OFFCURVE",
"228 17 CURVE SMOOTH",
"147 17 OFFCURVE",
"103 58 OFFCURVE",
"103 115 CURVE SMOOTH"
);
},
{
closed = 1;
nodes = (
"420 339 OFFCURVE",
"470 393 OFFCURVE",
"548 393 CURVE SMOOTH",
"634 393 OFFCURVE",
"690 322 OFFCURVE",
"699 230 CURVE",
"419 216 LINE"
);
}
);
width = 814;
}
);
leftMetricsKey = a;
rightMetricsKey = e;
unicode = 00E6;
},
{
color = 3;
glyphname = b;
lastChange = "2020-04-09 10:00:24 +0000";
layers = (
{
layerId = "0CCC0E2D-406A-4672-8E6C-854B1DF78A27";
paths = (
{
closed = 1;
nodes = (
"-43 613 LINE",
"105 618 LINE",
"105 105 LINE",
"64 -12 LINE",
"68 -15 LINE",
"154.022 45.606 LINE",
"215 5 OFFCURVE",
"283 -14 OFFCURVE",
"369 -14 CURVE SMOOTH",
"566 -14 OFFCURVE",
"707 85 OFFCURVE",
"707 223 CURVE SMOOTH",
"707 341 OFFCURVE",
"599 425 OFFCURVE",
"447 425 CURVE SMOOTH",
"351 425 OFFCURVE",
"251 390 OFFCURVE",
"175 330.914 CURVE",
"175 638 LINE",
"184 688 LINE",
"-45 618 LINE"
);
},
{
closed = 1;
nodes = (
"175 285.941 LINE",
"240 349 OFFCURVE",
"323 382 OFFCURVE",
"416 382 CURVE SMOOTH",
"553 382 OFFCURVE",
"637 312 OFFCURVE",
"637 198 CURVE SMOOTH",
"637 89 OFFCURVE",
"546 19 OFFCURVE",
"406 19 CURVE SMOOTH",
"313 19 OFFCURVE",
"228 52 OFFCURVE",
"175 108 CURVE"
);
}
);
width = 747;
},
{
layerId = "1838EE49-6142-4994-A2D6-8A9E455BC2D6";
paths = (
{
closed = 1;
nodes = (
"-27 656 LINE",
"60 653 LINE",
"60 96 LINE",
"48 0 LINE",
"52 -5 LINE",
"91 54 LINE",
"104 20 OFFCURVE",
"145 -8 OFFCURVE",
"185 -8 CURVE SMOOTH",
"266 -8 OFFCURVE",
"330 92 OFFCURVE",
"330 233 CURVE SMOOTH",
"330 341 OFFCURVE",
"276 417 OFFCURVE",
"196 417 CURVE SMOOTH",
"164 417 OFFCURVE",
"135 395 OFFCURVE",
"111 359 CURVE",
"110 674 LINE",
"117 700 LINE",
"-30 658 LINE"
);
},
{
closed = 1;
nodes = (
"111 288 LINE",
"115 349 OFFCURVE",
"145 392 OFFCURVE",
"187 391 CURVE SMOOTH",
"241 390 OFFCURVE",
"276 330 OFFCURVE",
"276 210 CURVE SMOOTH",
"276 110 OFFCURVE",
"276 18 OFFCURVE",
"193 18 CURVE SMOOTH",
"139 18 OFFCURVE",
"112 81 OFFCURVE",
"112 131 CURVE"
);
}
);
width = 380;
},
{
layerId = "84B9B914-E755-4DFA-8752-0B6F9D0EEB02";
paths = (
{
closed = 1;
nodes = (
"-28 642 LINE",
"60 649 LINE",
"60 104 LINE",
"28 0 LINE",
"34 -2 LINE",
"81 56 LINE",
"92 35 OFFCURVE",
"126 -3 OFFCURVE",
"172 -3 CURVE SMOOTH",
"251 -3 OFFCURVE",
"296 96 OFFCURVE",
"296 233 CURVE SMOOTH",
"296 337 OFFCURVE",
"240 410 OFFCURVE",
"167 410 CURVE SMOOTH",
"132 410 OFFCURVE",
"104 388 OFFCURVE",
"80 346 CURVE",
"80 665 LINE",
"87 700 LINE",
"-30 648 LINE"
);
},
{
closed = 1;
nodes = (
"80 288 LINE",
"81 352 OFFCURVE",
"129 393 OFFCURVE",
"167 393 CURVE SMOOTH",
"216 393 OFFCURVE",
"276 336 OFFCURVE",
"276 217 CURVE SMOOTH",
"276 111 OFFCURVE",
"241 14 OFFCURVE",
"170 14 CURVE SMOOTH",
"113 14 OFFCURVE",
"81 79 OFFCURVE",
"80 130 CURVE"
);
}
);
width = 346;
},
{
layerId = "8D80EE76-87DD-4377-B1D9-DA40B71577EF";
paths = (
{
closed = 1;
nodes = (
"-43 622 LINE",
"105 627 LINE",
"105 102 LINE",
"55 -12 LINE",
"59 -15 LINE",
"143 64 LINE",
"192 23 OFFCURVE",
"277 -7 OFFCURVE",
"352 -7 CURVE SMOOTH",
"536 -7 OFFCURVE",
"661 86 OFFCURVE",
"661 223 CURVE SMOOTH",
"661 335 OFFCURVE",
"551 418 OFFCURVE",
"401 418 CURVE SMOOTH",
"307 418 OFFCURVE",
"200 375 OFFCURVE",
"129 310 CURVE",
"129 638 LINE",
"138 688 LINE",
"-45 627 LINE"
);
},
{
closed = 1;
nodes = (
"129 287 LINE",
"188 352 OFFCURVE",
"295 396 OFFCURVE",
"392 396 CURVE SMOOTH",
"536 396 OFFCURVE",
"637 319 OFFCURVE",
"637 209 CURVE SMOOTH",
"637 95 OFFCURVE",
"528 15 OFFCURVE",
"369 15 CURVE SMOOTH",
"272 15 OFFCURVE",
"184 49 OFFCURVE",
"129 107 CURVE"
);
}
);
width = 701;
},
{
layerId = "D4C2733C-030D-4F32-9813-200DF8941BD6";
paths = (
{
closed = 1;
nodes = (
"-34 638 LINE",
"79 638 LINE",
"79 100 LINE",
"55 -5 LINE",
"59 -9 LINE",
"118 50 LINE",
"152 14 OFFCURVE",
"204 -11 OFFCURVE",
"264 -11 CURVE SMOOTH",
"395 -11 OFFCURVE",
"492 89 OFFCURVE",
"492 229 CURVE SMOOTH",
"492 341 OFFCURVE",
"414 420 OFFCURVE",
"304 420 CURVE SMOOTH",
"244 420 OFFCURVE",
"185 393 OFFCURVE",
"138 347 CURVE",
"138 659 LINE",
"146 695 LINE",
"-36 641 LINE"
);
},
{
closed = 1;
nodes = (
"138 287 LINE",
"169 349 OFFCURVE",
"221 388 OFFCURVE",
"285 387 CURVE SMOOTH",
"375 387 OFFCURVE",
"431 322 OFFCURVE",
"431 205 CURVE SMOOTH",
"431 101 OFFCURVE",
"392 18 OFFCURVE",
"284 18 CURVE SMOOTH",
"214 18 OFFCURVE",
"162 69 OFFCURVE",
"139 121 CURVE"
);
}
);
width = 537;
}
);
unicode = 0062;
},
{
color = 3;
glyphname = c;
lastChange = "2020-04-09 10:00:24 +0000";
layers = (
{
layerId = "1838EE49-6142-4994-A2D6-8A9E455BC2D6";
paths = (
{
closed = 1;
nodes = (
"20 85 OFFCURVE",
"58 -10 OFFCURVE",
"144 -10 CURVE SMOOTH",
"218 -10 OFFCURVE",
"257 54 OFFCURVE",
"266 135 CURVE",
"255 139 LINE",
"245 74 OFFCURVE",
"210 26 OFFCURVE",
"165 26 CURVE SMOOTH",
"72 26 OFFCURVE",
"70 149 OFFCURVE",
"72 225 CURVE SMOOTH",
"73 329 OFFCURVE",
"96 393 OFFCURVE",
"138 395 CURVE SMOOTH",
"192 397 OFFCURVE",
"222 356 OFFCURVE",
"222 356 CURVE",
"219 264 LINE",
"223 262 LINE",
"264 359 LINE",
"231 388 OFFCURVE",
"201 415 OFFCURVE",
"148 413 CURVE SMOOTH",
"58 409 OFFCURVE",
"20 304 OFFCURVE",
"20 185 CURVE SMOOTH"
);
}
);
width = 306;
},
{
associatedMasterId = "1838EE49-6142-4994-A2D6-8A9E455BC2D6";
layerId = "BD9D3B18-9DF8-428F-B157-00C73349A679";
name = "Mar 16 18, 15:18";
paths = (
{
closed = 1;
nodes = (
"15 85 OFFCURVE",
"53 -10 OFFCURVE",
"139 -10 CURVE SMOOTH",
"213 -10 OFFCURVE",
"250 54 OFFCURVE",
"259 135 CURVE",
"248 139 LINE",
"238 74 OFFCURVE",
"205 26 OFFCURVE",
"160 26 CURVE SMOOTH",
"67 26 OFFCURVE",
"67 149 OFFCURVE",
"67 225 CURVE SMOOTH",
"67 319 OFFCURVE",
"106 374 OFFCURVE",
"142 374 CURVE SMOOTH",
"162 374 OFFCURVE",
"202 372 OFFCURVE",
"241 335 CURVE",
"256 341 LINE",
"236 371 OFFCURVE",
"203 410 OFFCURVE",
"146 410 CURVE SMOOTH",
"64 410 OFFCURVE",
"15 326 OFFCURVE",
"15 185 CURVE SMOOTH"
);
},
{
closed = 1;
nodes = (
"207 267 LINE",
"211 265 LINE",
"256 341 LINE",
"215 357 LINE"
);
}
);
width = 280;
},
{
associatedMasterId = "0CCC0E2D-406A-4672-8E6C-854B1DF78A27";
layerId = "8B00297B-E234-4E90-9934-A60BC44EF575";
name = "Extended Mar 20 18, 21:46";
paths = (
{
closed = 1;
nodes = (
"45 46 OFFCURVE",
"184 -20 OFFCURVE",
"328 -20 CURVE SMOOTH",
"457 -20 OFFCURVE",
"555 33 OFFCURVE",
"638 118 CURVE",
"623 126 LINE",
"549 56 OFFCURVE",
"457 33 OFFCURVE",
"365 33 CURVE SMOOTH",
"241 33 OFFCURVE",
"110 80 OFFCURVE",
"110 214 CURVE SMOOTH",
"110 319 OFFCURVE",
"200 392 OFFCURVE",
"328 392 CURVE SMOOTH",
"431 392 OFFCURVE",
"507 376 OFFCURVE",
"564 339 CURVE",
"572 210 LINE",
"578 208 LINE",
"638 301 LINE",
"575 381 OFFCURVE",
"468 429 OFFCURVE",
"349 429 CURVE SMOOTH",
"167 429 OFFCURVE",
"45 324 OFFCURVE",
"45 188 CURVE SMOOTH"
);
}
);
width = 693;
},
{
layerId = "0CCC0E2D-406A-4672-8E6C-854B1DF78A27";
paths = (
{
closed = 1;
nodes = (
"40 63 OFFCURVE",
"149 -20 OFFCURVE",
"313 -20 CURVE SMOOTH",
"435 -20 OFFCURVE",
"544 27 OFFCURVE",
"633 118 CURVE",
"618 126 LINE",
"555 66 OFFCURVE",
"460 33 OFFCURVE",
"350 33 CURVE SMOOTH",
"199 33 OFFCURVE",
"110 100 OFFCURVE",
"110 214 CURVE SMOOTH",
"110 330 OFFCURVE",
"194 406 OFFCURVE",
"323 406 CURVE SMOOTH",
"391 406 OFFCURVE",
"470 385 OFFCURVE",
"551 346 CURVE",
"551 233 LINE",
"557 231 LINE",
"628 343 LINE",
"527 409 OFFCURVE",
"435 440 OFFCURVE",
"344 440 CURVE SMOOTH",
"175 440 OFFCURVE",
"40 328 OFFCURVE",
"40 188 CURVE SMOOTH"
);
}
);
width = 688;
},
{
associatedMasterId = "0CCC0E2D-406A-4672-8E6C-854B1DF78A27";
layerId = "479A52C6-86C9-4DC5-AAC0-4B8766D458B2";
name = "Mar 20 18, 23:42";
paths = (
{
closed = 1;
nodes = (
"45 46 OFFCURVE",
"184 -20 OFFCURVE",
"328 -20 CURVE SMOOTH",
"457 -20 OFFCURVE",
"555 33 OFFCURVE",
"638 118 CURVE",
"623 126 LINE",
"549 56 OFFCURVE",
"457 33 OFFCURVE",
"365 33 CURVE SMOOTH",
"241 33 OFFCURVE",
"110 80 OFFCURVE",
"110 214 CURVE SMOOTH",
"110 311 OFFCURVE",
"200 392 OFFCURVE",
"328 392 CURVE SMOOTH",
"431 392 OFFCURVE",
"499 373 OFFCURVE",
"556 336 CURVE",
"564 207 LINE",
"570 205 LINE",
"630 298 LINE",
"567 378 OFFCURVE",
"468 429 OFFCURVE",
"349 429 CURVE SMOOTH",
"167 429 OFFCURVE",
"45 316 OFFCURVE",
"45 188 CURVE SMOOTH"
);
}
);
width = 693;
},
{
associatedMasterId = "FC46D930-83A8-41E8-A9CB-C8AD47DCDD9D";
layerId = "8EDA96E6-9BFB-49F2-9BD6-63CA0E1DC036";
name = "Extended Mar 20 18, 21:46";
paths = (
{
closed = 1;
nodes = (
"45 46 OFFCURVE",
"184 -20 OFFCURVE",
"328 -20 CURVE SMOOTH",
"457 -20 OFFCURVE",
"555 33 OFFCURVE",
"638 118 CURVE",
"623 126 LINE",
"549 56 OFFCURVE",
"457 33 OFFCURVE",
"365 33 CURVE SMOOTH",
"241 33 OFFCURVE",
"110 80 OFFCURVE",
"110 214 CURVE SMOOTH",
"110 319 OFFCURVE",
"200 392 OFFCURVE",
"328 392 CURVE SMOOTH",
"431 392 OFFCURVE",
"507 376 OFFCURVE",
"564 339 CURVE",
"572 210 LINE",
"578 208 LINE",
"638 301 LINE",
"575 381 OFFCURVE",
"468 429 OFFCURVE",
"349 429 CURVE SMOOTH",
"167 429 OFFCURVE",
"45 324 OFFCURVE",
"45 188 CURVE SMOOTH"
);
}
);
width = 693;
},
{
associatedMasterId = "FC46D930-83A8-41E8-A9CB-C8AD47DCDD9D";
layerId = "77F61E27-ECBC-4D1B-9E52-1C251CFB6976";
name = "Mar 20 18, 23:42";
paths = (
{
closed = 1;
nodes = (
"45 46 OFFCURVE",
"184 -20 OFFCURVE",
"328 -20 CURVE SMOOTH",
"457 -20 OFFCURVE",
"555 33 OFFCURVE",
"638 118 CURVE",
"623 126 LINE",
"549 56 OFFCURVE",
"457 33 OFFCURVE",
"365 33 CURVE SMOOTH",
"241 33 OFFCURVE",
"110 80 OFFCURVE",
"110 214 CURVE SMOOTH",
"110 311 OFFCURVE",
"200 392 OFFCURVE",
"328 392 CURVE SMOOTH",
"431 392 OFFCURVE",
"499 373 OFFCURVE",
"556 336 CURVE",
"564 207 LINE",
"570 205 LINE",
"630 298 LINE",
"567 378 OFFCURVE",
"468 429 OFFCURVE",
"349 429 CURVE SMOOTH",
"167 429 OFFCURVE",
"45 316 OFFCURVE",
"45 188 CURVE SMOOTH"
);
}
);
width = 693;
},
{
associatedMasterId = "0CCC0E2D-406A-4672-8E6C-854B1DF78A27";
layerId = "C823A7B7-AF29-4986-A661-9B9EDB34FD5A";
name = "Mar 16 18, 15:18";
paths = (
{
closed = 1;
nodes = (
"15 85 OFFCURVE",
"53 -10 OFFCURVE",
"139 -10 CURVE SMOOTH",
"213 -10 OFFCURVE",
"250 54 OFFCURVE",
"259 135 CURVE",
"248 139 LINE",
"238 74 OFFCURVE",
"205 26 OFFCURVE",
"160 26 CURVE SMOOTH",
"67 26 OFFCURVE",
"67 149 OFFCURVE",
"67 225 CURVE SMOOTH",
"67 319 OFFCURVE",
"106 374 OFFCURVE",
"142 374 CURVE SMOOTH",
"162 374 OFFCURVE",
"202 372 OFFCURVE",
"241 335 CURVE",
"256 341 LINE",
"236 371 OFFCURVE",
"203 410 OFFCURVE",
"146 410 CURVE SMOOTH",
"64 410 OFFCURVE",
"15 326 OFFCURVE",
"15 185 CURVE SMOOTH"
);
},
{
closed = 1;
nodes = (
"207 267 LINE",
"211 265 LINE",
"256 341 LINE",
"215 357 LINE"
);
}
);
width = 280;
},
{
layerId = "84B9B914-E755-4DFA-8752-0B6F9D0EEB02";
paths = (
{
closed = 1;
nodes = (
"20 85 OFFCURVE",
"60 -10 OFFCURVE",
"141 -10 CURVE SMOOTH",
"223 -10 OFFCURVE",
"242 86 OFFCURVE",
"248 107 CURVE",
"242 109 LINE",
"231 87 OFFCURVE",
"211 7 OFFCURVE",
"149 7 CURVE SMOOTH",
"64 7 OFFCURVE",
"43 136 OFFCURVE",
"43 219 CURVE SMOOTH",
"43 320 OFFCURVE",
"74 391 OFFCURVE",
"133 391 CURVE SMOOTH",
"156 391 OFFCURVE",
"186 380 OFFCURVE",
"201 359 CURVE",
"189 257 LINE",
"195 255 LINE",
"246 343 LINE",
"222 378 OFFCURVE",
"185 408 OFFCURVE",
"141 408 CURVE SMOOTH",
"67 408 OFFCURVE",
"20 330 OFFCURVE",
"20 191 CURVE SMOOTH"
);
}
);
width = 288;
},
{
associatedMasterId = "1838EE49-6142-4994-A2D6-8A9E455BC2D6";
layerId = "149677BD-98B0-4D6B-91FB-A75172C97784";
name = "Oct 3 19, 14:55";
paths = (
{
closed = 1;
nodes = (
"20 85 OFFCURVE",
"58 -10 OFFCURVE",
"144 -10 CURVE SMOOTH",
"218 -10 OFFCURVE",
"255 54 OFFCURVE",
"264 135 CURVE",
"253 139 LINE",
"243 74 OFFCURVE",
"210 26 OFFCURVE",
"165 26 CURVE SMOOTH",
"72 26 OFFCURVE",
"72 149 OFFCURVE",
"72 225 CURVE SMOOTH",
"72 319 OFFCURVE",
"84 385 OFFCURVE",
"144 385 CURVE SMOOTH",
"175 385 OFFCURVE",
"199 369 OFFCURVE",
"220 331 CURVE",
"212 237 LINE",
"216 235 LINE",
"261 331 LINE",
"241 361 OFFCURVE",
"208 414 OFFCURVE",
"151 414 CURVE SMOOTH",
"69 414 OFFCURVE",
"20 326 OFFCURVE",
"20 185 CURVE SMOOTH"
);
}
);
width = 304;
},
{
layerId = "8D80EE76-87DD-4377-B1D9-DA40B71577EF";
paths = (
{
closed = 1;
nodes = (
"40 71 OFFCURVE",
"154 -20 OFFCURVE",
"308 -20 CURVE SMOOTH",
"434 -20 OFFCURVE",
"526 19 OFFCURVE",
"612 106 CURVE",
"602 115 LINE",
"521 38 OFFCURVE",
"436 3 OFFCURVE",
"334 3 CURVE SMOOTH",
"175 3 OFFCURVE",
"65 84 OFFCURVE",
"65 204 CURVE SMOOTH",
"65 319 OFFCURVE",
"176 412 OFFCURVE",
"315 412 CURVE SMOOTH",
"396 412 OFFCURVE",
"466 393 OFFCURVE",
"521 358 CURVE",
"514 243 LINE",
"521 242 LINE",
"598 339 LINE",
"509 400 OFFCURVE",
"421 431 OFFCURVE",
"334 431 CURVE SMOOTH",
"169 431 OFFCURVE",
"40 329 OFFCURVE",
"40 197 CURVE SMOOTH"
);
}
);
width = 667;
},
{
layerId = "D4C2733C-030D-4F32-9813-200DF8941BD6";
paths = (
{
closed = 1;
nodes = (
"29 76 OFFCURVE",
"97 -14 OFFCURVE",
"216 -14 CURVE SMOOTH",
"311 -14 OFFCURVE",
"380 42 OFFCURVE",
"423 128 CURVE",
"411 133 LINE",
"378 71 OFFCURVE",
"317 29 OFFCURVE",
"244 29 CURVE SMOOTH",
"126 29 OFFCURVE",
"87 128 OFFCURVE",
"88 220 CURVE SMOOTH",
"89 329 OFFCURVE",
"138 399 OFFCURVE",
"217 400 CURVE SMOOTH",
"277 401 OFFCURVE",
"328 368 OFFCURVE",
"363 352 CURVE",
"361 251 LINE",
"366 249 LINE",
"420 352 LINE",
"358 397 OFFCURVE",
"301 426 OFFCURVE",
"232 425 CURVE SMOOTH",
"108 422 OFFCURVE",
"29 314 OFFCURVE",
"29 186 CURVE SMOOTH"
);
}
);
width = 470;
}
);
unicode = 0063;
},
{
color = 3;
glyphname = ccedilla;
lastChange = "2020-04-09 10:00:24 +0000";
layers = (
{
layerId = "0CCC0E2D-406A-4672-8E6C-854B1DF78A27";
paths = (
{
closed = 1;
nodes = (
"40 63 OFFCURVE",
"149 -20 OFFCURVE",
"313 -20 CURVE SMOOTH",
"327.356 -20 OFFCURVE",
"341.532 -19.349 OFFCURVE",
"355.517 -18.052 CURVE",
"277 -54 LINE",
"290 -77 LINE",
"332 -66 OFFCURVE",
"366 -84 OFFCURVE",
"366 -120 CURVE SMOOTH",
"366 -146 OFFCURVE",
"335 -165 OFFCURVE",
"296 -165 CURVE SMOOTH",
"268 -165 OFFCURVE",
"238 -154 OFFCURVE",
"223 -138 CURVE",
"214 -146 LINE",
"240 -178 OFFCURVE",
"282 -200 OFFCURVE",
"339 -200 CURVE SMOOTH",
"391 -200 OFFCURVE",
"434 -167 OFFCURVE",
"434 -118 CURVE SMOOTH",
"434 -71 OFFCURVE",
"388 -38 OFFCURVE",
"341 -49 CURVE",
"396 -25 OFFCURVE",
"442 -3 OFFCURVE",
"484 17 CURVE SMOOTH",
"542 46 OFFCURVE",
"595 81 OFFCURVE",
"633 118 CURVE",
"618 126 LINE",
"555 66 OFFCURVE",
"460 33 OFFCURVE",
"350 33 CURVE SMOOTH",
"199 33 OFFCURVE",
"110 100 OFFCURVE",
"110 214 CURVE SMOOTH",
"110 330 OFFCURVE",
"194 406 OFFCURVE",
"323 406 CURVE SMOOTH",
"391 406 OFFCURVE",
"470 385 OFFCURVE",
"551 346 CURVE",
"551 233 LINE",
"557 231 LINE",
"628 343 LINE",
"527 409 OFFCURVE",
"435 440 OFFCURVE",
"344 440 CURVE SMOOTH",
"175 440 OFFCURVE",
"40 328 OFFCURVE",
"40 188 CURVE SMOOTH"
);
}
);
width = 688;
},
{
layerId = "1838EE49-6142-4994-A2D6-8A9E455BC2D6";
paths = (
{
closed = 1;
nodes = (
"20 85 OFFCURVE",
"58 -10 OFFCURVE",
"144 -10 CURVE SMOOTH",
"145 -10 OFFCURVE",
"147 -10 OFFCURVE",
"148.441 -9.922 CURVE",
"113 -43 LINE",
"119 -56 LINE",
"148 -39 OFFCURVE",
"173 -65 OFFCURVE",
"173 -99 CURVE SMOOTH",
"173 -131 OFFCURVE",
"158 -169 OFFCURVE",
"116 -169 CURVE SMOOTH",
"98 -169 OFFCURVE",
"78 -162 OFFCURVE",
"63 -153 CURVE",
"58 -158 LINE",
"75 -175 OFFCURVE",
"106 -189 OFFCURVE",
"135 -189 CURVE SMOOTH",
"185 -189 OFFCURVE",
"218 -141 OFFCURVE",
"218 -97 CURVE SMOOTH",
"218 -53 OFFCURVE",
"185 -19 OFFCURVE",
"146 -38 CURVE",
"163 -17 OFFCURVE",
"199 -1 OFFCURVE",
"226 34 CURVE SMOOTH",
"244 57 OFFCURVE",
"264 101 OFFCURVE",
"266 135 CURVE",
"255 139 LINE",
"245 74 OFFCURVE",
"210 26 OFFCURVE",
"165 26 CURVE SMOOTH",
"72 26 OFFCURVE",
"70 149 OFFCURVE",
"72 225 CURVE SMOOTH",
"73 329 OFFCURVE",
"96 393 OFFCURVE",
"138 395 CURVE SMOOTH",
"192 397 OFFCURVE",
"222 356 OFFCURVE",
"222 356 CURVE",
"219 264 LINE",
"223 262 LINE",
"264 359 LINE",
"231 388 OFFCURVE",
"201 415 OFFCURVE",
"148 413 CURVE SMOOTH",
"58 409 OFFCURVE",
"20 304 OFFCURVE",
"20 185 CURVE SMOOTH"
);
}
);
width = 306;
},
{
layerId = "84B9B914-E755-4DFA-8752-0B6F9D0EEB02";
paths = (
{
closed = 1;
nodes = (
"20 85 OFFCURVE",
"60 -10 OFFCURVE",
"141 -10 CURVE SMOOTH",
"152.146 -10 OFFCURVE",
"162.129 -8.226 OFFCURVE",
"171.073 -5.108 CURVE",
"138 -47 LINE",
"148 -55 LINE",
"192 -38 OFFCURVE",
"209 -57 OFFCURVE",
"209 -101 CURVE SMOOTH",
"209 -147 OFFCURVE",
"183 -175 OFFCURVE",
"147 -175 CURVE SMOOTH",
"126 -175 OFFCURVE",
"99 -164 OFFCURVE",
"79 -147 CURVE",
"76 -155 LINE",
"94 -173 OFFCURVE",
"127 -191 OFFCURVE",
"153 -191 CURVE SMOOTH",
"199 -191 OFFCURVE",
"236 -149 OFFCURVE",
"236 -99 CURVE SMOOTH",
"236 -48 OFFCURVE",
"198 -22 OFFCURVE",
"154 -44 CURVE",
"176 -10 OFFCURVE",
"195 5 OFFCURVE",
"209 25 CURVE SMOOTH",
"222 43 OFFCURVE",
"241 81 OFFCURVE",
"248 107 CURVE",
"242 109 LINE",
"231 87 OFFCURVE",
"211 7 OFFCURVE",
"149 7 CURVE SMOOTH",
"64 7 OFFCURVE",
"43 136 OFFCURVE",
"43 219 CURVE SMOOTH",
"43 320 OFFCURVE",
"74 391 OFFCURVE",
"133 391 CURVE SMOOTH",
"156 391 OFFCURVE",
"186 380 OFFCURVE",
"201 359 CURVE",
"189 257 LINE",
"195 255 LINE",
"246 343 LINE",
"222 378 OFFCURVE",
"185 408 OFFCURVE",
"141 408 CURVE SMOOTH",
"67 408 OFFCURVE",
"20 330 OFFCURVE",
"20 191 CURVE SMOOTH"
);
}
);
width = 288;
},
{
associatedMasterId = "84B9B914-E755-4DFA-8752-0B6F9D0EEB02";
layerId = "3815076E-E8BF-4D48-A6C5-2C61EB422839";
name = "Apr 8 20, 19:31";
paths = (
{
closed = 1;
nodes = (
"20 85 OFFCURVE",
"60 -10 OFFCURVE",
"141 -10 CURVE SMOOTH",
"152.146 -10 OFFCURVE",
"162.129 -8.226 OFFCURVE",
"171.073 -5.108 CURVE",
"138 -47 LINE",
"148 -55 LINE",
"192 -38 OFFCURVE",
"209 -57 OFFCURVE",
"209 -101 CURVE SMOOTH",
"209 -147 OFFCURVE",
"183 -175 OFFCURVE",
"147 -175 CURVE SMOOTH",
"126 -175 OFFCURVE",
"99 -164 OFFCURVE",
"79 -147 CURVE",
"76 -155 LINE",
"94 -173 OFFCURVE",
"127 -191 OFFCURVE",
"153 -191 CURVE SMOOTH",
"199 -191 OFFCURVE",
"236 -149 OFFCURVE",
"236 -99 CURVE SMOOTH",
"236 -48 OFFCURVE",
"198 -22 OFFCURVE",
"154 -44 CURVE",
"195.901 8.62 LINE",
"232.568 37.624 OFFCURVE",
"243.67 91.844 OFFCURVE",
"248 107 CURVE",
"242 109 LINE",
"231 87 OFFCURVE",
"211 7 OFFCURVE",
"149 7 CURVE SMOOTH",
"64 7 OFFCURVE",
"43 136 OFFCURVE",
"43 219 CURVE SMOOTH",
"43 320 OFFCURVE",
"74 391 OFFCURVE",
"133 391 CURVE SMOOTH",
"156 391 OFFCURVE",
"186 380 OFFCURVE",
"201 359 CURVE",
"189 257 LINE",
"195 255 LINE",
"246 343 LINE",
"222 378 OFFCURVE",
"185 408 OFFCURVE",
"141 408 CURVE SMOOTH",
"67 408 OFFCURVE",
"20 330 OFFCURVE",
"20 191 CURVE SMOOTH"
);
}
);
width = 288;
},
{
layerId = "8D80EE76-87DD-4377-B1D9-DA40B71577EF";
paths = (
{
closed = 1;
nodes = (
"40 68 OFFCURVE",
"158 -20 OFFCURVE",
"308 -20 CURVE SMOOTH",
"350 -20 OFFCURVE",
"388 -16 OFFCURVE",
"423 -7 CURVE",
"333 -61 LINE",
"343 -71 LINE",
"385 -60 OFFCURVE",
"429 -82 OFFCURVE",
"429 -124 CURVE SMOOTH",
"429 -150 OFFCURVE",
"409 -187 OFFCURVE",
"350 -187 CURVE SMOOTH",
"310 -187 OFFCURVE",
"269 -160 OFFCURVE",
"253 -146 CURVE",
"249 -150 LINE",
"275 -182 OFFCURVE",
"317 -204 OFFCURVE",
"374 -204 CURVE SMOOTH",
"426 -204 OFFCURVE",
"469 -171 OFFCURVE",
"469 -122 CURVE SMOOTH",
"469 -75 OFFCURVE",
"423 -42 OFFCURVE",
"359 -63 CURVE",
"414 -30 OFFCURVE",
"460 -1 OFFCURVE",
"499 23 CURVE SMOOTH",
"552 57 OFFCURVE",
"590 84 OFFCURVE",
"612 106 CURVE",
"602 115 LINE",
"532 48 OFFCURVE",
"450 3 OFFCURVE",
"334 3 CURVE SMOOTH",
"179 3 OFFCURVE",
"65 82 OFFCURVE",
"65 204 CURVE SMOOTH",
"65 324 OFFCURVE",
"182 412 OFFCURVE",
"315 412 CURVE SMOOTH",
"394 412 OFFCURVE",
"465 394 OFFCURVE",
"521 358 CURVE",
"514 243 LINE",
"521 242 LINE",
"598 339 LINE",
"502 405 OFFCURVE",
"414 431 OFFCURVE",
"334 431 CURVE SMOOTH",
"170 431 OFFCURVE",
"40 331 OFFCURVE",
"40 197 CURVE SMOOTH"
);
}
);
width = 667;
},
{
layerId = "D4C2733C-030D-4F32-9813-200DF8941BD6";
paths = (
{
closed = 1;
nodes = (
"29 76 OFFCURVE",
"97 -14 OFFCURVE",
"216 -14 CURVE SMOOTH",
"223 -14 OFFCURVE",
"230 -14 OFFCURVE",
"237 -13 CURVE",
"183 -48 LINE",
"192 -65 LINE",
"227 -51 OFFCURVE",
"256 -73 OFFCURVE",
"256 -108 CURVE SMOOTH",
"256 -137 OFFCURVE",
"234 -167 OFFCURVE",
"193 -167 CURVE SMOOTH",
"171 -167 OFFCURVE",
"147 -159 OFFCURVE",
"132 -147 CURVE",
"125 -153 LINE",
"146 -176 OFFCURVE",
"181 -194 OFFCURVE",
"222 -194 CURVE SMOOTH",
"273 -194 OFFCURVE",
"311 -152 OFFCURVE",
"311 -106 CURVE SMOOTH",
"311 -61 OFFCURVE",
"272 -27 OFFCURVE",
"230 -43 CURVE",
"263 -20 OFFCURVE",
"303 -2 OFFCURVE",
"337 27 CURVE SMOOTH",
"372 52 OFFCURVE",
"406 92 OFFCURVE",
"423 128 CURVE",
"411 133 LINE",
"378 71 OFFCURVE",
"317 29 OFFCURVE",
"244 29 CURVE SMOOTH",
"126 29 OFFCURVE",
"87 128 OFFCURVE",
"88 220 CURVE SMOOTH",
"89 329 OFFCURVE",
"138 399 OFFCURVE",
"217 400 CURVE SMOOTH",
"277 401 OFFCURVE",
"328 368 OFFCURVE",
"363 352 CURVE",
"361 251 LINE",
"366 249 LINE",
"420 352 LINE",
"358 397 OFFCURVE",
"301 426 OFFCURVE",
"232 425 CURVE SMOOTH",
"108 422 OFFCURVE",
"29 314 OFFCURVE",
"29 186 CURVE SMOOTH"
);
}
);
width = 470;
}
);
leftMetricsKey = c;
rightMetricsKey = c;
unicode = 00E7;
},
{
color = 3;
glyphname = d;
lastChange = "2020-04-09 10:00:24 +0000";
layers = (
{
layerId = "0CCC0E2D-406A-4672-8E6C-854B1DF78A27";
paths = (
{
closed = 1;
nodes = (
"50 69 OFFCURVE",
"150 -5 OFFCURVE",
"310 -5 CURVE SMOOTH",
"414 -5 OFFCURVE",
"523 25 OFFCURVE",
"583.547 70.405 CURVE",
"601 -4 LINE",
"802 33 LINE",
"799 38 LINE",
"652 51 LINE",
"652 650 LINE",
"661 700 LINE",
"432 630 LINE",
"434 625 LINE",
"582 630 LINE",
"582 369.941 LINE",
"518 410 OFFCURVE",
"464 425 OFFCURVE",
"388 425 CURVE SMOOTH",
"192 425 OFFCURVE",
"50 325 OFFCURVE",
"50 187 CURVE SMOOTH"
);
},
{
closed = 1;
nodes = (
"120 323 OFFCURVE",
"208 392 OFFCURVE",
"351 392 CURVE SMOOTH",
"440 392 OFFCURVE",
"530 356 OFFCURVE",
"582 300.099 CURVE",
"582 112.843 LINE",
"530 59 OFFCURVE",
"443 28 OFFCURVE",
"341 28 CURVE SMOOTH",
"205 28 OFFCURVE",
"120 98 OFFCURVE",
"120 212 CURVE SMOOTH"
);
}
);
width = 802;
},
{
layerId = "1838EE49-6142-4994-A2D6-8A9E455BC2D6";
paths = (
{
closed = 1;
nodes = (
"30 68 OFFCURVE",
"84 -8 OFFCURVE",
"164 -8 CURVE SMOOTH",
"196.083 -8 OFFCURVE",
"225.37 14.366 OFFCURVE",
"248.999 49.874 CURVE",
"263 -6 LINE",
"388 16 LINE",
"386 20 LINE",
"299 30 LINE",
"298 674 LINE",
"305 700 LINE",
"158 658 LINE",
"161 656 LINE",
"248 653 LINE",
"248.451 380.348 LINE",
"229.067 401.284 OFFCURVE",
"199.85 417 OFFCURVE",
"165 417 CURVE SMOOTH",
"84 417 OFFCURVE",
"30 317 OFFCURVE",
"30 176 CURVE SMOOTH"
);
},
{
closed = 1;
nodes = (
"84 296 OFFCURVE",
"83 391 OFFCURVE",
"157 391 CURVE SMOOTH",
"205.033 391 OFFCURVE",
"241.197 342.737 OFFCURVE",
"248.604 288.437 CURVE",
"248.87 127.329 LINE",
"246.657 62.398 OFFCURVE",
"216.314 17.037 OFFCURVE",
"173 18 CURVE SMOOTH",
"119 19 OFFCURVE",
"84 79 OFFCURVE",
"84 199 CURVE SMOOTH"
);
}
);
width = 398;
},
{
layerId = "84B9B914-E755-4DFA-8752-0B6F9D0EEB02";
paths = (
{
closed = 1;
nodes = (
"30 69 OFFCURVE",
"68 -4 OFFCURVE",
"150 -4 CURVE SMOOTH",
"189 -4 OFFCURVE",
"230 23 OFFCURVE",
"245 63 CURVE",
"251 -3 LINE",
"357 23 LINE",
"359 29 LINE",
"266 37 LINE",
"266 665 LINE",
"273 700 LINE",
"156 648 LINE",
"158 642 LINE",
"246 649 LINE",
"246 346 LINE",
"221 389 OFFCURVE",
"193 410 OFFCURVE",
"159 410 CURVE SMOOTH",
"85 410 OFFCURVE",
"30 314 OFFCURVE",
"30 183 CURVE SMOOTH"
);
},
{
closed = 1;
nodes = (
"50 296 OFFCURVE",
"88 393 OFFCURVE",
"159 393 CURVE SMOOTH",
"204 393 OFFCURVE",
"245 343 OFFCURVE",
"246 288 CURVE SMOOTH",
"245 120 LINE SMOOTH",
"245 66 OFFCURVE",
"210 13 OFFCURVE",
"152 13 CURVE SMOOTH",
"94 13 OFFCURVE",
"50 76 OFFCURVE",
"50 167 CURVE SMOOTH"
);
}
);
width = 369;
},
{
layerId = "8D80EE76-87DD-4377-B1D9-DA40B71577EF";
paths = (
{
closed = 1;
nodes = (
"50 74 OFFCURVE",
"158 -6 OFFCURVE",
"310 -6 CURVE SMOOTH",
"415 -6 OFFCURVE",
"520 32 OFFCURVE",
"582 92 CURVE",
"587 -5 LINE",
"760 23 LINE",
"757 28 LINE",
"606 50 LINE",
"606 659 LINE",
"615 700 LINE",
"432 639 LINE",
"434 634 LINE",
"582 639 LINE",
"582 328 LINE",
"533 380 OFFCURVE",
"438 419 OFFCURVE",
"358 419 CURVE SMOOTH",
"176 419 OFFCURVE",
"50 323 OFFCURVE",
"50 185 CURVE SMOOTH"
);
},
{
closed = 1;
nodes = (
"74 316 OFFCURVE",
"185 398 OFFCURVE",
"342 398 CURVE SMOOTH",
"434 398 OFFCURVE",
"525 362 OFFCURVE",
"582 301 CURVE",
"582 120 LINE",
"532 56 OFFCURVE",
"430 15 OFFCURVE",
"319 15 CURVE SMOOTH",
"174 15 OFFCURVE",
"74 90 OFFCURVE",
"74 199 CURVE SMOOTH"
);
}
);
width = 760;
},
{
layerId = "D4C2733C-030D-4F32-9813-200DF8941BD6";
paths = (
{
closed = 1;
nodes = (
"39 68 OFFCURVE",
"112 -7 OFFCURVE",
"227 -7 CURVE SMOOTH",
"289 -7 OFFCURVE",
"353 19 OFFCURVE",
"392 59 CURVE",
"408 -5 LINE",
"565 23 LINE",
"563 28 LINE",
"450 39 LINE",
"450 664 LINE",
"458 700 LINE",
"275 646 LINE",
"278 643 LINE",
"391 643 LINE",
"391 376 LINE",
"353 405 OFFCURVE",
"313 420 OFFCURVE",
"261 420 CURVE SMOOTH",
"130 420 OFFCURVE",
"39 320 OFFCURVE",
"39 181 CURVE SMOOTH"
);
},
{
closed = 1;
nodes = (
"99 308 OFFCURVE",
"137 391 OFFCURVE",
"240 391 CURVE SMOOTH",
"306 391 OFFCURVE",
"365 348 OFFCURVE",
"391 293 CURVE",
"392 121 LINE",
"368 61 OFFCURVE",
"313 22 OFFCURVE",
"245 22 CURVE SMOOTH",
"156 23 OFFCURVE",
"99 87 OFFCURVE",
"99 205 CURVE SMOOTH"
);
}
);
width = 571;
}
);
unicode = 0064;
},
{
color = 3;
glyphname = eth;
lastChange = "2020-04-09 10:00:24 +0000";
layers = (
{
layerId = "0CCC0E2D-406A-4672-8E6C-854B1DF78A27";
paths = (
{
closed = 1;
nodes = (
"60 70 OFFCURVE",
"195 -20 OFFCURVE",
"386 -20 CURVE SMOOTH",
"590 -20 OFFCURVE",
"710 90 OFFCURVE",
"710 256 CURVE SMOOTH",
"710 371.862 OFFCURVE",
"649.928 468.93 OFFCURVE",
"558.167 530.097 CURVE",
"634 559 LINE",
"622 585 LINE",
"527.146 548.755 LINE",
"466.44 581.576 OFFCURVE",
"394.831 600 OFFCURVE",
"319 600 CURVE",
"319 577 LINE",
"374.734 577 OFFCURVE",
"428.402 559.272 OFFCURVE",
"475.304 528.946 CURVE",
"376 491 LINE",
"390 466 LINE",
"502.904 509.033 LINE",
"556.242 466.318 OFFCURVE",
"598.228 406.593 OFFCURVE",
"620.475 339.011 CURVE",
"571.733 394.321 OFFCURVE",
"475.164 430 OFFCURVE",
"378 430 CURVE SMOOTH",
"186 430 OFFCURVE",
"60 344 OFFCURVE",
"60 198 CURVE SMOOTH"
);
},
{
closed = 1;
nodes = (
"132 333 OFFCURVE",
"219 393 OFFCURVE",
"356 397 CURVE SMOOTH",
"469.811 399.995 OFFCURVE",
"604.552 346.179 OFFCURVE",
"637.835 241.522 CURVE",
"638 238 OFFCURVE",
"638 235 OFFCURVE",
"638 231 CURVE SMOOTH",
"638 101 OFFCURVE",
"557 13 OFFCURVE",
"419 13 CURVE SMOOTH",
"251 13 OFFCURVE",
"132 100 OFFCURVE",
"132 224 CURVE SMOOTH"
);
}
);
width = 770;
},
{
layerId = "1838EE49-6142-4994-A2D6-8A9E455BC2D6";
paths = (
{
closed = 1;
nodes = (
"20 64 OFFCURVE",
"62 -10 OFFCURVE",
"147 -10 CURVE SMOOTH",
"232 -10 OFFCURVE",
"292 76 OFFCURVE",
"292 197 CURVE SMOOTH",
"292 292 OFFCURVE",
"291 439 OFFCURVE",
"251 527 CURVE",
"305 581 LINE",
"287 599 LINE",
"238 550 LINE",
"218 581 OFFCURVE",
"191 600 OFFCURVE",
"155 600 CURVE",
"155 580 LINE",
"183 578 OFFCURVE",
"202 558 OFFCURVE",
"214 526 CURVE",
"144 456 LINE",
"162 438 LINE",
"223 499 LINE",
"232 463 OFFCURVE",
"236 419 OFFCURVE",
"237 372 CURVE",
"220 397 OFFCURVE",
"189 410 OFFCURVE",
"162 410 CURVE SMOOTH",
"79 410 OFFCURVE",
"20 329 OFFCURVE",
"20 214 CURVE SMOOTH"
);
},
{
closed = 1;
nodes = (
"75 340 OFFCURVE",
"106 391 OFFCURVE",
"155 391 CURVE SMOOTH",
"187 391 OFFCURVE",
"219 369 OFFCURVE",
"238 336 CURVE",
"239 279 OFFCURVE",
"237 221 OFFCURVE",
"237 174 CURVE SMOOTH",
"237 57 OFFCURVE",
"214 14 OFFCURVE",
"155 14 CURVE SMOOTH",
"105 14 OFFCURVE",
"75 66 OFFCURVE",
"75 254 CURVE SMOOTH"
);
}
);
width = 320;
},
{
layerId = "84B9B914-E755-4DFA-8752-0B6F9D0EEB02";
paths = (
{
closed = 1;
nodes = (
"20 68 OFFCURVE",
"56 -10 OFFCURVE",
"139 -10 CURVE SMOOTH",
"224 -10 OFFCURVE",
"261 71 OFFCURVE",
"261 192 CURVE SMOOTH",
"261 315 OFFCURVE",
"248 442 OFFCURVE",
"216 521 CURVE",
"276 581 LINE",
"263 595 LINE",
"207 539 LINE",
"188 577 OFFCURVE",
"163 600 OFFCURVE",
"131 600 CURVE",
"131 582 LINE",
"157 580 OFFCURVE",
"177 557 OFFCURVE",
"192 524 CURVE",
"120 452 LINE",
"133 438 LINE",
"201 506 LINE",
"220 456 OFFCURVE",
"231 391 OFFCURVE",
"237 342 CURVE",
"216 387 OFFCURVE",
"184 410 OFFCURVE",
"143 410 CURVE SMOOTH",
"72 410 OFFCURVE",
"20 333 OFFCURVE",
"20 219 CURVE SMOOTH"
);
},
{
closed = 1;
nodes = (
"44 341 OFFCURVE",
"91 395 OFFCURVE",
"143 395 CURVE SMOOTH",
"179 395 OFFCURVE",
"217 364 OFFCURVE",
"231 319 CURVE SMOOTH",
"242 285 OFFCURVE",
"237 239 OFFCURVE",
"237 180 CURVE SMOOTH",
"236 52 OFFCURVE",
"190 4 OFFCURVE",
"140 5 CURVE SMOOTH",
"75 6 OFFCURVE",
"44 82 OFFCURVE",
"44 251 CURVE SMOOTH"
);
}
);
width = 291;
},
{
layerId = "8D80EE76-87DD-4377-B1D9-DA40B71577EF";
paths = (
{
closed = 1;
nodes = (
"60 74 OFFCURVE",
"184 -20 OFFCURVE",
"356 -20 CURVE SMOOTH",
"536 -20 OFFCURVE",
"657 67 OFFCURVE",
"657 206 CURVE SMOOTH",
"657 342 OFFCURVE",
"614 447 OFFCURVE",
"518 528 CURVE",
"598 558 LINE",
"591 577 LINE",
"499 543 LINE",
"446 583 OFFCURVE",
"388 600 OFFCURVE",
"312 600 CURVE",
"312 584 LINE",
"372 584 OFFCURVE",
"427 567 OFFCURVE",
"474 535 CURVE",
"390 504 LINE",
"397 484 LINE",
"494 519 LINE",
"553 469 OFFCURVE",
"601 395 OFFCURVE",
"619 316 CURVE",
"572 387 OFFCURVE",
"481 430 OFFCURVE",
"364 430 CURVE SMOOTH",
"183 430 OFFCURVE",
"60 338 OFFCURVE",
"60 205 CURVE SMOOTH"
);
},
{
closed = 1;
nodes = (
"86 332 OFFCURVE",
"189 411 OFFCURVE",
"344 412 CURVE SMOOTH",
"508 412 OFFCURVE",
"624 327 OFFCURVE",
"631 202 CURVE",
"631 200 OFFCURVE",
"631 197 OFFCURVE",
"631 194 CURVE SMOOTH",
"630 81 OFFCURVE",
"534 1 OFFCURVE",
"377 1 CURVE SMOOTH",
"208 1 OFFCURVE",
"86 91 OFFCURVE",
"86 218 CURVE SMOOTH"
);
}
);
width = 717;
},
{
layerId = "D4C2733C-030D-4F32-9813-200DF8941BD6";
paths = (
{
closed = 1;
nodes = (
"37 67 OFFCURVE",
"119 -14 OFFCURVE",
"249 -14 CURVE SMOOTH",
"385 -14 OFFCURVE",
"471 82 OFFCURVE",
"471 222 CURVE SMOOTH",
"471 326 OFFCURVE",
"445 452 OFFCURVE",
"383 528 CURVE",
"446 572 LINE",
"431 593 LINE",
"362 549 LINE",
"324 581 OFFCURVE",
"278 600 OFFCURVE",
"225 600 CURVE",
"225 579 LINE",
"265 578 OFFCURVE",
"299 559 OFFCURVE",
"326 527 CURVE",
"243 471 LINE",
"260 450 LINE",
"343 503 LINE",
"371 464 OFFCURVE",
"391 414 OFFCURVE",
"401 358 CURVE",
"371 396 OFFCURVE",
"312 419 OFFCURVE",
"255 419 CURVE SMOOTH",
"125 419 OFFCURVE",
"37 335 OFFCURVE",
"37 207 CURVE SMOOTH"
);
},
{
closed = 1;
nodes = (
"99 337 OFFCURVE",
"154 392 OFFCURVE",
"241 394 CURVE SMOOTH",
"308 395 OFFCURVE",
"384 359 OFFCURVE",
"409 296 CURVE",
"410 261 OFFCURVE",
"409 227 OFFCURVE",
"409 198 CURVE SMOOTH",
"409 76 OFFCURVE",
"361 14 OFFCURVE",
"268 14 CURVE SMOOTH",
"168 14 OFFCURVE",
"99 81 OFFCURVE",
"99 241 CURVE SMOOTH"
);
}
);
width = 513;
}
);
unicode = 00F0;
},
{
color = 3;
glyphname = e;
lastChange = "2020-04-09 10:00:24 +0000";
layers = (
{
layerId = "0CCC0E2D-406A-4672-8E6C-854B1DF78A27";
paths = (
{
closed = 1;
nodes = (
"50 56 OFFCURVE",
"189 -20 OFFCURVE",
"333 -20 CURVE SMOOTH",
"462 -20 OFFCURVE",
"560 33 OFFCURVE",
"643 118 CURVE",
"628 126 LINE",
"554 56 OFFCURVE",
"462 30 OFFCURVE",
"370 30 CURVE SMOOTH",
"252.837 30 OFFCURVE",
"124.96 85.352 OFFCURVE",
"111.215 202.803 CURVE",
"638 196 LINE",
"636 334 OFFCURVE",
"518 430 OFFCURVE",
"357 430 CURVE SMOOTH",
"175 430 OFFCURVE",
"50 326 OFFCURVE",
"50 198 CURVE SMOOTH"
);
},
{
closed = 1;
nodes = (
"111.125 321.849 OFFCURVE",
"209.647 396 OFFCURVE",
"323 396 CURVE SMOOTH",
"456.977 396 OFFCURVE",
"545.713 325.456 OFFCURVE",
"567.722 245.468 CURVE",
"110.01 225.65 LINE"
);
}
);
width = 703;
},
{
layerId = "1838EE49-6142-4994-A2D6-8A9E455BC2D6";
paths = (
{
closed = 1;
nodes = (
"30 85 OFFCURVE",
"73 -10 OFFCURVE",
"159 -10 CURVE SMOOTH",
"233 -10 OFFCURVE",
"275 54 OFFCURVE",
"284 135 CURVE",
"273 139 LINE",
"263 74 OFFCURVE",
"225 26 OFFCURVE",
"180 26 CURVE SMOOTH",
"97.024 26 OFFCURVE",
"84.1 123.914 OFFCURVE",
"82.278 199 CURVE",
"290 199 LINE",
"288 345 OFFCURVE",
"241 410 OFFCURVE",
"166 410 CURVE SMOOTH",
"87 410 OFFCURVE",
"30 341 OFFCURVE",
"30 185 CURVE SMOOTH"
);
},
{
closed = 1;
nodes = (
"82 340 OFFCURVE",
"98 391 OFFCURVE",
"152 391 CURVE SMOOTH",
"206.068 391 OFFCURVE",
"239.841 318.521 OFFCURVE",
"240.971 222.013 CURVE",
"82.046 213.485 LINE"
);
}
);
width = 340;
},
{
layerId = "84B9B914-E755-4DFA-8752-0B6F9D0EEB02";
paths = (
{
closed = 1;
nodes = (
"30 65 OFFCURVE",
"68 -10 OFFCURVE",
"145 -10 CURVE SMOOTH",
"210 -10 OFFCURVE",
"248 36 OFFCURVE",
"263 131 CURVE",
"252 136 LINE",
"241 56 OFFCURVE",
"201 4 OFFCURVE",
"150 5 CURVE SMOOTH",
"91 6 OFFCURVE",
"61 68 OFFCURVE",
"55 199 CURVE",
"269 199 LINE",
"268 336 OFFCURVE",
"227 410 OFFCURVE",
"152 410 CURVE SMOOTH",
"81 410 OFFCURVE",
"30 331 OFFCURVE",
"30 219 CURVE SMOOTH"
);
},
{
closed = 1;
nodes = (
"54 335 OFFCURVE",
"86 395 OFFCURVE",
"152 395 CURVE SMOOTH",
"208 395 OFFCURVE",
"240 334 OFFCURVE",
"245 217 CURVE",
"55 211 LINE"
);
}
);
width = 319;
},
{
associatedMasterId = "84B9B914-E755-4DFA-8752-0B6F9D0EEB02";
layerId = "5208EA76-965B-4A09-84CD-4E925FC9102C";
name = "Oct 18 19, 16:49";
paths = (
{
closed = 1;
nodes = (
"30 92 OFFCURVE",
"57 -10 OFFCURVE",
"146 -10 CURVE SMOOTH",
"217 -10 OFFCURVE",
"251 44 OFFCURVE",
"263 127 CURVE",
"255 132 LINE",
"247 69 OFFCURVE",
"219 9 OFFCURVE",
"160 9 CURVE SMOOTH",
"55 9 OFFCURVE",
"52 121 OFFCURVE",
"58 199 CURVE",
"267 199 LINE",
"265 348 OFFCURVE",
"222 410 OFFCURVE",
"154 410 CURVE",
"86 410 OFFCURVE",
"30 344 OFFCURVE",
"30 185 CURVE SMOOTH"
);
},
{
closed = 1;
nodes = (
"59 340 OFFCURVE",
"85 401 OFFCURVE",
"149 401 CURVE",
"209 401 OFFCURVE",
"245 333 OFFCURVE",
"241 208 CURVE",
"60 209 LINE"
);
}
);
width = 313;
},
{
layerId = "8D80EE76-87DD-4377-B1D9-DA40B71577EF";
paths = (
{
closed = 1;
nodes = (
"50 70 OFFCURVE",
"161 -20 OFFCURVE",
"313 -20 CURVE SMOOTH",
"436 -20 OFFCURVE",
"522 17 OFFCURVE",
"610 105 CURVE",
"599 115 LINE",
"515 35 OFFCURVE",
"437 2 OFFCURVE",
"339 2 CURVE SMOOTH",
"183 2 OFFCURVE",
"74 82 OFFCURVE",
"73 203 CURVE",
"601 196 LINE",
"599 335 OFFCURVE",
"492 430 OFFCURVE",
"338 430 CURVE SMOOTH",
"173 430 OFFCURVE",
"50 331 OFFCURVE",
"50 198 CURVE SMOOTH"
);
},
{
closed = 1;
nodes = (
"75 321 OFFCURVE",
"190 412 OFFCURVE",
"317 412 CURVE SMOOTH",
"467 412 OFFCURVE",
"554 344 OFFCURVE",
"568 223 CURVE",
"75 219 LINE"
);
}
);
width = 670;
},
{
layerId = "D4C2733C-030D-4F32-9813-200DF8941BD6";
paths = (
{
closed = 1;
nodes = (
"39 73 OFFCURVE",
"123 -14 OFFCURVE",
"234 -14 CURVE SMOOTH",
"331 -14 OFFCURVE",
"397 45 OFFCURVE",
"438 128 CURVE",
"425 133 LINE",
"388 66 OFFCURVE",
"327 28 OFFCURVE",
"261 28 CURVE SMOOTH",
"164 28 OFFCURVE",
"102 107 OFFCURVE",
"95 201 CURVE",
"439 198 LINE",
"437 340 OFFCURVE",
"360 419 OFFCURVE",
"248 419 CURVE SMOOTH",
"125 419 OFFCURVE",
"39 335 OFFCURVE",
"39 191 CURVE SMOOTH"
);
},
{
closed = 1;
nodes = (
"94 332 OFFCURVE",
"146 393 OFFCURVE",
"225 393 CURVE SMOOTH",
"314 393 OFFCURVE",
"371 321 OFFCURVE",
"381 232 CURVE",
"94 219 LINE"
);
}
);
width = 496;
}
);
unicode = 0065;
},
{
color = 3;
glyphname = eogonek;
lastChange = "2020-04-09 10:00:24 +0000";
layers = (
{
layerId = "0CCC0E2D-406A-4672-8E6C-854B1DF78A27";
paths = (
{
closed = 1;
nodes = (
"50 56 OFFCURVE",
"189 -20 OFFCURVE",
"333 -20 CURVE SMOOTH",
"353.514 -20 OFFCURVE",
"373.245 -18.66 OFFCURVE",
"392.256 -16.063 CURVE",
"351.481 -50.607 OFFCURVE",
"333 -94.609 OFFCURVE",
"333 -129 CURVE SMOOTH",
"333 -179 OFFCURVE",
"371 -214 OFFCURVE",
"425 -214 CURVE SMOOTH",
"482 -214 OFFCURVE",
"509 -175 OFFCURVE",
"493 -121 CURVE SMOOTH",
"481 -81 LINE",
"466 -90 LINE",
"475 -123 OFFCURVE",
"457 -146 OFFCURVE",
"423 -146 CURVE SMOOTH",
"391 -146 OFFCURVE",
"368 -129 OFFCURVE",
"368 -106 CURVE SMOOTH",
"368 -12 OFFCURVE",
"548 21 OFFCURVE",
"643 118 CURVE",
"628 126 LINE",
"554 56 OFFCURVE",
"462 30 OFFCURVE",
"370 30 CURVE SMOOTH",
"253 30 OFFCURVE",
"125 85 OFFCURVE",
"111 203 CURVE",
"638 196 LINE",
"636 334 OFFCURVE",
"518 430 OFFCURVE",
"357 430 CURVE SMOOTH",
"175 430 OFFCURVE",
"50 326 OFFCURVE",
"50 198 CURVE SMOOTH"
);
},
{
closed = 1;
nodes = (
"111 322 OFFCURVE",
"210 396 OFFCURVE",
"323 396 CURVE SMOOTH",
"457 396 OFFCURVE",
"546 325 OFFCURVE",
"568 245 CURVE",
"110 226 LINE"
);
}
);
width = 703;
},
{
layerId = "1838EE49-6142-4994-A2D6-8A9E455BC2D6";
paths = (
{
closed = 1;
nodes = (
"30 85 OFFCURVE",
"73 -10 OFFCURVE",
"159 -10 CURVE SMOOTH",
"164.308 -10 OFFCURVE",
"169.45 -9.671 OFFCURVE",
"174.428 -9.03 CURVE",
"141.144 -45.944 OFFCURVE",
"119 -93.008 OFFCURVE",
"119 -129 CURVE SMOOTH",
"119 -175 OFFCURVE",
"152 -214 OFFCURVE",
"191 -214 CURVE SMOOTH",
"235 -214 OFFCURVE",
"263 -164 OFFCURVE",
"244 -121 CURVE SMOOTH",
"227 -81 LINE",
"217 -90 LINE",
"225 -136 OFFCURVE",
"216 -159 OFFCURVE",
"189 -159 CURVE SMOOTH",
"168 -159 OFFCURVE",
"154 -137 OFFCURVE",
"154 -106 CURVE SMOOTH",
"154 -17 OFFCURVE",
"284 32 OFFCURVE",
"284 135 CURVE",
"273 139 LINE",
"263 74 OFFCURVE",
"225 26 OFFCURVE",
"180 26 CURVE SMOOTH",
"97 26 OFFCURVE",
"84 124 OFFCURVE",
"82 199 CURVE",
"290 199 LINE",
"288 345 OFFCURVE",
"241 410 OFFCURVE",
"166 410 CURVE SMOOTH",
"87 410 OFFCURVE",
"30 341 OFFCURVE",
"30 185 CURVE SMOOTH"
);
},
{
closed = 1;
nodes = (
"82 340 OFFCURVE",
"98 391 OFFCURVE",
"152 391 CURVE SMOOTH",
"206 391 OFFCURVE",
"240 319 OFFCURVE",
"241 222 CURVE",
"82 213 LINE"
);
}
);
width = 340;
},
{
layerId = "84B9B914-E755-4DFA-8752-0B6F9D0EEB02";
paths = (
{
closed = 1;
nodes = (
"30 65 OFFCURVE",
"68 -10 OFFCURVE",
"145 -10 CURVE SMOOTH",
"153.013 -10 OFFCURVE",
"160.616 -9.301 OFFCURVE",
"167.816 -7.897 CURVE",
"128.989 -42.966 OFFCURVE",
"103.715 -88.139 OFFCURVE",
"100 -129 CURVE SMOOTH",
"96 -176 OFFCURVE",
"127 -214 OFFCURVE",
"170 -214 CURVE SMOOTH",
"213 -214 OFFCURVE",
"242 -156 OFFCURVE",
"222 -111 CURVE SMOOTH",
"208 -81 LINE",
"204 -84 LINE",
"227 -143 OFFCURVE",
"212 -185 OFFCURVE",
"168 -186 CURVE SMOOTH",
"137 -187 OFFCURVE",
"117 -158 OFFCURVE",
"123 -118 CURVE SMOOTH",
"142 9 OFFCURVE",
"237 -34 OFFCURVE",
"263 131 CURVE",
"252 136 LINE",
"241 56 OFFCURVE",
"201 4 OFFCURVE",
"150 5 CURVE SMOOTH",
"91 6 OFFCURVE",
"61 68 OFFCURVE",
"55 199 CURVE",
"269 199 LINE",
"268 336 OFFCURVE",
"227 410 OFFCURVE",
"152 410 CURVE SMOOTH",
"81 410 OFFCURVE",
"30 331 OFFCURVE",
"30 219 CURVE SMOOTH"
);
},
{
closed = 1;
nodes = (
"54 335 OFFCURVE",
"86 395 OFFCURVE",
"152 395 CURVE SMOOTH",
"208 395 OFFCURVE",
"240 334 OFFCURVE",
"245 217 CURVE",
"55 211 LINE"
);
}
);
width = 319;
},
{
associatedMasterId = "0CCC0E2D-406A-4672-8E6C-854B1DF78A27";
components = (
{
name = e;
},
{
name = ogonek;
}
);
layerId = "B9CE452A-BCD6-4703-8BE5-5E986549774D";
name = "Apr 8 20, 19:36";
width = 703;
},
{
layerId = "8D80EE76-87DD-4377-B1D9-DA40B71577EF";
paths = (
{
closed = 1;
nodes = (
"50 67 OFFCURVE",
"164 -20 OFFCURVE",
"313 -20 CURVE SMOOTH",
"343 -20 OFFCURVE",
"371 -18 OFFCURVE",
"397 -13 CURVE",
"353 -41 OFFCURVE",
"319 -88 OFFCURVE",
"319 -129 CURVE SMOOTH",
"319 -182 OFFCURVE",
"353 -214 OFFCURVE",
"408 -214 CURVE SMOOTH",
"467 -214 OFFCURVE",
"491 -159 OFFCURVE",
"475 -105 CURVE SMOOTH",
"467 -81 LINE",
"461 -84 LINE",
"477 -138 OFFCURVE",
"454 -174 OFFCURVE",
"406 -174 CURVE SMOOTH",
"367 -174 OFFCURVE",
"348 -148 OFFCURVE",
"348 -114 CURVE SMOOTH",
"348 -23 OFFCURVE",
"490 -15 OFFCURVE",
"610 105 CURVE",
"599 115 LINE",
"528 48 OFFCURVE",
"453 2 OFFCURVE",
"339 2 CURVE SMOOTH",
"186 2 OFFCURVE",
"74 80 OFFCURVE",
"73 203 CURVE",
"601 196 LINE",
"599 339 OFFCURVE",
"488 430 OFFCURVE",
"338 430 CURVE SMOOTH",
"173 430 OFFCURVE",
"50 331 OFFCURVE",
"50 198 CURVE SMOOTH"
);
},
{
closed = 1;
nodes = (
"75 321 OFFCURVE",
"190 412 OFFCURVE",
"317 412 CURVE SMOOTH",
"462 412 OFFCURVE",
"554 349 OFFCURVE",
"568 223 CURVE",
"75 219 LINE"
);
}
);
width = 670;
},
{
layerId = "D4C2733C-030D-4F32-9813-200DF8941BD6";
paths = (
{
closed = 1;
nodes = (
"39 73 OFFCURVE",
"123 -14 OFFCURVE",
"234 -14 CURVE SMOOTH",
"245 -14 OFFCURVE",
"257 -14 OFFCURVE",
"268 -12 CURVE",
"231 -48 OFFCURVE",
"211 -94 OFFCURVE",
"211 -129 CURVE SMOOTH",
"211 -177 OFFCURVE",
"246 -214 OFFCURVE",
"291 -214 CURVE SMOOTH",
"341 -214 OFFCURVE",
"368 -169 OFFCURVE",
"351 -121 CURVE SMOOTH",
"336 -81 LINE",
"324 -90 LINE",
"332 -130 OFFCURVE",
"319 -153 OFFCURVE",
"289 -153 CURVE SMOOTH",
"264 -153 OFFCURVE",
"246 -134 OFFCURVE",
"246 -106 CURVE SMOOTH",
"246 -15 OFFCURVE",
"397 27 OFFCURVE",
"438 128 CURVE",
"425 133 LINE",
"388 66 OFFCURVE",
"327 28 OFFCURVE",
"261 28 CURVE SMOOTH",
"164 28 OFFCURVE",
"102 107 OFFCURVE",
"94 201 CURVE",
"439 198 LINE",
"437 340 OFFCURVE",
"360 419 OFFCURVE",
"248 419 CURVE SMOOTH",
"125 419 OFFCURVE",
"39 335 OFFCURVE",
"39 191 CURVE SMOOTH"
);
},
{
closed = 1;
nodes = (
"94 332 OFFCURVE",
"146 393 OFFCURVE",
"225 393 CURVE SMOOTH",
"314 393 OFFCURVE",
"371 322 OFFCURVE",
"381 232 CURVE",
"94 219 LINE"
);
}
);
width = 496;
}
);
leftMetricsKey = e;
rightMetricsKey = e;
unicode = 0119;
},
{
color = 3;
glyphname = f;
lastChange = "2020-04-09 10:00:24 +0000";
layers = (
{
layerId = "0CCC0E2D-406A-4672-8E6C-854B1DF78A27";
paths = (
{
closed = 1;
nodes = (
"22 0 LINE",
"427 1 LINE",
"429 9 LINE",
"239 49 LINE",
"239 365 LINE",
"517 365 LINE",
"516 263 LINE",
"520 260 LINE",
"591 400 LINE",
"239 400 LINE",
"239 444 LINE",
"232 630 OFFCURVE",
"258 660 OFFCURVE",
"376 660 CURVE SMOOTH",
"438 660 OFFCURVE",
"500 641 OFFCURVE",
"559 609 CURVE",
"559 497 LINE",
"563 495 LINE",
"637 599 LINE",
"514 683 OFFCURVE",
"440 700 OFFCURVE",
"376 700 CURVE SMOOTH",
"234 700 OFFCURVE",
"169 612 OFFCURVE",
"169 444 CURVE SMOOTH",
"169 400 LINE",
"59 375 LINE",
"61 365 LINE",
"169 365 LINE",
"170 50 LINE",
"20 7 LINE"
);
}
);
width = 602;
},
{
layerId = "1838EE49-6142-4994-A2D6-8A9E455BC2D6";
paths = (
{
closed = 1;
nodes = (
"-8 0 LINE",
"248 0 LINE",
"251 4 LINE",
"131 30 LINE",
"131 375 LINE",
"224 375 LINE",
"221 304 LINE",
"225 302 LINE",
"265 400 LINE",
"131 400 LINE",
"131 444 LINE SMOOTH",
"131 624 OFFCURVE",
"140 670 OFFCURVE",
"178 670 CURVE SMOOTH",
"205 670 OFFCURVE",
"242 653 OFFCURVE",
"268 625 CURVE",
"260 515 LINE",
"264 513 LINE",
"309 609 LINE",
"252 693 OFFCURVE",
"207 700 OFFCURVE",
"178 700 CURVE SMOOTH",
"112 700 OFFCURVE",
"81 612 OFFCURVE",
"81 444 CURVE SMOOTH",
"81 400 LINE",
"22 380 LINE",
"22 375 LINE",
"81 375 LINE",
"81 30 LINE",
"-10 4 LINE"
);
}
);
width = 274;
},
{
associatedMasterId = "1838EE49-6142-4994-A2D6-8A9E455BC2D6";
layerId = "91E2FCBA-651B-456F-89C3-4E64951AFD74";
name = "Apr 20 19, 12:34";
paths = (
{
closed = 1;
nodes = (
"7 0 LINE",
"263 0 LINE",
"266 4 LINE",
"146 30 LINE",
"146 370 LINE",
"260 370 LINE",
"260 400 LINE",
"146 400 LINE",
"146 444 LINE SMOOTH",
"146 624 OFFCURVE",
"155 670 OFFCURVE",
"193 670 CURVE SMOOTH",
"220 670 OFFCURVE",
"257 653 OFFCURVE",
"283 625 CURVE",
"275 515 LINE",
"279 513 LINE",
"324 609 LINE",
"267 693 OFFCURVE",
"222 700 OFFCURVE",
"193 700 CURVE SMOOTH",
"127 700 OFFCURVE",
"96 612 OFFCURVE",
"96 444 CURVE SMOOTH",
"96 400 LINE",
"37 375 LINE",
"37 370 LINE",
"96 370 LINE",
"96 30 LINE",
"5 4 LINE"
);
}
);
width = 289;
},
{
associatedMasterId = "0CCC0E2D-406A-4672-8E6C-854B1DF78A27";
layerId = "AE03EC3E-DB56-489D-AD58-DCE31A067E7B";
name = "Apr 20 19, 12:42";
paths = (
{
closed = 1;
nodes = (
"42 0 LINE",
"447 1 LINE",
"449 9 LINE",
"259 49 LINE",
"259 365 LINE",
"576 365 LINE",
"576 400 LINE",
"259 400 LINE",
"259 444 LINE SMOOTH",
"252 630 OFFCURVE",
"278 660 OFFCURVE",
"396 660 CURVE SMOOTH",
"458 660 OFFCURVE",
"520 641 OFFCURVE",
"579 609 CURVE",
"579 497 LINE",
"583 495 LINE",
"657 599 LINE",
"534 683 OFFCURVE",
"460 700 OFFCURVE",
"396 700 CURVE SMOOTH",
"254 700 OFFCURVE",
"189 612 OFFCURVE",
"189 444 CURVE SMOOTH",
"189.112 400 LINE",
"79 375 LINE",
"81 365 LINE",
"189.201 365 LINE",
"190 50 LINE",
"40 7 LINE"
);
}
);
width = 622;
},
{
associatedMasterId = "FC46D930-83A8-41E8-A9CB-C8AD47DCDD9D";
layerId = "9BAE6DA4-4C92-43DC-ACA9-B9C3E33A85D1";
name = "Apr 20 19, 12:42";
paths = (
{
closed = 1;
nodes = (
"42 0 LINE",
"447 1 LINE",
"449 9 LINE",
"259 49 LINE",
"259 365 LINE",
"576 365 LINE",
"576 400 LINE",
"259 400 LINE",
"259 444 LINE SMOOTH",
"252 630 OFFCURVE",
"278 660 OFFCURVE",
"396 660 CURVE SMOOTH",
"458 660 OFFCURVE",
"520 641 OFFCURVE",
"579 609 CURVE",
"579 497 LINE",
"583 495 LINE",
"657 599 LINE",
"534 683 OFFCURVE",
"460 700 OFFCURVE",
"396 700 CURVE SMOOTH",
"254 700 OFFCURVE",
"189 612 OFFCURVE",
"189 444 CURVE SMOOTH",
"189.112 400 LINE",
"79 375 LINE",
"81 365 LINE",
"189.201 365 LINE",
"190 50 LINE",
"40 7 LINE"
);
}
);
width = 622;
},
{
associatedMasterId = "0CCC0E2D-406A-4672-8E6C-854B1DF78A27";
layerId = "4C53897C-C3FB-4B91-9675-9A9C1621A2C3";
name = "Apr 20 19, 12:34";
paths = (
{
closed = 1;
nodes = (
"7 0 LINE",
"263 0 LINE",
"266 4 LINE",
"146 30 LINE",
"146 370 LINE",
"260 370 LINE",
"260 400 LINE",
"146 400 LINE",
"146 444 LINE SMOOTH",
"146 624 OFFCURVE",
"155 670 OFFCURVE",
"193 670 CURVE SMOOTH",
"220 670 OFFCURVE",
"257 653 OFFCURVE",
"283 625 CURVE",
"275 515 LINE",
"279 513 LINE",
"324 609 LINE",
"267 693 OFFCURVE",
"222 700 OFFCURVE",
"193 700 CURVE SMOOTH",
"127 700 OFFCURVE",
"96 612 OFFCURVE",
"96 444 CURVE SMOOTH",
"96 400 LINE",
"37 375 LINE",
"37 370 LINE",
"96 370 LINE",
"96 30 LINE",
"5 4 LINE"
);
}
);
width = 289;
},
{
layerId = "84B9B914-E755-4DFA-8752-0B6F9D0EEB02";
paths = (
{
closed = 1;
nodes = (
"-8 0 LINE",
"217 0 LINE",
"219 4 LINE",
"100 40 LINE",
"100 385 LINE",
"188 385 LINE",
"183 309 LINE",
"187 307 LINE",
"240 400 LINE",
"100 400 LINE",
"100 444 LINE",
"100 624 OFFCURVE",
"109 684 OFFCURVE",
"147 684 CURVE SMOOTH",
"174 684 OFFCURVE",
"215 667 OFFCURVE",
"243 631 CURVE",
"229 531 LINE",
"233 529 LINE",
"288 617 LINE",
"241 672 OFFCURVE",
"187 700 OFFCURVE",
"147 700 CURVE SMOOTH",
"81 700 OFFCURVE",
"80 612 OFFCURVE",
"80 444 CURVE SMOOTH",
"80 400 LINE",
"22 388 LINE",
"22 385 LINE",
"80 385 LINE",
"80 40 LINE",
"-10 4 LINE"
);
}
);
width = 253;
},
{
layerId = "8D80EE76-87DD-4377-B1D9-DA40B71577EF";
paths = (
{
closed = 1;
nodes = (
"22 0 LINE",
"381 1 LINE",
"383 9 LINE",
"193 49 LINE",
"193 383 LINE",
"479 383 LINE",
"474 286 LINE",
"478 284 LINE",
"554 400 LINE",
"193 400 LINE",
"193 444 LINE",
"186 630 OFFCURVE",
"212 678 OFFCURVE",
"330 678 CURVE SMOOTH",
"392 678 OFFCURVE",
"463 650 OFFCURVE",
"522 618 CURVE",
"513 506 LINE",
"517 504 LINE",
"591 599 LINE",
"507 656 OFFCURVE",
"394 700 OFFCURVE",
"330 700 CURVE SMOOTH",
"188 700 OFFCURVE",
"169 612 OFFCURVE",
"169 444 CURVE SMOOTH",
"169 400 LINE",
"59 390 LINE",
"61 383 LINE",
"169 383 LINE",
"169 50 LINE",
"20 7 LINE"
);
}
);
width = 556;
},
{
layerId = "D4C2733C-030D-4F32-9813-200DF8941BD6";
paths = (
{
closed = 1;
nodes = (
"5 0 LINE",
"325 0 LINE",
"327 6 LINE",
"177 38 LINE",
"177 371 LINE",
"350 371 LINE",
"347 286 LINE",
"351 284 LINE",
"405 400 LINE",
"177 400 LINE",
"177 444 LINE",
"174 627 OFFCURVE",
"191 666 OFFCURVE",
"263 666 CURVE SMOOTH",
"305 666 OFFCURVE",
"353 648 OFFCURVE",
"393 618 CURVE",
"388 507 LINE",
"392 505 LINE",
"450 605 LINE",
"364 689 OFFCURVE",
"307 700 OFFCURVE",
"263 700 CURVE SMOOTH",
"164 700 OFFCURVE",
"119 612 OFFCURVE",
"119 444 CURVE SMOOTH",
"119 400 LINE",
"38 378 LINE",
"39 371 LINE",
"119 371 LINE",
"119 39 LINE",
"3 5 LINE"
);
}
);
width = 415;
}
);
unicode = 0066;
},
